<svg width="180" height="60" viewBox="0 0 180 60" fill="none" xmlns="http://www.w3.org/2000/svg"><g clip-path="url(#a)" fill="#000"><path fill-rule="evenodd" clip-rule="evenodd" d="M46.93 37.348c-.907 2-1.341 2.893-2.508 4.66-1.63 2.466-3.925 5.538-6.77 5.565-2.526.023-3.175-1.638-6.605-1.618-3.43.02-4.146 1.646-6.675 1.623-2.845-.026-5.019-2.8-6.649-5.267-4.554-6.9-5.03-14.997-2.222-19.301 1.997-3.058 5.145-4.85 8.107-4.85 3.014 0 4.91 1.645 7.402 1.645 2.417 0 3.89-1.648 7.377-1.648 2.635 0 5.427 1.428 7.415 3.897-6.516 3.556-5.457 12.818 1.127 15.294z"/><path fill-rule="evenodd" clip-rule="evenodd" d="M35.743 15.404c1.266-1.616 2.227-3.902 1.88-6.236-2.068.14-4.489 1.45-5.902 3.158-1.282 1.55-2.341 3.85-1.928 6.083 2.258.07 4.593-1.272 5.95-3.005z"/><path d="M61.249 24.01c2.244 0 3.789-1.158 4.218-3.13H63.91c-.353 1.11-1.316 1.758-2.653 1.758-1.836 0-3-1.468-3-3.791 0-2.303 1.178-3.785 2.993-3.785 1.295 0 2.334.765 2.66 1.944h1.559c-.333-1.985-2.016-3.316-4.22-3.316-2.79 0-4.578 2.006-4.578 5.157 0 3.17 1.773 5.163 4.579 5.163zM69.79 19.977l3.228-3.405h-1.787l-2.854 3.102h-.055v-3.102h-1.49v7.252h1.49V20.48h.055l2.889 3.343h1.877l-3.353-3.846zM76.454 22.769c-.803 0-1.33-.414-1.33-1.048 0-.62.506-1.013 1.4-1.075l1.794-.11v.571c0 .945-.818 1.662-1.864 1.662zm-.415 1.179c.956 0 1.877-.51 2.3-1.317h.034v1.192h1.434v-4.997c0-1.455-1.13-2.385-2.896-2.385-1.8 0-2.923.965-3.006 2.274h1.413c.132-.648.672-1.061 1.538-1.061.915 0 1.462.482 1.462 1.289v.558l-1.995.117c-1.732.097-2.709.876-2.709 2.144 0 1.303.998 2.186 2.425 2.186zM87.261 23.823v-7.251h-1.483v2.854c-.304.358-.852.661-1.662.661-.921 0-1.413-.565-1.413-1.468v-2.047h-1.49v2.157c0 1.586.95 2.627 2.667 2.627.804 0 1.407-.249 1.801-.62h.097v3.087h1.483zM90.35 23.823l3.367-5.094h.056v5.095h1.475v-7.252h-1.475l-3.367 5.08h-.055v-5.08h-1.476v7.252h1.476zM99.862 17.654c.727 0 1.122.338 1.122.938 0 .64-.423.964-1.268.964h-1.385v-1.902h1.53zm-.049 2.943c.984 0 1.469.359 1.469 1.076 0 .696-.457 1.068-1.302 1.068h-1.65v-2.144h1.483zm-2.958 3.226h3.353c1.58 0 2.563-.813 2.563-2.088 0-.91-.623-1.572-1.565-1.696v-.055c.699-.131 1.24-.814 1.24-1.565 0-1.144-.859-1.847-2.279-1.847h-3.312v7.252zM106.658 22.769c-.804 0-1.331-.414-1.331-1.048 0-.62.506-1.013 1.4-1.075l1.794-.11v.571c0 .945-.818 1.662-1.863 1.662zm-.416 1.179c.956 0 1.877-.51 2.3-1.317h.034v1.192h1.434v-4.997c0-1.455-1.129-2.385-2.895-2.385-1.801 0-2.924.965-3.007 2.274h1.413c.132-.648.672-1.061 1.538-1.061.915 0 1.462.482 1.462 1.289v.558l-1.995.117c-1.732.097-2.709.876-2.709 2.144 0 1.303.998 2.186 2.425 2.186zM113.058 23.823l3.367-5.094h.055v5.095h1.476v-7.252h-1.476l-3.366 5.08h-.056v-5.08h-1.475v7.252h1.475zm-.485-10.436c0 1.303.929 2.185 2.3 2.185 1.379 0 2.307-.882 2.307-2.185h-1.011c-.007.779-.506 1.372-1.296 1.372-.782 0-1.281-.593-1.288-1.372h-1.012zM125.105 16.572h-6.062v1.178h2.287v6.073h1.489V17.75h2.286v-1.178zM129.116 17.64c1.046 0 1.752.78 1.787 1.889h-3.644c.077-1.096.811-1.889 1.857-1.889zm1.78 4.053c-.201.634-.831 1.062-1.683 1.062-1.199 0-1.961-.834-1.961-2.096v-.09h5.147v-.51c0-2.198-1.26-3.618-3.283-3.618-2.057 0-3.374 1.516-3.374 3.791 0 2.289 1.296 3.73 3.436 3.73 1.67 0 2.93-.945 3.138-2.268h-1.42zM139.569 17.654c.728 0 1.123.338 1.123.938 0 .64-.423.964-1.268.964h-1.386v-1.902h1.531zm-.048 2.943c.983 0 1.468.359 1.468 1.076 0 .696-.457 1.068-1.302 1.068h-1.649v-2.144h1.483zm-2.958 3.226h3.353c1.579 0 2.563-.813 2.563-2.088 0-.91-.624-1.572-1.566-1.696v-.055c.7-.131 1.24-.814 1.24-1.565 0-1.144-.859-1.847-2.279-1.847h-3.311v7.252zM68.173 47.199h2.987L64.593 29.24h-3.05l-6.568 17.959h2.937l1.664-4.854h6.933l1.664 4.854zm-5.168-14.972h.075l2.71 7.878h-5.495l2.71-7.878zM79.718 33.894c-1.916 0-3.441.959-4.223 2.465h-.05v-2.253h-2.634v17.423h2.722v-6.484h.063c.757 1.457 2.27 2.377 4.173 2.377 3.327 0 5.533-2.625 5.533-6.77 0-4.144-2.218-6.758-5.584-6.758zM79 45.144c-2.093 0-3.48-1.766-3.48-4.492 0-2.7 1.4-4.492 3.48-4.492 2.155 0 3.504 1.754 3.504 4.492 0 2.75-1.349 4.493-3.504 4.493zM94.289 33.894c-1.916 0-3.442.959-4.223 2.465h-.05v-2.253H87.38v17.423h2.723v-6.484h.063c.756 1.457 2.269 2.377 4.172 2.377 3.328 0 5.534-2.625 5.534-6.77 0-4.144-2.219-6.758-5.584-6.758zm-.719 11.25c-2.092 0-3.479-1.766-3.479-4.492 0-2.7 1.4-4.492 3.48-4.492 2.155 0 3.503 1.754 3.503 4.492 0 2.75-1.348 4.493-3.504 4.493zM106.691 42.195c.176 3.249 2.899 5.302 6.932 5.302 4.311 0 7.021-2.103 7.021-5.463 0-2.626-1.55-4.107-5.281-4.978l-2.004-.486c-2.345-.572-3.303-1.32-3.303-2.589 0-1.593 1.5-2.688 3.693-2.688 2.194 0 3.694 1.083 3.858 2.875h2.747c-.088-3.099-2.722-5.227-6.567-5.227-3.882 0-6.617 2.128-6.617 5.227 0 2.502 1.55 4.045 4.89 4.841l2.357.56c2.358.573 3.353 1.407 3.353 2.8 0 1.606-1.651 2.776-3.945 2.776-2.395 0-4.147-1.17-4.349-2.95h-2.785zM123.618 31.007v3.099h-1.928v2.128h1.928v7.517c0 2.526 1.047 3.535 3.731 3.535.605 0 1.21-.05 1.513-.125v-2.128c-.177.037-.618.062-.895.062-1.109 0-1.613-.51-1.613-1.643v-7.218h2.521v-2.128h-2.521v-3.099h-2.736zM136.462 47.447c3.794 0 6.29-2.576 6.29-6.795 0-4.206-2.508-6.782-6.29-6.782-3.781 0-6.29 2.576-6.29 6.782 0 4.22 2.496 6.795 6.29 6.795zm0-2.215c-2.13 0-3.517-1.668-3.517-4.58 0-2.9 1.387-4.567 3.517-4.567s3.517 1.668 3.517 4.567c0 2.912-1.374 4.58-3.517 4.58zM144.831 47.199h2.723v-7.841c0-1.854 1.084-3.012 2.836-3.012.529 0 1.008.062 1.222.15v-2.502a5.002 5.002 0 0 0-.932-.1c-1.563 0-2.748.91-3.189 2.44h-.063v-2.228h-2.597v13.093zM158.242 36.035c1.903 0 3.189 1.406 3.252 3.41h-6.63c.139-1.979 1.475-3.41 3.378-3.41zm3.239 7.318c-.365 1.145-1.512 1.916-3.063 1.916-2.18 0-3.567-1.505-3.567-3.783v-.162h9.366v-.92c0-3.97-2.294-6.535-5.975-6.535-3.744 0-6.138 2.738-6.138 6.845 0 4.132 2.357 6.733 6.251 6.733 3.038 0 5.332-1.705 5.71-4.094h-2.584z"/><path d="M168.897 2.47c3.236 0 5.433.615 6.716 1.875 1.282 1.261 1.904 3.429 1.904 6.624v38.12c0 3.187-.62 5.342-1.897 6.587-1.277 1.246-3.476 1.853-6.723 1.853H10.983c-3.226 0-5.4-.6-6.647-1.837-1.247-1.235-1.853-3.391-1.853-6.593V10.97c0-3.665.402-5.682 1.344-6.75 1.055-1.193 3.332-1.75 7.166-1.75h157.904v.002zm0-2.47H10.993C1.57 0 0 3.247 0 10.97V49.1C0 56.815 3.228 60 10.983 60h157.916C176.659 60 180 56.811 180 49.089v-38.12C180 3.247 176.657 0 168.897 0z"/></g><defs><clipPath id="a"><path fill="#fff" d="M0 0h180v60H0z"/></clipPath></defs></svg>