<svg width="65" height="23" viewBox="0 0 65 23" fill="none" xmlns="http://www.w3.org/2000/svg"><path d="M4.962 18V5.4h5.418c1.368 0 2.442.276 3.222.828.78.552 1.17 1.356 1.17 2.412 0 1.032-.372 1.824-1.116 2.376-.744.54-1.722.81-2.934.81l.324-.54c1.404 0 2.478.282 3.222.846.756.552 1.134 1.362 1.134 2.43 0 1.08-.396 1.926-1.188 2.538-.78.6-1.944.9-3.492.9h-5.76zm1.782-1.422h3.942c.96 0 1.68-.174 2.16-.522.492-.36.738-.906.738-1.638 0-.732-.246-1.266-.738-1.602-.48-.336-1.2-.504-2.16-.504H6.744v4.266zm0-5.634h3.51c.876 0 1.542-.174 1.998-.522.468-.348.702-.858.702-1.53 0-.684-.234-1.2-.702-1.548-.456-.348-1.122-.522-1.998-.522h-3.51v4.122zm15.463 7.164c-.96 0-1.812-.21-2.556-.63a4.69 4.69 0 0 1-1.764-1.728c-.432-.744-.648-1.584-.648-2.52 0-.948.216-1.788.648-2.52A4.557 4.557 0 0 1 19.651 9c.744-.42 1.596-.63 2.556-.63.948 0 1.794.21 2.538.63a4.4 4.4 0 0 1 1.764 1.71c.432.72.648 1.56.648 2.52 0 .948-.216 1.788-.648 2.52a4.524 4.524 0 0 1-1.764 1.728c-.744.42-1.59.63-2.538.63zm0-1.512c.612 0 1.158-.138 1.638-.414a2.922 2.922 0 0 0 1.152-1.17c.276-.516.414-1.11.414-1.782 0-.684-.138-1.272-.414-1.764a2.922 2.922 0 0 0-1.152-1.17c-.48-.276-1.026-.414-1.638-.414-.612 0-1.158.138-1.638.414-.48.276-.864.666-1.152 1.17-.288.492-.432 1.08-.432 1.764 0 .672.144 1.266.432 1.782.288.504.672.894 1.152 1.17.48.276 1.026.414 1.638.414zM29.652 18V8.46h1.729v6.948l5.85-6.948h1.566V18h-1.728v-6.948L31.236 18h-1.584zm4.465-10.782c-.877 0-1.566-.21-2.07-.63-.492-.432-.744-1.05-.756-1.854h1.17c.011.456.162.816.45 1.08.3.264.695.396 1.188.396.492 0 .888-.132 1.188-.396.3-.264.456-.624.468-1.08h1.206c-.012.804-.27 1.422-.774 1.854-.505.42-1.194.63-2.07.63zM44.04 18V9.522l.432.45h-3.924V8.46h8.712v1.512h-3.906l.414-.45V18H44.04zm6.987 0V8.46h1.727v6.948l5.85-6.948h1.567V18h-1.728v-6.948L52.61 18h-1.583z" fill="#007895" filter="url(#a)"/><defs><filter id="a" x=".962" y=".734" width="63.21" height="21.374" filterUnits="userSpaceOnUse" color-interpolation-filters="sRGB"><feFlood flood-opacity="0" result="BackgroundImageFix"/><feColorMatrix in="SourceAlpha" values="0 0 0 0 0 0 0 0 0 0 0 0 0 0 0 0 0 0 127 0" result="hardAlpha"/><feOffset/><feGaussianBlur stdDeviation="2"/><feComposite in2="hardAlpha" operator="out"/><feColorMatrix values="0 0 0 0 0 0 0 0 0 0.470588 0 0 0 0 0.584314 0 0 0 0.4 0"/><feBlend in2="BackgroundImageFix" result="effect1_dropShadow_492_721"/><feBlend in="SourceGraphic" in2="effect1_dropShadow_492_721" result="shape"/></filter></defs></svg>