<svg width="200" height="200" viewBox="0 0 200 200" fill="none" xmlns="http://www.w3.org/2000/svg"><path fill="#fff" d="M0 0h200v200H0z"/><path d="M33.139 113.796V86.061c0-.373.215-.674.645-.903.459-.258.96-.387 1.505-.387.602 0 1.003.172 1.204.516l10.148 15.007 10.191-15.007c.2-.344.559-.516 1.075-.516a3.18 3.18 0 0 1 1.505.387c.487.258.731.559.731.903v27.735c0 .373-.158.674-.473.903-.315.201-.688.301-1.118.301-1.06 0-1.591-.401-1.591-1.204V90.705l-7.826 11.352c-.688 1.003-1.534 1.505-2.537 1.505-.917 0-1.734-.502-2.451-1.505l-7.826-11.352v23.091c0 .373-.158.674-.473.903-.315.201-.688.301-1.118.301-1.06 0-1.591-.401-1.591-1.204zm32.483-7.568v-11.61c0-.373.143-.66.43-.86.315-.23.673-.344 1.075-.344 1.06 0 1.59.401 1.59 1.204v11.223c0 1.061.287 2.007.86 2.838a5.666 5.666 0 0 0 2.15 1.892c.89.43 1.75.76 2.58.989.86.201 1.65.301 2.366.301 2.035 0 3.956-.631 5.762-1.892 1.806-1.261 3.081-2.938 3.827-5.031v-10.32c0-.774.544-1.161 1.634-1.161.43 0 .788.1 1.075.301.315.2.473.487.473.86v20.597c0 1.691-.387 3.239-1.161 4.644-.746 1.433-1.72 2.58-2.924 3.44a14.374 14.374 0 0 1-3.913 1.978 13.37 13.37 0 0 1-4.171.688c-2.35 0-4.659-.545-6.923-1.634-2.236-1.089-3.368-2.551-3.397-4.386 0-.459.143-.817.43-1.075a1.852 1.852 0 0 1 1.118-.344c.459 0 .86.129 1.204.387s.516.588.516.989c0 .917.817 1.62 2.45 2.107 1.635.516 3.24.774 4.817.774 1.29 0 2.566-.244 3.827-.731 1.29-.459 2.437-1.276 3.44-2.451 1.003-1.147 1.505-2.508 1.505-4.085v-4.988c-2.609 2.981-5.934 4.472-9.976 4.472-2.81 0-5.29-.803-7.44-2.408-2.15-1.634-3.224-3.755-3.224-6.364z" fill="#238F9B"/><path d="M95.162 113.796V86.061c0-.774.544-1.161 1.633-1.161.43 0 .789.1 1.076.301.315.2.473.487.473.86v10.492h18.231V86.061c0-.774.545-1.161 1.634-1.161.43 0 .789.1 1.075.301a.96.96 0 0 1 .473.86v27.735c0 .373-.157.674-.473.903-.315.201-.688.301-1.118.301-1.06 0-1.591-.401-1.591-1.204V99.735H98.344v14.061c0 .373-.158.674-.473.903-.316.201-.688.301-1.118.301-1.061 0-1.591-.401-1.591-1.204zm29.359-9.46c0-2.465.645-4.587 1.935-6.364 1.318-1.806 2.895-3.11 4.73-3.913a14.626 14.626 0 0 1 5.848-1.204c2.866 0 5.504 1.09 7.912 3.268 2.436 2.15 3.655 4.873 3.655 8.17 0 3.125-1.075 5.805-3.225 8.041-2.15 2.207-4.96 3.311-8.428 3.311-3.412 0-6.336-1.104-8.772-3.311-2.437-2.236-3.655-4.902-3.655-7.998zm3.182.043c0 2.035.931 3.899 2.795 5.59 1.863 1.663 4.027 2.494 6.493 2.494 2.322 0 4.3-.846 5.934-2.537 1.662-1.691 2.494-3.569 2.494-5.633 0-2.007-.789-3.884-2.365-5.633-1.577-1.749-3.612-2.623-6.106-2.623-2.924 0-5.203.889-6.837 2.666-1.606 1.777-2.408 3.669-2.408 5.676zm23.472-9.288c0-.43.1-.803.301-1.118.229-.315.53-.473.903-.473h1.462v-5.289c0-.373.143-.66.43-.86.315-.2.688-.301 1.118-.301 1.089 0 1.634.387 1.634 1.161V93.5h6.88c.372 0 .659.158.86.473.2.287.301.645.301 1.075 0 1.09-.387 1.634-1.161 1.634h-6.88v10.277c0 3.211 1.218 4.816 3.655 4.816 1.032 0 1.92-.287 2.666-.86.774-.573 1.161-1.577 1.161-3.01 0-.401.157-.731.473-.989a1.95 1.95 0 0 1 1.204-.387c.43 0 .788.129 1.075.387.286.229.43.573.43 1.032-.029 2.265-.717 3.999-2.064 5.203-1.319 1.204-2.967 1.806-4.945 1.806-4.558 0-6.837-3.053-6.837-9.159v-9.116h-1.462c-.803 0-1.204-.53-1.204-1.591z" fill="#094451"/></svg>