<svg id="layer" xmlns="http://www.w3.org/2000/svg" viewBox="0 0 652 652"><style>.st0{fill:#009c9c}.st1{fill:#40e3e3}.st2{fill:#1abab8}.st3{fill:#87f0f0}.st4{fill:#17cfcf}.st5{fill:#424a52}</style><path class="st0" d="M171 307.9l-40.5-40.5c-1.4-1.3-3.5-1.3-4.8 0l-8 8 32.5 32.5c1.3 1.3 1.3 3.5 0 4.8l-33.5 33.5 8 8c1.4 1.3 3.5 1.3 4.8 0l41.4-41.4c1.4-1.4 1.4-3.5.1-4.9"/><path class="st1" d="M102 270.4l-2.9-2.9c-1.4-1.3-3.5-1.3-4.8 0l-8 8 5.3 5.3 10.4 10.4 10.4-10.4-10.4-10.4zM101.1 330.6L90.7 341l-5.3 5.3 8 8c1.4 1.3 3.5 1.3 4.8 0l2.9-2.9 10.4-10.4-10.4-10.4z"/><path class="st2" d="M118.9 307.9c1.3 1.4 1.3 3.5 0 4.8l-17.8 17.8 10.4 10.4 28.2-28.2c1.3-1.3 1.3-3.5 0-4.8l-27.2-27.2-10.5 10.4 16.9 16.8z"/><path class="st3" d="M52.8 308.9L81 280.7l-10.4-10.4-3-2.9c-1.4-1.3-3.5-1.3-4.8 0l-41.4 41.5c-1.3 1.3-1.3 3.5 0 4.8l40.5 40.5c1.4 1.3 3.5 1.3 4.8 0l3-2.9 10.4-10.4-27.2-27.2c-1.4-1.3-1.4-3.4-.1-4.8"/><path class="st1" d="M84.2 308.9l12.4-12.4-10.4-10.4-5.3-5.3-28 28.2c-1.3 1.3-1.3 3.5 0 4.8L80 340.9l5.3-5.3 10.4-10.4-11.5-11.5c-1.3-1.2-1.3-3.4 0-4.8"/><path class="st4" d="M84.2 313.7l11.5 11.5 12.4-12.4c1.3-1.3 1.3-3.5 0-4.8l-11.5-11.5-12.4 12.4c-1.2 1.4-1.2 3.5 0 4.8"/><path class="st5" d="M203.5 299.4c.1-4.6 1-9.1 2.7-13.4 1.6-3.9 4-7.5 7-10.4 3.3-3 7.2-5.3 11.4-6.7 5.1-1.7 10.5-2.5 15.8-2.4 6-.2 12 .7 17.6 2.7 4 1.5 7.8 3.7 11 6.6 2.5 2.2 4.4 4.9 5.7 7.9 1 2.2 1.6 4.5 1.9 6.9.1.9-.2 1.8-.9 2.4-.7.6-1.5.9-2.4.9h-9.9c-.8 0-1.5-.2-2.1-.7-.5-.4-.9-.9-1.1-1.4-.2-.3-.6-1-1.3-2.1-.9-1.3-2-2.5-3.3-3.4-1.8-1.3-3.8-2.4-5.9-3.2-2.9-1-6.1-1.5-9.2-1.4-5.3-.3-10.6 1.5-14.7 4.9-3.7 3.4-5.8 8.2-5.9 13.3-.2 3.1-.2 6.4-.2 10 0 3.5 0 6.9.2 10 .2 6.8 2.2 11.7 5.9 14.7 4.2 3.2 9.4 4.8 14.6 4.6 2.8 0 5.6-.3 8.3-1 2.4-.6 4.6-1.7 6.5-3.2 1.9-1.5 3.4-3.5 4.3-5.8 1.1-2.8 1.6-5.8 1.5-8.8v-1h-14.9c-.9 0-1.7-.3-2.3-1-.6-.6-1-1.4-1-2.3v-8.7c0-1.8 1.5-3.3 3.3-3.3h28.2c1.8 0 3.3 1.5 3.3 3.3v13.4c.1 4.6-.7 9.2-2.3 13.5-1.5 4-3.9 7.6-7 10.6-3.3 3.1-7.3 5.5-11.6 7-10.5 3.3-21.8 3.3-32.4 0-4.2-1.4-8.1-3.7-11.3-6.7-3-3-5.4-6.6-6.9-10.6-1.6-4.3-2.5-8.9-2.6-13.5 0-1.5-.1-3.3-.2-5.1v-5.8-5.7c0-1.9.1-3.5.2-5.1M315.3 303.2c-2.1-.1-4.1.3-6.1 1-1.6.6-3 1.5-4.2 2.7-1.1 1-2 2.3-2.6 3.7-.6 1.2-1 2.5-1.1 3.8h27.6c-.2-1.3-.5-2.6-.9-3.8-.5-1.4-1.2-2.6-2.2-3.7-1.1-1.2-2.5-2.1-4-2.7-2.1-.8-4.3-1.1-6.5-1m-29.9 18.3c0-4.4.7-8.7 2.1-12.9 1.3-3.9 3.3-7.5 6-10.6 2.6-3 5.9-5.4 9.5-7 3.9-1.7 8.1-2.6 12.3-2.6 4.2-.1 8.4.8 12.3 2.5 3.6 1.6 6.9 3.9 9.6 6.8 2.6 2.9 4.7 6.2 6.1 9.9 1.4 3.8 2.2 7.8 2.1 11.9v5.5c0 1.8-1.5 3.3-3.3 3.3h-40.8c0 1.7.4 3.4 1.1 4.9.8 1.4 1.8 2.6 3.1 3.5 1.4 1 2.9 1.7 4.5 2.2 1.7.5 3.5.7 5.3.7 2.1.1 4.3-.2 6.4-.8 1.4-.4 2.8-1.1 4-2 .7-.5 1.4-1 2.2-1.4.7-.3 1.5-.4 2.3-.4h9.8c.9 0 1.8.4 2.4 1 .7.6 1 1.4.9 2.3-.3 1.6-.9 3.1-1.9 4.4-1.4 2.1-3.2 3.9-5.3 5.3-2.7 1.9-5.7 3.4-8.8 4.4-3.9 1.3-8 1.9-12 1.8-4.2 0-8.4-.8-12.3-2.4-3.6-1.5-6.9-3.8-9.5-6.7-2.7-3.1-4.7-6.6-6-10.5-1.5-4.1-2.2-8.6-2.1-13.1M374.7 330.3c-.1 2.2.6 4.4 2 6 1.3 1.5 3.8 2.3 7.5 2.3h7.4c1.8 0 3.3 1.5 3.3 3.3v8.1c0 1.8-1.5 3.3-3.3 3.3h-9.1c-7.7 0-13.5-1.9-17.6-5.6-4.1-3.7-6.1-9.4-6.2-17v-26.3h-8.1c-.9 0-1.7-.3-2.3-1-.6-.6-1-1.4-1-2.3V293c0-.9.3-1.7 1-2.3.6-.6 1.4-1 2.3-1h8.1v-19.9c0-1.8 1.5-3.3 3.3-3.3h9.3c1.8 0 3.3 1.5 3.3 3.3v19.9h15.8c1.8.1 3.1 1.5 3.2 3.3v8.1c0 1.8-1.5 3.3-3.3 3.3h-15.8l.2 25.9zM455 321.4l-13.5-34.8-13.4 34.8H455zm-6.8-53.7c1.1-.1 2.1.3 2.9 1 .8.9 1.4 2 1.8 3.1l29.9 77.3c.1.3.1.6.1.8 0 1.8-1.5 3.3-3.3 3.3h-8.8c-1.2.1-2.5-.2-3.4-1-.6-.6-1-1.3-1.3-2l-5.3-13.6h-38.6l-5.3 13.6c-.3.8-.8 1.4-1.3 2-1 .8-2.2 1.2-3.4 1h-8.8c-1.8 0-3.3-1.5-3.3-3.3 0-.3 0-.6.1-.8l29.9-77.3c.4-1.1 1-2.2 1.8-3.1.8-.7 1.9-1.1 2.9-1h13.4zM535.3 324.9c.2-2.3.2-4.6 0-6.8-.5-5.3-2.1-9.1-4.9-11.4-2.8-2.4-6.4-3.6-10.1-3.5-3.7-.1-7.3 1.1-10.1 3.5-2.9 2.6-4.5 6.3-4.7 10.1-.2 1.5-.3 3.1-.2 4.6 0 1.6.1 3.1.2 4.6.2 3.8 1.9 7.4 4.7 10 2.8 2.5 6.4 3.8 10.1 3.7 3.7.1 7.3-1.2 10.1-3.5s4.4-6.1 4.9-11.3M524 354.5c-2.3 0-4.6-.2-6.8-.7-1.8-.4-3.6-1-5.3-1.8-1.3-.7-2.6-1.5-3.8-2.5-.9-.7-1.8-1.5-2.6-2.4v26c0 1.8-1.5 3.3-3.3 3.3H493c-1.8 0-3.3-1.5-3.3-3.3V293c0-1.8 1.5-3.3 3.3-3.3h9.3c1.8 0 3.3 1.5 3.3 3.3v2.8c.8-.9 1.6-1.7 2.6-2.4 1.2-.9 2.5-1.7 3.9-2.4 1.7-.8 3.5-1.4 5.3-1.8 2.2-.5 4.5-.7 6.8-.7 3.8-.1 7.6.8 11.1 2.4 3.2 1.5 6.1 3.7 8.4 6.4 2.4 2.7 4.2 5.8 5.5 9.2 1.3 3.5 2.1 7.1 2.3 10.8.1 1.2.1 2.6.1 4.3s0 3.1-.1 4.3c-.2 3.7-.9 7.4-2.3 10.8-1.3 3.4-3.1 6.5-5.5 9.2-2.3 2.7-5.2 4.8-8.4 6.4-3.7 1.5-7.5 2.3-11.3 2.2M604.4 324.9c.2-2.3.2-4.6 0-6.8-.5-5.3-2.1-9.1-4.9-11.4-2.8-2.4-6.4-3.6-10.1-3.5-3.7-.1-7.3 1.1-10.1 3.5-2.9 2.6-4.5 6.3-4.7 10.1-.2 1.5-.3 3.1-.2 4.6 0 1.6.1 3.1.2 4.6.2 3.8 1.9 7.4 4.7 10 2.8 2.5 6.4 3.8 10.1 3.7 3.7.1 7.3-1.2 10.1-3.5s4.4-6.1 4.9-11.3M593 354.4c-2.3 0-4.6-.2-6.8-.7-1.8-.4-3.6-1-5.3-1.8-1.4-.7-2.7-1.5-3.8-2.4-.9-.7-1.8-1.5-2.6-2.4v26c0 .9-.4 1.7-1 2.3-.6.6-1.4 1-2.3 1h-9.3c-1.8 0-3.3-1.5-3.3-3.3V293c0-1.8 1.5-3.3 3.3-3.3h9.3c1.8 0 3.3 1.5 3.3 3.3v2.8c.8-.9 1.7-1.7 2.6-2.4 1.2-.9 2.5-1.7 3.8-2.4 1.7-.8 3.5-1.4 5.3-1.8 2.2-.5 4.5-.7 6.8-.7 3.8-.1 7.6.8 11.1 2.4 3.2 1.5 6.1 3.7 8.4 6.4 2.4 2.7 4.2 5.8 5.5 9.2 1.3 3.5 2.1 7.1 2.3 10.8.1 1.2.1 2.6.1 4.3s0 3.1-.1 4.3c-.2 3.7-.9 7.4-2.3 10.8-1.3 3.4-3.1 6.5-5.5 9.2-2.4 2.7-5.2 4.8-8.4 6.4-3.5 1.6-7.3 2.4-11.1 2.4"/></svg>