<svg width="180" height="60" viewBox="0 0 180 60" fill="none" xmlns="http://www.w3.org/2000/svg"><g clip-path="url(#a)" fill="#000"><path d="M168.897 2.47c3.236 0 5.433.615 6.716 1.875 1.282 1.261 1.904 3.429 1.904 6.624v38.12c0 3.187-.62 5.342-1.897 6.587-1.277 1.246-3.476 1.853-6.723 1.853H10.981c-3.226 0-5.4-.6-6.647-1.837-1.247-1.235-1.853-3.391-1.853-6.593V10.97c0-3.665.403-5.682 1.344-6.75 1.055-1.193 3.332-1.75 7.166-1.75h157.906v.002zm0-2.47H10.993C1.57 0 0 3.247 0 10.97V49.1C0 56.815 3.228 60 10.983 60h157.916C176.659 60 180 56.811 180 49.089v-38.12C180 3.247 176.657 0 168.897 0z"/><path d="M90.635 34.335c-3.233 0-5.793 2.412-5.793 5.764 0 3.217 2.56 5.764 5.793 5.764s5.793-2.412 5.793-5.764c0-3.485-2.56-5.764-5.793-5.764zm0 9.114c-1.75 0-3.233-1.474-3.233-3.485s1.48-3.485 3.233-3.485c1.75 0 3.233 1.341 3.233 3.485 0 2.011-1.481 3.485-3.233 3.485zM78.11 34.335c-3.234 0-5.793 2.412-5.793 5.764 0 3.217 2.56 5.764 5.793 5.764S83.9 43.451 83.9 40.1c-.001-3.485-2.56-5.764-5.792-5.764zm0 9.114c-1.75 0-3.234-1.474-3.234-3.485s1.481-3.485 3.234-3.485c1.752 0 3.233 1.341 3.233 3.485 0 2.011-1.483 3.485-3.233 3.485zm-14.953-7.37v2.411h5.793c-.135 1.341-.674 2.412-1.347 3.083-.808.803-2.155 1.742-4.446 1.742-3.636 0-6.33-2.815-6.33-6.433s2.828-6.433 6.33-6.433c1.886 0 3.367.803 4.446 1.741l1.75-1.741c-1.481-1.341-3.367-2.412-6.062-2.412-4.85 0-9.024 4.02-9.024 8.846 0 4.826 4.176 8.847 9.024 8.847 2.693 0 4.58-.803 6.196-2.547 1.616-1.608 2.154-3.888 2.154-5.63 0-.535 0-1.072-.135-1.473l-8.349-.002zm61.153 1.876c-.538-1.341-1.886-3.619-4.85-3.619-2.964 0-5.388 2.28-5.388 5.765 0 3.217 2.424 5.764 5.658 5.764 2.559 0 4.176-1.609 4.714-2.547l-1.886-1.34c-.674.937-1.481 1.608-2.828 1.608-1.348 0-2.155-.536-2.829-1.742l7.678-3.217-.269-.672zm-7.812 1.876c0-2.144 1.75-3.35 2.964-3.35.943 0 1.886.535 2.155 1.206l-5.119 2.144zm-6.331 5.495h2.56V28.57h-2.56v16.756zm-4.04-9.785c-.674-.67-1.751-1.341-3.098-1.341-2.829 0-5.522 2.547-5.522 5.764 0 3.218 2.559 5.63 5.522 5.63 1.347 0 2.424-.67 2.964-1.341h.135v.803c0 2.145-1.212 3.35-3.097 3.35-1.482 0-2.56-1.072-2.829-2.01l-2.155.938c.674 1.474 2.29 3.35 5.119 3.35 2.964 0 5.388-1.742 5.388-5.897V34.599h-2.424v.942h-.003zm-2.965 7.908c-1.75 0-3.233-1.474-3.233-3.485s1.481-3.485 3.233-3.485 3.098 1.474 3.098 3.485-1.346 3.485-3.098 3.485zm32.867-14.877h-6.062v16.756h2.56v-6.3h3.502c2.829 0 5.522-2.011 5.522-5.227s-2.693-5.229-5.522-5.229zm.136 8.042h-3.636V30.85h3.636c1.885 0 2.964 1.608 2.964 2.814-.136 1.476-1.214 2.95-2.964 2.95zm15.488-2.412c-1.885 0-3.771.803-4.445 2.547l2.29.938c.539-.938 1.348-1.206 2.291-1.206 1.347 0 2.559.803 2.693 2.144v.135c-.405-.268-1.481-.67-2.56-.67-2.424 0-4.849 1.34-4.849 3.752 0 2.28 2.021 3.753 4.176 3.753 1.75 0 2.559-.803 3.233-1.608h.135v1.34h2.424v-6.432c-.269-2.952-2.559-4.693-5.388-4.693zm-.269 9.247c-.807 0-2.021-.402-2.021-1.474 0-1.34 1.481-1.741 2.693-1.741 1.079 0 1.617.268 2.29.535-.267 1.609-1.614 2.68-2.962 2.68zm14.143-8.846l-2.828 7.238h-.134l-2.964-7.238h-2.693l4.445 10.187-2.56 5.63h2.56l6.869-15.817h-2.695zm-22.629 10.723h2.56V28.57h-2.56v16.756zM61.429 21.087c-.698.793-1.515 1.178-2.5 1.178-.883 0-1.637-.299-2.24-.89-.605-.589-.91-1.377-.91-2.34 0-.962.305-1.75.91-2.339.603-.59 1.357-.89 2.24-.89.956 0 1.69.334 2.243 1.018l.12.149 1.019-.983-.108-.123c-.835-.964-1.938-1.452-3.277-1.452-1.3 0-2.408.446-3.29 1.324-.882.878-1.33 1.989-1.33 3.299 0 1.311.448 2.42 1.33 3.298.882.878 1.99 1.324 3.29 1.324.716 0 1.388-.144 2-.427a4.372 4.372 0 0 0 1.53-1.16l.101-.12-1.009-1.004-.12.138zM73.443 14.654l-3.202 8.423-3.22-4.577 3.165-3.611v-.235h-1.739l-3.645 4.1v-4.1h-1.389v8.812h1.39v-2.57l1.168-1.295 2.752 3.865H71.674l.836-2.246h3.355l.825 2.246h1.592l-3.36-8.812h-1.48zm1.917 5.183h-2.351l1.175-3.229 1.176 3.23zM83.21 18.048c-.347.508-.965.756-1.7.756-.509 0-.915-.133-1.182-.395-.271-.267-.417-.636-.417-1.132v-2.623h-1.39v2.811c0 .826.263 1.493.817 1.986.549.487 1.23.734 2.044.734.752 0 1.364-.214 1.87-.64l-.04.275v3.646h1.563v-8.812h-1.563v3.394h-.002zM87.206 20.876l-.002-1.114v-5.108h-1.39v8.812h1.428l4.138-6.568-.009 1.09v5.478h1.39v-8.812h-1.598l-3.957 6.222zM99.084 18.875c.252-.159.464-.363.634-.612.231-.337.347-.73.347-1.168 0-.713-.267-1.29-.791-1.762-.521-.468-1.147-.68-1.857-.68H94.15v8.813h3.435c.743 0 1.394-.247 1.94-.734.55-.493.828-1.12.828-1.865a2.1 2.1 0 0 0-.443-1.318 2.332 2.332 0 0 0-.825-.674zm-.799-.96a1.123 1.123 0 0 1-.87.367H95.54v-2.246h1.925c.351 0 .622.094.834.327.215.238.32.49.32.774 0 .283-.108.536-.332.777zm.245 3.782c-.23.257-.524.387-.899.387h-2.092v-2.42h2.045c.39 0 .698.104.938.36.243.26.36.525.36.833 0 .308-.115.577-.352.84zM103.813 14.654l-3.36 8.812h1.592l.837-2.246h3.355l.824 2.246h1.593l-3.36-8.812h-1.481zm1.917 5.183h-2.351l1.175-3.229 1.176 3.23zM110.631 20.876l.014-1.114v-5.108h-1.389v8.812h1.396l4.154-6.567.006 1.09v5.477h1.39v-8.812h-1.629l-3.942 6.222zM112.673 14.307c.452 0 .813-.163 1.148-.482.337-.322.471-.723.471-1.19v-.227h-1.216v.226c0 .14-.01.26-.102.361a.384.384 0 0 1-.32.144.406.406 0 0 1-.331-.14c-.091-.099-.117-.218-.117-.367v-.224h-1.215v.226c0 .468.158.87.503 1.19.344.32.728.483 1.179.483zM116.896 16.036h2.431v7.43h1.563v-7.43h2.257v-1.382h-6.251v1.382zM124.016 23.466h5.383v-1.382h-3.821v-2.42h3.473v-1.382h-3.473v-2.246h3.821v-1.382h-5.383v8.812zM138.959 19.549a2.331 2.331 0 0 0-.825-.674c.252-.159.464-.363.634-.612.231-.337.347-.73.347-1.168 0-.713-.267-1.29-.793-1.762-.521-.468-1.146-.68-1.856-.68h-3.247v8.813h3.415c.743 0 1.394-.247 1.94-.734.55-.493.828-1.12.828-1.865 0-.495-.149-.94-.443-1.318zm-1.623-1.634a1.125 1.125 0 0 1-.87.367h-1.858v-2.246h1.906c.351 0 .622.094.834.327.215.24.319.49.319.774 0 .283-.107.536-.331.777zm.244 3.782c-.23.257-.524.387-.899.387h-2.073v-2.42h2.026c.391 0 .698.104.938.36.243.26.359.525.359.833-.002.308-.116.577-.351.84z"/><path fill-rule="evenodd" clip-rule="evenodd" d="M38.437 24.716L16.89 12.381 33.91 29.23l4.527-4.512zM14.891 12.507c-.081.148-.172.319-.172.51v34.907c0 .11.057.214.087.31L32.83 30.267l-17.938-17.76zM33.913 31.299l-17.67 17.615a.915.915 0 0 0 .152-.072l22.327-12.784-4.81-4.76zM46.88 29.552l-7.124-4.078-4.804 4.789 5.091 5.04 6.837-3.914a1.056 1.056 0 0 0 0-1.837z"/></g><defs><clipPath id="a"><path fill="#fff" d="M0 0h180v60H0z"/></clipPath></defs></svg>