<svg width="307" height="1299" viewBox="0 0 307 1299" fill="none" xmlns="http://www.w3.org/2000/svg"><mask id="a" style="mask-type:alpha" maskUnits="userSpaceOnUse" x="32" y="1282" width="73" height="66"><path d="M47.21 1342.35l-12.886-33.27c-.76-1.96.583-3.5 1.35-4.02l50.666-19.62c2.138-.83 3.432 1 3.812 2.02l12.885 33.28c.817 2.11-.67 3.48-1.516 3.91l-50.666 19.62c-2.226.86-3.358-.92-3.646-1.92zM77.574 1289.01l15.125 39.06" stroke="#F2DEBA" stroke-width="2.523"/><path d="M51.164 1299.49l-2.645-6.83c-.198-.55-.291-1.78.925-2.25s11.945-4.62 17.157-6.64c.514-.18 1.664-.22 2.155 1.05l2.645 6.83" stroke="#F2DEBA" stroke-width="2.523"/><path d="M54.565 1297.09l-.874-2.26c-.162-.49-.227-1.58.807-2.02 1.035-.44 7.107-2.77 10.013-3.88.437-.17 1.426-.21 1.887.98.462 1.19.775 2 .874 2.26" stroke="#F2DEBA" stroke-width="2.523"/></mask><path fill="#ECECEC" d="M22.934 1268.75h85.796v52.992H22.934z" mask="url(#a)"/><path d="M79.064 534.978l22.954 6.958c1.97.808 5.212 2.899 2.419 4.798l-9.262 4.325M69.81 543.36c-5.395-.641-7.479 3.246-7.847 5.27.681 5.113 2.655 17.142 5.107 24.354 2.452 7.212 5.635 4.319 6.92 1.971 1.708-4.691 5.549-14.497 6.08-16.559.683-2.648-3.515-14.236-10.26-15.036zM61.574 528.691c2.262 4.881 8.648 12.702 16.102 4.937" stroke="#ECECEC" stroke-width="2.203"/><path d="M61.932 548.673c-7.022-6.812-16.943-20.339-.447-19.948 2.624-1.784 9.537-3.312 16.2 4.844l26.607 26.811c3.07-1.204 6.954-2.758 10.13-3.117.711-.081 3.216-.479 1.752 2.394-4.436 7.414-18.166 18.463-37.602 3.352" stroke="#ECECEC" stroke-width="2.203"/><circle cx="6.061" cy="6.061" r="4.959" transform="scale(-1 1) rotate(7.407 -2288.47 -501.648)" stroke="#ECECEC" stroke-width="2.203"/><circle cx="6.061" cy="6.061" r="4.959" transform="scale(-1 1) rotate(7.407 -2305.455 -239.265)" stroke="#ECECEC" stroke-width="2.203"/><circle cx="1.798" cy="1.798" r="1.101" transform="scale(-1 1) rotate(7.407 -2323.533 -470.851)" stroke="#ECECEC" stroke-width="1.394"/><circle cx="1.798" cy="1.798" r="1.101" transform="scale(-1 1) rotate(7.407 -2340.518 -208.47)" stroke="#ECECEC" stroke-width="1.394"/><path d="M72.625 298.39l-21.894 2.846M39.01 303.029c-3.279.616-9.99 1.07-10.61-2.046-.62-3.117-2.29-16.929-3.047-23.446-.161-1.383.663-1.933 4.981-2.495 4.518-.588 38.826-5.025 55.412-7.203.77-.011 2.462.492 3.057 2.591.744 2.623 2.557 10.111 2.895 10.134.34.023 1.886.293 2.168.659.283.366 1.754 10.652 1.043 11.382-.71.731-3.619 3.157-4.87 3.353-1 .157-4.137.549-5.58.726" stroke="#ECECEC" stroke-width="2.203"/><mask id="b" fill="#fff"><rect width="15.918" height="11.921" rx="1.931" transform="scale(-1 1) rotate(7.407 -2139.862 -331.275)"/></mask><rect width="15.918" height="11.921" rx="1.931" transform="scale(-1 1) rotate(7.407 -2139.862 -331.275)" stroke="#ECECEC" stroke-width="4.405" mask="url(#b)"/><mask id="c" fill="#fff"><rect width="15.918" height="11.921" rx="1.931" transform="scale(-1 1) rotate(7.407 -2131 -468.204)"/></mask><rect width="15.918" height="11.921" rx="1.931" transform="scale(-1 1) rotate(7.407 -2131 -468.204)" stroke="#ECECEC" stroke-width="4.405" mask="url(#c)"/><mask id="d" fill="#fff"><rect width="15.918" height="11.921" rx="1.931" transform="scale(-1 1) rotate(7.407 -2148.669 -195.16)"/></mask><rect width="15.918" height="11.921" rx="1.931" transform="scale(-1 1) rotate(7.407 -2148.669 -195.16)" stroke="#ECECEC" stroke-width="4.405" mask="url(#d)"/><path d="M90.242 285.688c.092.711.328 1.28.578 1.627.125.173.218.249.272.283.043-.046.114-.144.19-.343.154-.399.236-1.01.144-1.721-.093-.711-.328-1.281-.579-1.627a1.06 1.06 0 0 0-.271-.283 1.051 1.051 0 0 0-.19.343c-.155.399-.237 1.01-.144 1.721zm.903 1.934h-.003.003zm-.095.012l-.002.001.002-.001zm-.527-4.035l.002.001-.002-.001zm.095-.011l.002-.001-.002.001zM81.617 271.484l2.47-.321c.989-.129 1.595.844 1.774 1.346.524 2.126 1.61 6.542 1.764 7.201.155.659-.377 1.121-.663 1.269-1.064.159-3.39.489-4.183.544-.792.054-1.16-.658-1.246-1.021l-.981-7.545c-.154-1.188.586-1.421 1.065-1.473zM231.327 382.846l14.434-27.602c.851-1.627 2.63-1.628 3.413-1.425l42.026 21.977c1.773.927 1.317 2.828.868 3.663l-14.434 27.602c-.915 1.749-2.675 1.566-3.441 1.256l-42.025-21.977c-1.846-.965-1.33-2.731-.841-3.494zM256.276 357.765l-16.864 32.248M283.818 372.09l-16.943 32.4M235.404 389.027c-.415.917-.656 3.176 1.704 4.874 2.36 1.698 4.807.051 5.735-.984M262.793 403.349c-.415.918-.656 3.176 1.705 4.875 2.36 1.698 4.806.051 5.734-.984" stroke="#ECECEC" stroke-width="2.203"/><path d="M261.743 360.784l2.964-5.667c.248-.447.996-1.211 2.005-.683l14.231 7.442c.412.235 1.099.967.549 2.019l-2.963 5.667" stroke="#ECECEC" stroke-width="2.203"/><path d="M265.275 361.636l.978-1.871c.229-.389.908-1.06 1.794-.635.885.425 5.905 3.072 8.305 4.343.362.189.958.815.441 1.803l-.978 1.872M271.154 99.432l-18.638 5.908c-1.598.679-4.219 2.417-1.923 3.936l7.595 3.43M278.783 106.168c4.391-.577 6.13 2.569 6.451 4.215-.502 4.175-1.987 14-3.911 19.904s-4.549 3.579-5.621 1.678c-1.44-3.806-4.672-11.759-5.127-13.435-.584-2.151 2.719-11.64 8.208-12.362zM285.345 94.126c-1.793 4.003-6.918 10.444-13.074 4.19" stroke="#ECECEC" stroke-width="2.203"/><path d="M285.259 110.418c5.654-5.625 13.601-16.754.16-16.265-2.158-1.427-7.809-2.6-13.156 4.116l-21.41 22.128c-2.515-.949-5.697-2.176-8.29-2.436-.58-.058-2.626-.357-1.403 1.97 3.692 5.997 14.998 14.862 30.684 2.344" stroke="#ECECEC" stroke-width="2.203"/><path d="M1.677 28.358L8.94 7.114c.428-1.253 1.695-1.448 2.275-1.389l32.347 11.06c1.365.467 1.248 1.871 1.02 2.515l-7.265 21.245c-.46 1.346-1.734 1.408-2.314 1.27L2.658 30.757c-1.42-.486-1.246-1.8-.981-2.398zM16.707 7.76L8.221 32.58M37.898 14.953L29.372 39.89M5.257 32.316c-.195.699-.12 2.335 1.748 3.286 1.867.952 3.43-.489 3.978-1.328M26.338 39.524c-.195.699-.12 2.335 1.748 3.286 1.867.952 3.43-.489 3.978-1.328" stroke="#ECECEC" stroke-width="1.588"/><path d="M20.933 9.312l1.492-4.361c.128-.346.577-.972 1.354-.707L34.731 7.99c.32.122.89.569.612 1.378l-1.49 4.361" stroke="#ECECEC" stroke-width="1.588"/><path d="M23.543 9.533l.492-1.44c.12-.302.531-.855 1.209-.649.677.206 4.543 1.543 6.392 2.186.279.095.772.476.512 1.236l-.493 1.44" stroke="#ECECEC" stroke-width="1.588"/><path d="M60.461 1006.4L78.1 990.147c1.696-1.287 5.142-3.021 5.362.349l-.97 10.174M62.992 1018.63c-3.288 4.32-.995 8.09.563 9.43 4.752 2.01 16.12 6.41 23.58 7.95 7.459 1.55 6.58-2.66 5.208-4.96-3.178-3.85-9.68-12.13-11.188-13.64-1.936-1.93-14.053-4.19-18.163 1.22zM46.173 1018.29c5.354.52 15.334-1.01 12.421-11.38" stroke="#ECECEC" stroke-width="2.203"/><path d="M63.577 1028.11c-9.433 2.6-26.122 4.29-17.42-9.73-.207-3.16 1.982-9.9 12.391-11.5l36.6-9.338c.52-3.257 1.15-7.393 2.451-10.312.291-.653 1.218-3.015 2.952-.296 4.14 7.583 6.7 25.016-16.18 34.106" stroke="#ECECEC" stroke-width="2.203"/><path d="M335.007 799.858l-12.329-25.364c-.727-1.495-2.337-1.543-3.051-1.38l-38.617 18.771c-1.629.792-1.268 2.525-.883 3.293l12.329 25.363c.781 1.607 2.379 1.488 3.08 1.228l38.617-18.771c1.697-.825 1.276-2.437.854-3.14zM287.789 788.728L302.26 818.5M305.986 817.577c.351.841.508 2.891-1.673 4.365-2.181 1.475-4.351-.081-5.164-1.043" stroke="#ECECEC" stroke-width="1.994"/><path d="M308.067 779.083l-2.531-5.207c-.212-.412-.869-1.123-1.796-.672l-13.077 6.356c-.38.202-1.021.847-.551 1.813l2.531 5.207" stroke="#ECECEC" stroke-width="1.994"/><path d="M304.849 779.76l-.836-1.72c-.197-.357-.794-.983-1.606-.622-.813.361-5.427 2.624-7.632 3.71-.333.162-.889.712-.447 1.62l.836 1.72" stroke="#ECECEC" stroke-width="1.994"/><circle cx="256.397" cy="1155.04" r="4.959" transform="rotate(28.369 256.397 1155.04)" stroke="#ECECEC" stroke-width="2.203"/><circle cx="286.284" cy="1171.18" r="4.959" transform="rotate(28.369 286.284 1171.18)" stroke="#ECECEC" stroke-width="2.203"/><circle cx="256.397" cy="1155.04" r="1.101" transform="rotate(28.369 256.397 1155.04)" stroke="#ECECEC" stroke-width="1.394"/><circle cx="286.284" cy="1171.18" r="1.101" transform="rotate(28.369 286.284 1171.18)" stroke="#ECECEC" stroke-width="1.394"/><path d="M261.642 1157.87l19.427 10.49M291.373 1174.23c2.841 1.75 8.945 4.57 10.639 1.88 1.694-2.68 8.195-14.99 11.234-20.8.645-1.23.072-2.04-3.759-4.11-4.009-2.17-34.459-18.58-49.168-26.55-.716-.29-2.475-.42-3.781 1.32-1.634 2.19-6.005 8.53-6.33 8.43-.325-.1-1.865-.4-2.26-.16-.395.24-5.449 9.32-5.046 10.26.403.93 2.25 4.24 3.348 4.87.878.5 3.667 1.99 4.952 2.67" stroke="#ECECEC" stroke-width="2.203"/><mask id="e" fill="#fff"><rect x="281.957" y="1138.56" width="15.918" height="11.921" rx="1.931" transform="rotate(28.369 281.957 1138.56)"/></mask><rect x="281.957" y="1138.56" width="15.918" height="11.921" rx="1.931" transform="rotate(28.369 281.957 1138.56)" stroke="#ECECEC" stroke-width="4.405" mask="url(#e)"/><mask id="f" fill="#fff"><rect x="266.359" y="1130.14" width="15.918" height="11.921" rx="1.931" transform="rotate(28.369 266.359 1130.14)"/></mask><rect x="266.359" y="1130.14" width="15.918" height="11.921" rx="1.931" transform="rotate(28.369 266.359 1130.14)" stroke="#ECECEC" stroke-width="4.405" mask="url(#f)"/><mask id="g" fill="#fff"><rect x="297.461" y="1146.94" width="15.918" height="11.921" rx="1.931" transform="rotate(28.369 297.461 1146.94)"/></mask><rect x="297.461" y="1146.94" width="15.918" height="11.921" rx="1.931" transform="rotate(28.369 297.461 1146.94)" stroke="#ECECEC" stroke-width="4.405" mask="url(#g)"/><path d="M249.735 1139.71c-.34.63-.764 1.08-1.122 1.31-.178.12-.293.15-.355.17a1.078 1.078 0 0 1-.055-.39c-.001-.43.141-1.03.482-1.66.341-.63.764-1.08 1.122-1.31.179-.12.293-.16.355-.17.024.06.055.18.055.39.001.43-.141 1.03-.482 1.66zm-1.535 1.48h.003-.003zm.085.05h0zm1.935-3.58h-.003.003zm-.084-.05h-.002.002zM262.871 1129.53l-2.192-1.19c-.877-.47-1.791.22-2.138.63-1.25 1.79-3.844 5.53-4.224 6.09-.38.56-.048 1.18.165 1.42.938.53 2.992 1.67 3.712 2.01.721.33 1.32-.2 1.529-.51l3.616-6.7c.569-1.05-.04-1.53-.468-1.75z" stroke="#ECECEC" stroke-width="2.203"/></svg>