<svg width="1879" height="927" viewBox="0 0 1879 927" fill="none" xmlns="http://www.w3.org/2000/svg"><path d="M285.487 531.351l52.108 15.794c4.472 1.835 11.831 6.583 5.491 10.892l-21.026 9.818M264.482 550.377c-12.248-1.453-16.979 7.371-17.814 11.965 1.545 11.607 6.027 38.913 11.592 55.285 5.566 16.372 12.792 9.805 15.71 4.475 3.876-10.651 12.595-32.91 13.802-37.591 1.55-6.01-7.98-32.317-23.29-34.134zM245.785 517.079c5.134 11.081 19.631 28.835 36.553 11.207" stroke="#ECECEC" stroke-width="5"/><path d="M246.598 562.44c-15.941-15.464-38.461-46.171-1.016-45.284 5.956-4.049 21.651-7.518 36.777 10.997l60.397 60.861c6.969-2.733 15.786-6.261 22.996-7.076 1.613-.182 7.301-1.087 3.977 5.435-10.069 16.829-41.237 41.912-85.358 7.609M1039.53 632.665l40.04-36.9c3.85-2.923 11.67-6.858 12.17.791l-2.2 23.101M1045.27 660.417c-7.46 9.819-2.25 18.372 1.28 21.421 10.79 4.555 36.6 14.54 53.53 18.047 16.93 3.506 14.94-6.053 11.82-11.271-7.21-8.742-21.97-27.545-25.4-30.959-4.39-4.384-31.9-9.511-41.23 2.762zM1007.09 659.644c12.16 1.196 34.81-2.295 28.2-25.819" stroke="#ECECEC" stroke-width="5"/><path d="M1046.6 681.948c-21.41 5.897-59.298 9.733-39.54-22.089-.47-7.187 4.5-22.473 28.13-26.12l83.08-21.189c1.18-7.392 2.61-16.78 5.56-23.408.66-1.483 2.77-6.843 6.7-.671 9.4 17.213 15.21 56.796-36.73 77.426M878.262 199.301l-42.311 13.411c-3.626 1.542-9.576 5.488-4.363 8.935l17.239 7.786M895.58 214.593c9.968-1.311 13.915 5.832 14.643 9.568-1.139 9.477-4.511 31.781-8.878 45.183-4.368 13.402-10.326 8.124-12.759 3.81-3.269-8.642-10.606-26.695-11.638-30.499-1.326-4.883 6.171-26.424 18.632-28.062zM910.476 187.257c-4.07 9.086-15.704 23.707-29.679 9.513" stroke="#ECECEC" stroke-width="5"/><path d="M910.282 224.24c12.833-12.769 30.873-38.031.361-36.922-4.897-3.239-17.726-5.904-29.864 9.344l-48.602 50.232c-5.709-2.156-12.932-4.941-18.818-5.531-1.317-.132-5.962-.81-3.185 4.472 8.381 13.613 34.045 33.737 69.654 5.32" stroke="#ECECEC" stroke-width="5"/><path d="M488.694 209.783l-27.987-57.576c-1.65-3.395-5.304-3.504-6.926-3.133l-87.662 42.611c-3.699 1.798-2.878 5.732-2.005 7.474l27.986 57.576c1.774 3.649 5.401 3.378 6.993 2.787l87.663-42.611c3.851-1.872 2.897-5.532 1.938-7.128zM438.955 156.751l32.697 67.267M381.507 184.518l32.851 67.584M479.946 222.235c.798 1.909 1.155 6.564-3.796 9.91-4.951 3.347-9.877-.184-11.722-2.367M422.814 250.005c.798 1.91 1.155 6.565-3.796 9.911-4.951 3.347-9.878-.184-11.722-2.367" stroke="#ECECEC" stroke-width="4.527"/><path d="M427.539 162.623l-5.745-11.821c-.483-.934-1.974-2.547-4.078-1.525l-29.686 14.43c-.861.458-2.317 1.921-1.251 4.115l5.746 11.82" stroke="#ECECEC" stroke-width="4.527"/><path d="M420.233 164.16l-1.897-3.903c-.447-.813-1.801-2.232-3.646-1.413-1.845.82-12.318 5.955-17.324 8.421-.756.367-2.018 1.618-1.016 3.679l1.898 3.903" stroke="#ECECEC" stroke-width="4.527"/><path d="M922.807 64.375l16.489-48.226c.972-2.844 3.849-3.287 5.166-3.152l73.428 25.106c3.1 1.06 2.83 4.248 2.31 5.71l-16.49 48.226c-1.04 3.056-3.933 3.197-5.248 2.885l-73.428-25.106c-3.225-1.103-2.829-4.088-2.227-5.443zM956.928 17.614l-19.265 56.344M1005.03 33.943l-19.354 56.61M930.935 73.359c-.444 1.587-.272 5.3 3.967 7.46s7.787-1.11 9.031-3.016M978.789 89.721c-.443 1.587-.271 5.3 3.968 7.46s7.787-1.11 9.031-3.015" stroke="#ECECEC" stroke-width="3.604"/><path d="M966.52 21.139l3.386-9.901c.29-.785 1.311-2.206 3.073-1.603l24.865 8.502c.725.277 2.018 1.291 1.39 3.129l-3.385 9.9" stroke="#ECECEC" stroke-width="3.604"/><path d="M972.444 21.64l1.118-3.27c.273-.685 1.205-1.939 2.743-1.472 1.537.468 10.314 3.503 14.51 4.962.634.216 1.752 1.08 1.162 2.807l-1.118 3.27" stroke="#ECECEC" stroke-width="3.604"/><path d="M1490.55 343.642l32.77-62.657c1.93-3.695 5.97-3.696 7.75-3.234l95.4 49.887c4.02 2.105 2.99 6.421 1.97 8.316l-32.77 62.658c-2.07 3.97-6.07 3.554-7.81 2.85l-95.4-49.887c-4.19-2.192-3.02-6.202-1.91-7.933zM1547.19 286.707l-38.28 73.204M1609.71 319.226l-38.46 73.549M1499.81 357.673c-.95 2.082-1.49 7.21 3.87 11.065 5.35 3.855 10.91.117 13.01-2.234M1561.98 390.186c-.94 2.082-1.49 7.21 3.87 11.065 5.36 3.855 10.91.117 13.02-2.234" stroke="#ECECEC" stroke-width="5"/><path d="M1559.6 293.56l6.73-12.864c.56-1.016 2.26-2.748 4.55-1.551 2.29 1.197 22.49 11.761 32.3 16.894.94.533 2.5 2.196 1.25 4.583-1.25 2.388-5 9.571-6.73 12.864" stroke="#ECECEC" stroke-width="5"/><path d="M1567.62 295.495l2.22-4.248c.52-.883 2.06-2.406 4.07-1.442 2.01.965 13.4 6.975 18.85 9.859.82.43 2.18 1.851 1 4.094-1.17 2.243-1.97 3.767-2.22 4.248M1761.1 160.555c6.22.106 11.34-4.848 11.45-11.065.1-6.216-4.85-11.342-11.07-11.447-6.22-.106-11.34 4.848-11.45 11.065-.1 6.216 4.85 11.342 11.07 11.447zM1838.19 161.866c6.22.106 11.34-4.848 11.45-11.065.1-6.216-4.85-11.342-11.07-11.447-6.22-.106-11.34 4.848-11.45 11.065-.1 6.216 4.85 11.342 11.07 11.447z" stroke="#ECECEC" stroke-width="5"/><path d="M1761.25 151.799a2.497 2.497 0 0 0 2.54-2.458 2.506 2.506 0 0 0-2.46-2.542 2.497 2.497 0 0 0-2.54 2.457 2.506 2.506 0 0 0 2.46 2.543zM1838.34 153.11a2.497 2.497 0 0 0 2.54-2.457 2.506 2.506 0 0 0-2.46-2.543 2.497 2.497 0 0 0-2.54 2.458 2.506 2.506 0 0 0 2.46 2.542z" stroke="#ECECEC" stroke-width="3.164"/><path d="M1774.82 149.529l50.11.852M1851.82 151.443c7.55.557 22.81-.126 23.41-7.314.61-7.187.86-38.77.92-53.663.01-3.161-1.99-4.191-11.87-4.36-10.35-.177-88.87-1.46-126.83-2.157-1.74.172-5.43 1.738-6.24 6.623-1.01 6.107-3.2 23.459-3.95 23.597-.76.138-4.18 1.139-4.73 2.037-.54.898-1.24 24.474.55 25.941 1.79 1.467 8.96 6.201 11.83 6.325 2.3.1 9.48.187 12.78.218" stroke="#ECECEC" stroke-width="5"/><mask id="a" style="mask-type:luminance" maskUnits="userSpaceOnUse" x="1790" y="84" width="47" height="38"><path d="M1827.33 89.938l-27.36-.465a4.377 4.377 0 0 0-4.45 4.31l-.32 18.29a4.386 4.386 0 0 0 4.31 4.459l27.36.465a4.38 4.38 0 0 0 4.46-4.309l.31-18.291a4.374 4.374 0 0 0-4.31-4.459z" stroke="#ECECEC" stroke-width="10"/></mask><path d="M1827.33 89.938l-27.36-.465a4.377 4.377 0 0 0-4.45 4.31l-.32 18.29a4.386 4.386 0 0 0 4.31 4.459l27.36.465a4.38 4.38 0 0 0 4.46-4.309l.31-18.291a4.374 4.374 0 0 0-4.31-4.459z" stroke="#ECECEC" stroke-width="10" mask="url(#a)"/><mask id="b" style="mask-type:luminance" maskUnits="userSpaceOnUse" x="1749" y="83" width="48" height="39"><path d="M1787.1 89.254l-27.36-.465a4.377 4.377 0 0 0-4.45 4.31l-.32 18.29a4.388 4.388 0 0 0 4.31 4.459l27.36.465a4.38 4.38 0 0 0 4.46-4.309l.31-18.291a4.374 4.374 0 0 0-4.31-4.459z" stroke="#ECECEC" stroke-width="10"/></mask><path d="M1787.1 89.254l-27.36-.465a4.377 4.377 0 0 0-4.45 4.31l-.32 18.29a4.388 4.388 0 0 0 4.31 4.459l27.36.465a4.38 4.38 0 0 0 4.46-4.309l.31-18.291a4.374 4.374 0 0 0-4.31-4.459z" stroke="#ECECEC" stroke-width="10" mask="url(#b)"/><mask id="c" style="mask-type:luminance" maskUnits="userSpaceOnUse" x="1830" y="85" width="47" height="38"><path d="M1867.33 90.618l-27.36-.465a4.377 4.377 0 0 0-4.45 4.31l-.32 18.29a4.386 4.386 0 0 0 4.31 4.459l27.36.465a4.38 4.38 0 0 0 4.46-4.309l.31-18.291a4.374 4.374 0 0 0-4.31-4.459z" stroke="#ECECEC" stroke-width="10"/></mask><path d="M1867.33 90.618l-27.36-.465a4.377 4.377 0 0 0-4.45 4.31l-.32 18.29a4.386 4.386 0 0 0 4.31 4.459l27.36.465a4.38 4.38 0 0 0 4.46-4.309l.31-18.291a4.374 4.374 0 0 0-4.31-4.459z" stroke="#ECECEC" stroke-width="10" mask="url(#c)"/><path d="M1730.68 120.717l-.01.001m1.18 4.638c-.03 1.628-.42 2.972-.9 3.818-.23.421-.42.617-.54.706-.11-.093-.29-.295-.51-.724-.45-.861-.79-2.218-.76-3.846.02-1.628.41-2.972.89-3.818.23-.421.43-.617.54-.706.11.093.29.296.51.724.45.862.79 2.218.77 3.846zm-1.55 4.593l.01-.001-.01.001zm.22.002v0zm-.06-9.236v-.002.002zM1747.69 91.121l-5.66-.096c-2.26-.038-3.38 2.31-3.66 3.488-.64 4.929-1.96 15.166-2.14 16.693-.18 1.526 1.13 2.432 1.82 2.694 2.44.087 7.77.241 9.57.162 1.8-.078 2.45-1.779 2.55-2.619l.3-17.27c.04-2.719-1.69-3.056-2.78-3.052zM1152.75 259.857c6.22.106 11.34-4.848 11.45-11.065.1-6.216-4.85-11.342-11.07-11.447-6.22-.106-11.34 4.848-11.45 11.065-.1 6.216 4.85 11.342 11.07 11.447zM1229.85 261.167c6.22.106 11.34-4.848 11.45-11.065.1-6.216-4.85-11.342-11.07-11.447-6.22-.106-11.34 4.848-11.45 11.065-.1 6.216 4.85 11.342 11.07 11.447z" stroke="#ECECEC" stroke-width="5"/><path d="M1152.9 251.101a2.497 2.497 0 0 0 2.54-2.458 2.506 2.506 0 0 0-2.46-2.542 2.497 2.497 0 0 0-2.54 2.457 2.506 2.506 0 0 0 2.46 2.543zM1230 252.411a2.497 2.497 0 0 0 2.54-2.457 2.506 2.506 0 0 0-2.46-2.543 2.497 2.497 0 0 0-2.54 2.458 2.506 2.506 0 0 0 2.46 2.542z" stroke="#ECECEC" stroke-width="3.164"/><path d="M1166.47 248.831l50.11.852M1243.48 250.745c7.55.557 22.81-.127 23.41-7.314.61-7.187.86-38.77.91-53.663.02-3.161-1.98-4.192-11.87-4.361-10.34-.176-88.86-1.46-126.82-2.156-1.75.172-5.43 1.737-6.24 6.623-1.01 6.107-3.2 23.458-3.96 23.597-.75.138-4.17 1.138-4.72 2.036-.54.898-1.25 24.475.54 25.942 1.79 1.467 8.97 6.201 11.84 6.325 2.3.1 9.47.186 12.78.217" stroke="#ECECEC" stroke-width="5"/><mask id="d" style="mask-type:luminance" maskUnits="userSpaceOnUse" x="1181" y="183" width="48" height="39"><path d="M1218.99 189.24l-27.36-.466a4.378 4.378 0 0 0-4.45 4.31l-.32 18.291a4.386 4.386 0 0 0 4.31 4.458l27.36.465a4.38 4.38 0 0 0 4.46-4.309l.31-18.291a4.373 4.373 0 0 0-4.31-4.458z" stroke="#ECECEC" stroke-width="10"/></mask><path d="M1218.99 189.24l-27.36-.466a4.378 4.378 0 0 0-4.45 4.31l-.32 18.291a4.386 4.386 0 0 0 4.31 4.458l27.36.465a4.38 4.38 0 0 0 4.46-4.309l.31-18.291a4.373 4.373 0 0 0-4.31-4.458z" stroke="#ECECEC" stroke-width="10" mask="url(#d)"/><mask id="e" style="mask-type:luminance" maskUnits="userSpaceOnUse" x="1141" y="183" width="48" height="38"><path d="M1178.76 188.556l-27.36-.465a4.376 4.376 0 0 0-4.45 4.309l-.32 18.291a4.386 4.386 0 0 0 4.31 4.458l27.36.465a4.38 4.38 0 0 0 4.46-4.309l.31-18.291a4.373 4.373 0 0 0-4.31-4.458z" stroke="#ECECEC" stroke-width="10"/></mask><path d="M1178.76 188.556l-27.36-.465a4.376 4.376 0 0 0-4.45 4.309l-.32 18.291a4.386 4.386 0 0 0 4.31 4.458l27.36.465a4.38 4.38 0 0 0 4.46-4.309l.31-18.291a4.373 4.373 0 0 0-4.31-4.458z" stroke="#ECECEC" stroke-width="10" mask="url(#e)"/><mask id="f" style="mask-type:luminance" maskUnits="userSpaceOnUse" x="1221" y="184" width="48" height="38"><path d="M1258.99 189.92l-27.36-.465a4.376 4.376 0 0 0-4.45 4.309l-.32 18.291a4.386 4.386 0 0 0 4.31 4.458l27.36.465a4.38 4.38 0 0 0 4.46-4.309l.31-18.291a4.373 4.373 0 0 0-4.31-4.458z" stroke="#ECECEC" stroke-width="10"/></mask><path d="M1258.99 189.92l-27.36-.465a4.376 4.376 0 0 0-4.45 4.309l-.32 18.291a4.386 4.386 0 0 0 4.31 4.458l27.36.465a4.38 4.38 0 0 0 4.46-4.309l.31-18.291a4.373 4.373 0 0 0-4.31-4.458z" stroke="#ECECEC" stroke-width="10" mask="url(#f)"/><path d="M1122.18 229.253v.002m1.32-4.597c-.02 1.628-.41 2.972-.89 3.818-.24.42-.43.617-.54.706-.11-.093-.29-.296-.52-.724-.44-.862-.78-2.218-.76-3.846.03-1.628.42-2.972.89-3.818.24-.421.43-.617.55-.706.1.093.29.295.51.724.45.861.79 2.218.76 3.846zm-1.54 4.593v-.002.002zm.38-9.233l-.01.002.01-.002zm-.22-.001v-.002.002zM1139.35 190.423l-5.66-.096c-2.26-.039-3.38 2.309-3.66 3.488-.64 4.928-1.97 15.166-2.15 16.693-.18 1.526 1.14 2.431 1.82 2.693 2.44.087 7.78.242 9.58.163 1.8-.078 2.45-1.779 2.55-2.619l.29-17.27c.05-2.719-1.68-3.056-2.77-3.052zM795.982 501.677c-6.166.801-11.814-3.547-12.616-9.713-.801-6.166 3.547-11.814 9.713-12.615 6.166-.802 11.814 3.547 12.615 9.713.802 6.165-3.547 11.813-9.712 12.615zM719.519 511.617c-6.166.801-11.814-3.547-12.616-9.713-.801-6.166 3.547-11.814 9.713-12.615 6.166-.802 11.814 3.547 12.615 9.712.802 6.166-3.547 11.814-9.712 12.616z" stroke="#ECECEC" stroke-width="5"/><path d="M794.853 492.992a2.5 2.5 0 1 1-.647-4.957 2.5 2.5 0 0 1 .647 4.957zM718.391 502.932a2.5 2.5 0 1 1-.647-4.957 2.5 2.5 0 0 1 .647 4.957z" stroke="#ECECEC" stroke-width="3.164"/><path d="M781.112 492.257l-49.701 6.461M704.803 502.787c-7.441 1.399-22.675 2.429-24.083-4.645-1.407-7.074-5.199-38.43-6.919-53.223-.365-3.14 1.506-4.388 11.308-5.663 10.256-1.334 88.138-11.407 125.788-16.352 1.75-.024 5.588 1.118 6.939 5.882 1.689 5.955 5.804 22.953 6.573 23.006.77.052 4.279.663 4.921 1.494.642.832 3.982 24.181 2.368 25.839-1.614 1.659-8.216 7.167-11.055 7.612-2.271.356-9.392 1.246-12.668 1.647" stroke="#ECECEC" stroke-width="5"/><mask id="g" style="mask-type:luminance" maskUnits="userSpaceOnUse" x="713" y="430" width="49" height="41"><path d="M722.243 438.926l27.136-3.528a4.385 4.385 0 0 1 4.913 3.783l2.358 18.141a4.384 4.384 0 0 1-3.782 4.913l-27.137 3.528a4.385 4.385 0 0 1-4.913-3.783l-2.358-18.141a4.384 4.384 0 0 1 3.783-4.913z" stroke="#ECECEC" stroke-width="10"/></mask><path d="M722.243 438.926l27.136-3.528a4.385 4.385 0 0 1 4.913 3.783l2.359 18.141a4.385 4.385 0 0 1-3.783 4.913l-27.137 3.528a4.385 4.385 0 0 1-4.913-3.783l-2.358-18.141a4.384 4.384 0 0 1 3.783-4.913z" stroke="#ECECEC" stroke-width="10" mask="url(#g)"/><mask id="h" style="mask-type:luminance" maskUnits="userSpaceOnUse" x="753" y="425" width="49" height="41"><path d="M762.146 433.739l27.136-3.528a4.385 4.385 0 0 1 4.913 3.783l2.359 18.141a4.385 4.385 0 0 1-3.783 4.913l-27.137 3.528a4.385 4.385 0 0 1-4.913-3.783l-2.358-18.141a4.384 4.384 0 0 1 3.783-4.913z" stroke="#ECECEC" stroke-width="10"/></mask><path d="M762.146 433.739l27.136-3.528a4.385 4.385 0 0 1 4.913 3.783l2.359 18.141a4.385 4.385 0 0 1-3.783 4.913l-27.137 3.528a4.385 4.385 0 0 1-4.913-3.783l-2.358-18.141a4.384 4.384 0 0 1 3.783-4.913z" stroke="#ECECEC" stroke-width="10" mask="url(#h)"/><mask id="i" style="mask-type:luminance" maskUnits="userSpaceOnUse" x="673" y="435" width="50" height="41"><path d="M682.577 444.083l27.136-3.528a4.385 4.385 0 0 1 4.913 3.783l2.358 18.141a4.384 4.384 0 0 1-3.782 4.913l-27.137 3.528a4.385 4.385 0 0 1-4.913-3.783l-2.358-18.141a4.384 4.384 0 0 1 3.783-4.913z" stroke="#ECECEC" stroke-width="10"/></mask><path d="M682.577 444.083l27.136-3.528a4.385 4.385 0 0 1 4.913 3.783l2.358 18.141a4.384 4.384 0 0 1-3.782 4.913l-27.137 3.528a4.385 4.385 0 0 1-4.913-3.783l-2.358-18.141a4.384 4.384 0 0 1 3.783-4.913z" stroke="#ECECEC" stroke-width="10" mask="url(#i)"/><path d="M821.741 458.682l.006.001m.209-.027l.005-.003m-.858 4.769c.21 1.615.744 2.908 1.313 3.694.284.392.495.566.617.641.098-.104.258-.326.432-.777.349-.906.536-2.292.326-3.907-.21-1.615-.745-2.907-1.314-3.694-.283-.391-.495-.565-.617-.641-.098.104-.258.326-.432.778-.349.906-.535 2.292-.325 3.906zm2.049 4.392l-.005-.001a.018.018 0 0 0 .005.001zm-.215.026l-.005.002.005-.002zM801.524 431.178l5.608-.729c2.244-.292 3.619 1.916 4.027 3.056 1.189 4.826 3.654 14.85 4.004 16.347.351 1.497-.857 2.544-1.505 2.881-2.416.36-7.697 1.11-9.496 1.234-1.799.124-2.635-1.493-2.829-2.317l-2.226-17.128c-.351-2.697 1.33-3.226 2.417-3.344z" stroke="#ECECEC" stroke-width="5"/><path d="M47.813 139.455c7.42 1.02 14.263-4.169 15.283-11.59 1.02-7.422-4.17-14.264-11.59-15.284-7.422-1.02-14.264 4.169-15.284 11.59-1.02 7.422 4.17 14.264 11.59 15.284zM139.842 152.102c7.422 1.02 14.264-4.169 15.284-11.59 1.02-7.422-4.169-14.264-11.59-15.284-7.422-1.02-14.264 4.169-15.284 11.59-1.02 7.422 4.169 14.264 11.59 15.284z" stroke="#ECECEC" stroke-width="6.024"/><path d="M49.25 129.002a3.012 3.012 0 1 0 .818-5.969 3.012 3.012 0 0 0-.819 5.969zM141.279 141.649a3.013 3.013 0 1 0 .819-5.97 3.013 3.013 0 0 0-.819 5.97z" stroke="#ECECEC" stroke-width="3.812"/><path d="M65.81 128.237l59.819 8.221M157.65 141.593c8.952 1.752 27.296 3.126 29.054-5.384 1.758-8.51 6.601-46.252 8.803-64.06.467-3.78-1.776-5.299-13.574-6.921C169.59 63.53 75.85 50.71 30.536 44.422c-2.109-.044-6.743 1.299-8.412 7.026-2.087 7.16-7.195 27.601-8.122 27.658-.927.056-5.16.762-5.94 1.758-.781.995-5.01 29.096-3.08 31.108 1.93 2.012 9.834 8.706 13.25 9.267 2.733.449 11.305 1.584 15.249 2.096" stroke="#ECECEC" stroke-width="6.024"/><mask id="j" style="mask-type:luminance" maskUnits="userSpaceOnUse" x="89" y="53" width="59" height="50"><path d="M137.2 64.504l-32.661-4.488a5.282 5.282 0 0 0-5.953 4.514l-3 21.834a5.282 5.282 0 0 0 4.514 5.953l32.661 4.488a5.284 5.284 0 0 0 5.953-4.514l3-21.834a5.283 5.283 0 0 0-4.514-5.953z" stroke="#ECECEC" stroke-width="12.048"/></mask><path d="M137.2 64.504l-32.661-4.488a5.282 5.282 0 0 0-5.953 4.514l-3 21.834a5.282 5.282 0 0 0 4.514 5.953l32.661 4.488a5.284 5.284 0 0 0 5.953-4.514l3-21.834a5.283 5.283 0 0 0-4.514-5.953z" stroke="#ECECEC" stroke-width="12.048" mask="url(#j)"/><mask id="k" style="mask-type:luminance" maskUnits="userSpaceOnUse" x="41" y="47" width="59" height="50"><path d="M89.173 57.904L56.51 53.416a5.282 5.282 0 0 0-5.952 4.514l-3 21.834a5.282 5.282 0 0 0 4.513 5.953l32.662 4.488a5.282 5.282 0 0 0 5.952-4.514l3-21.835a5.282 5.282 0 0 0-4.513-5.952z" stroke="#ECECEC" stroke-width="12.048"/></mask><path d="M89.173 57.904L56.51 53.416a5.282 5.282 0 0 0-5.952 4.514l-3 21.834a5.282 5.282 0 0 0 4.513 5.953l32.662 4.488a5.282 5.282 0 0 0 5.952-4.514l3-21.835a5.282 5.282 0 0 0-4.513-5.952z" stroke="#ECECEC" stroke-width="12.048" mask="url(#k)"/><mask id="l" style="mask-type:luminance" maskUnits="userSpaceOnUse" x="137" y="60" width="59" height="50"><path d="M184.943 71.065l-32.662-4.488a5.282 5.282 0 0 0-5.952 4.514l-3.001 21.834a5.282 5.282 0 0 0 4.514 5.952l32.662 4.489a5.282 5.282 0 0 0 5.952-4.514l3.001-21.835a5.283 5.283 0 0 0-4.514-5.952z" stroke="#ECECEC" stroke-width="12.048"/></mask><path d="M184.943 71.065l-32.662-4.488a5.282 5.282 0 0 0-5.952 4.514l-3.001 21.834a5.282 5.282 0 0 0 4.514 5.952l32.662 4.489a5.282 5.282 0 0 0 5.952-4.514l3.001-21.835a5.283 5.283 0 0 0-4.514-5.952z" stroke="#ECECEC" stroke-width="12.048" mask="url(#l)"/><path d="M15.376 98.42l.007-.002m.252.035a.04.04 0 0 1 .006.003m1.515-11.026l-.006.002m-.253-.035a.04.04 0 0 1-.006-.003m.993 5.753c-.267 1.944-.923 3.496-1.615 4.439-.345.47-.601.677-.749.767-.117-.127-.308-.396-.513-.94-.413-1.095-.625-2.767-.358-4.71.267-1.944.922-3.496 1.615-4.439.345-.47.6-.677.748-.767.118.127.308.396.514.94.413 1.095.625 2.767.358 4.71zM41.755 54.473l-6.75-.928c-2.7-.37-4.378 2.277-4.879 3.647-1.474 5.803-4.533 17.859-4.968 19.659-.435 1.8 1.011 3.072 1.788 3.483 2.908.455 9.264 1.406 11.43 1.57 2.166.166 3.188-1.775 3.428-2.766l2.834-20.616c.446-3.245-1.575-3.897-2.883-4.049z" stroke="#ECECEC" stroke-width="6.024"/><mask id="m" style="mask-type:alpha" maskUnits="userSpaceOnUse" x="469" y="792" width="143" height="129"><path d="M498.099 910.842l-25.531-65.937c-1.506-3.888 1.155-6.926 2.674-7.959l100.392-38.873c4.236-1.64 6.801 1.983 7.554 3.999l25.531 65.937c1.618 4.178-1.328 6.909-3.003 7.753l-100.393 38.872c-4.41 1.708-6.654-1.816-7.224-3.792zM492.601 830.725l29.829 77.035M558.265 805.133l29.969 77.398M514.75 913.129c.945 2.081 4.442 5.871 10.872 4.382 6.43-1.489 7.279-8.129 6.9-11.263M580.178 887.794c.945 2.081 4.442 5.871 10.873 4.382 6.43-1.489 7.279-8.129 6.899-11.263" stroke="#F2DEBA" stroke-width="5"/><path d="M505.936 825.906l-5.242-13.537c-.393-1.093-.576-3.513 1.833-4.446l33.997-13.163c1.018-.353 3.296-.43 4.269 2.082l5.242 13.537" stroke="#F2DEBA" stroke-width="5"/><path d="M512.674 821.152l-1.731-4.47c-.322-.972-.451-3.136 1.599-4.012 2.05-.876 14.08-5.487 19.839-7.682.866-.335 2.826-.416 3.74 1.945l1.731 4.47" stroke="#F2DEBA" stroke-width="5"/></mask><path d="M620 765H450v105h170V765z" fill="#ECECEC" mask="url(#m)"/></svg>