<svg width="194" height="17" viewBox="0 0 194 17" fill="none" xmlns="http://www.w3.org/2000/svg"><path d="M.576 11.632l.63-1.332a5.914 5.914 0 0 0 1.818.972c.672.216 1.338.33 1.998.342.66 0 1.266-.09 1.818-.27.564-.18 1.014-.45 1.35-.81.336-.36.504-.804.504-1.332 0-.648-.264-1.14-.792-1.476-.516-.336-1.236-.504-2.16-.504H2.934V5.764h2.682c.804 0 1.428-.162 1.872-.486.456-.336.684-.798.684-1.386 0-.444-.138-.816-.414-1.116-.264-.312-.63-.546-1.098-.702-.456-.156-.978-.234-1.566-.234a6.225 6.225 0 0 0-1.782.234 6.32 6.32 0 0 0-1.764.756L.972 1.354a8.178 8.178 0 0 1 2.394-.9c.84-.18 1.65-.234 2.43-.162.78.06 1.482.24 2.106.54.636.288 1.14.672 1.512 1.152.384.468.576 1.032.576 1.692 0 .6-.156 1.134-.468 1.602-.312.456-.744.81-1.296 1.062-.552.24-1.194.36-1.926.36l.072-.486c.84 0 1.566.138 2.178.414.624.264 1.104.642 1.44 1.134.348.492.522 1.062.522 1.71 0 .612-.156 1.158-.468 1.638a3.938 3.938 0 0 1-1.278 1.188 5.96 5.96 0 0 1-1.818.684 7.724 7.724 0 0 1-2.124.144 8.927 8.927 0 0 1-2.214-.432 7.327 7.327 0 0 1-2.034-1.062zM19.073 13v-2.016l-.09-.378V7.168c0-.732-.216-1.296-.648-1.692-.42-.408-1.056-.612-1.908-.612-.564 0-1.116.096-1.656.288a4.14 4.14 0 0 0-1.368.738l-.72-1.296a5.105 5.105 0 0 1 1.764-.9 7.306 7.306 0 0 1 2.178-.324c1.308 0 2.316.318 3.024.954.708.636 1.062 1.608 1.062 2.916V13h-1.638zm-3.132.108c-.708 0-1.332-.12-1.872-.36-.528-.24-.936-.57-1.224-.99a2.57 2.57 0 0 1-.432-1.458c0-.516.12-.984.36-1.404.252-.42.654-.756 1.206-1.008.564-.252 1.32-.378 2.268-.378h3.024v1.242h-2.952c-.864 0-1.446.144-1.746.432-.3.288-.45.636-.45 1.044 0 .468.186.846.558 1.134.372.276.888.414 1.548.414.648 0 1.212-.144 1.692-.432a2.446 2.446 0 0 0 1.062-1.26l.342 1.188c-.228.564-.63 1.014-1.206 1.35-.576.324-1.302.486-2.178.486zm12.94 0c-.793 0-1.519-.18-2.179-.54-.648-.372-1.17-.918-1.566-1.638-.384-.72-.576-1.62-.576-2.7s.186-1.98.558-2.7c.384-.72.9-1.26 1.548-1.62.66-.36 1.398-.54 2.214-.54.936 0 1.764.204 2.484.612a4.5 4.5 0 0 1 1.71 1.71c.42.72.63 1.566.63 2.538 0 .972-.21 1.824-.63 2.556a4.5 4.5 0 0 1-1.71 1.71c-.72.408-1.548.612-2.484.612zm-5.059 3.384V3.46h1.656v2.574l-.108 2.214.18 2.214v6.03h-1.728zm4.914-4.896c.612 0 1.158-.138 1.638-.414a2.922 2.922 0 0 0 1.152-1.17c.288-.516.432-1.11.432-1.782 0-.684-.144-1.272-.432-1.764a2.922 2.922 0 0 0-1.152-1.17c-.48-.276-1.026-.414-1.638-.414-.6 0-1.146.138-1.638.414-.48.276-.864.666-1.152 1.17-.276.492-.414 1.08-.414 1.764 0 .672.138 1.266.414 1.782.288.504.672.894 1.152 1.17a3.29 3.29 0 0 0 1.638.414zm11.727 1.512c-1.02 0-1.92-.21-2.7-.63a4.62 4.62 0 0 1-1.8-1.728c-.42-.732-.63-1.572-.63-2.52s.204-1.788.612-2.52A4.5 4.5 0 0 1 37.655 4c.732-.42 1.554-.63 2.466-.63.924 0 1.74.204 2.448.612.708.408 1.26.984 1.656 1.728.408.732.612 1.59.612 2.574 0 .072-.006.156-.018.252 0 .096-.006.186-.018.27h-8.118V7.564h7.218l-.702.432c.012-.612-.114-1.158-.378-1.638a2.807 2.807 0 0 0-1.098-1.116c-.456-.276-.99-.414-1.602-.414-.6 0-1.134.138-1.602.414a2.779 2.779 0 0 0-1.098 1.134c-.264.48-.396 1.032-.396 1.656v.288c0 .636.144 1.206.432 1.71.3.492.714.876 1.242 1.152.528.276 1.134.414 1.818.414.564 0 1.074-.096 1.53-.288.468-.192.876-.48 1.224-.864l.954 1.116a4.166 4.166 0 0 1-1.62 1.152c-.636.264-1.35.396-2.142.396zM47.518 13V3.46h7.02v1.512h-5.706l.414-.396V13h-1.728zm12.615.108c-1.02 0-1.92-.21-2.7-.63a4.62 4.62 0 0 1-1.8-1.728c-.42-.732-.63-1.572-.63-2.52s.204-1.788.612-2.52A4.5 4.5 0 0 1 57.325 4c.732-.42 1.554-.63 2.466-.63.924 0 1.74.204 2.448.612.708.408 1.26.984 1.656 1.728.408.732.612 1.59.612 2.574 0 .072-.006.156-.018.252 0 .096-.006.186-.018.27h-8.118V7.564h7.218l-.702.432c.012-.612-.114-1.158-.378-1.638a2.807 2.807 0 0 0-1.098-1.116c-.456-.276-.99-.414-1.602-.414-.6 0-1.134.138-1.602.414a2.779 2.779 0 0 0-1.098 1.134c-.264.48-.396 1.032-.396 1.656v.288c0 .636.144 1.206.432 1.71.3.492.714.876 1.242 1.152.528.276 1.134.414 1.818.414.564 0 1.074-.096 1.53-.288.468-.192.876-.48 1.224-.864l.954 1.116a4.166 4.166 0 0 1-1.62 1.152c-.636.264-1.35.396-2.142.396zm11.213 0c-.972 0-1.842-.21-2.61-.63a4.653 4.653 0 0 1-1.782-1.728c-.432-.732-.648-1.572-.648-2.52s.216-1.788.648-2.52A4.524 4.524 0 0 1 68.736 4c.768-.42 1.638-.63 2.61-.63.864 0 1.632.174 2.304.522.684.336 1.212.84 1.584 1.512l-1.314.846c-.312-.468-.696-.81-1.152-1.026a3.106 3.106 0 0 0-1.44-.342c-.624 0-1.182.138-1.674.414a3.045 3.045 0 0 0-1.17 1.17c-.288.492-.432 1.08-.432 1.764 0 .684.144 1.278.432 1.782.288.504.678.894 1.17 1.17.492.276 1.05.414 1.674.414.516 0 .996-.108 1.44-.324.456-.228.84-.576 1.152-1.044l1.314.828c-.372.66-.9 1.17-1.584 1.53-.672.348-1.44.522-2.304.522zM79.238 13V4.522l.432.45h-3.924V3.46h8.712v1.512h-3.906l.414-.45V13h-1.728zm12.045.108c-.792 0-1.518-.18-2.178-.54-.648-.372-1.17-.918-1.566-1.638-.384-.72-.576-1.62-.576-2.7s.186-1.98.558-2.7c.384-.72.9-1.26 1.548-1.62.66-.36 1.398-.54 2.214-.54.936 0 1.764.204 2.484.612a4.5 4.5 0 0 1 1.71 1.71c.42.72.63 1.566.63 2.538 0 .972-.21 1.824-.63 2.556a4.5 4.5 0 0 1-1.71 1.71c-.72.408-1.548.612-2.484.612zm-5.058 3.384V3.46h1.656v2.574l-.108 2.214.18 2.214v6.03h-1.728zm4.914-4.896c.612 0 1.158-.138 1.638-.414a2.922 2.922 0 0 0 1.152-1.17c.288-.516.432-1.11.432-1.782 0-.684-.144-1.272-.432-1.764a2.922 2.922 0 0 0-1.152-1.17c-.48-.276-1.026-.414-1.638-.414-.6 0-1.146.138-1.638.414-.48.276-.864.666-1.152 1.17-.276.492-.414 1.08-.414 1.764 0 .672.138 1.266.414 1.782.288.504.672.894 1.152 1.17a3.29 3.29 0 0 0 1.638.414zM98.617 13V3.46h1.728v6.948l5.85-6.948h1.566V13h-1.728V6.052L100.201 13h-1.584zm17.556.108c-.792 0-1.518-.18-2.178-.54-.648-.372-1.17-.918-1.566-1.638-.384-.72-.576-1.62-.576-2.7s.186-1.98.558-2.7c.384-.72.9-1.26 1.548-1.62.66-.36 1.398-.54 2.214-.54.936 0 1.764.204 2.484.612a4.5 4.5 0 0 1 1.71 1.71c.42.72.63 1.566.63 2.538 0 .972-.21 1.824-.63 2.556a4.5 4.5 0 0 1-1.71 1.71c-.72.408-1.548.612-2.484.612zm-5.058 3.384V3.46h1.656v2.574l-.108 2.214.18 2.214v6.03h-1.728zm4.914-4.896c.612 0 1.158-.138 1.638-.414a2.922 2.922 0 0 0 1.152-1.17c.288-.516.432-1.11.432-1.782 0-.684-.144-1.272-.432-1.764a2.922 2.922 0 0 0-1.152-1.17c-.48-.276-1.026-.414-1.638-.414-.6 0-1.146.138-1.638.414-.48.276-.864.666-1.152 1.17-.276.492-.414 1.08-.414 1.764 0 .672.138 1.266.414 1.782.288.504.672.894 1.152 1.17a3.29 3.29 0 0 0 1.638.414zm11.565 1.512c-.96 0-1.812-.21-2.556-.63a4.69 4.69 0 0 1-1.764-1.728c-.432-.744-.648-1.584-.648-2.52 0-.948.216-1.788.648-2.52A4.557 4.557 0 0 1 125.038 4c.744-.42 1.596-.63 2.556-.63.948 0 1.794.21 2.538.63a4.4 4.4 0 0 1 1.764 1.71c.432.72.648 1.56.648 2.52 0 .948-.216 1.788-.648 2.52a4.524 4.524 0 0 1-1.764 1.728c-.744.42-1.59.63-2.538.63zm0-1.512c.612 0 1.158-.138 1.638-.414a2.922 2.922 0 0 0 1.152-1.17c.276-.516.414-1.11.414-1.782 0-.684-.138-1.272-.414-1.764a2.922 2.922 0 0 0-1.152-1.17c-.48-.276-1.026-.414-1.638-.414-.612 0-1.158.138-1.638.414-.48.276-.864.666-1.152 1.17-.288.492-.432 1.08-.432 1.764 0 .672.144 1.266.432 1.782.288.504.672.894 1.152 1.17.48.276 1.026.414 1.638.414zM135.039 13V3.46h4.428c1.116 0 1.992.216 2.628.648.648.42.972 1.02.972 1.8s-.306 1.386-.918 1.818c-.6.42-1.398.63-2.394.63l.27-.468c1.14 0 1.986.21 2.538.63.552.42.828 1.038.828 1.854 0 .828-.312 1.476-.936 1.944-.612.456-1.554.684-2.826.684h-4.59zm1.692-1.332h2.772c.72 0 1.26-.108 1.62-.324.36-.228.54-.588.54-1.08 0-.504-.168-.87-.504-1.098-.324-.24-.84-.36-1.548-.36h-2.88v2.862zm0-4.104h2.592c.66 0 1.158-.12 1.494-.36.348-.252.522-.6.522-1.044 0-.456-.174-.798-.522-1.026-.336-.228-.834-.342-1.494-.342h-2.592v2.772zM151.946 13v-2.016l-.09-.378V7.168c0-.732-.216-1.296-.648-1.692-.42-.408-1.056-.612-1.908-.612-.564 0-1.116.096-1.656.288a4.14 4.14 0 0 0-1.368.738l-.72-1.296a5.105 5.105 0 0 1 1.764-.9 7.306 7.306 0 0 1 2.178-.324c1.308 0 2.316.318 3.024.954.708.636 1.062 1.608 1.062 2.916V13h-1.638zm-3.132.108c-.708 0-1.332-.12-1.872-.36-.528-.24-.936-.57-1.224-.99a2.57 2.57 0 0 1-.432-1.458c0-.516.12-.984.36-1.404.252-.42.654-.756 1.206-1.008.564-.252 1.32-.378 2.268-.378h3.024v1.242h-2.952c-.864 0-1.446.144-1.746.432-.3.288-.45.636-.45 1.044 0 .468.186.846.558 1.134.372.276.888.414 1.548.414.648 0 1.212-.144 1.692-.432a2.446 2.446 0 0 0 1.062-1.26l.342 1.188c-.228.564-.63 1.014-1.206 1.35-.576.324-1.302.486-2.178.486zm9.771-.108V4.522l.432.45h-3.924V3.46h8.712v1.512h-3.906l.414-.45V13h-1.728zm11.397-6.3c1.212.012 2.136.288 2.772.828.636.54.954 1.302.954 2.286 0 1.032-.348 1.83-1.044 2.394-.696.552-1.68.822-2.952.81l-4.14-.018V3.46h1.728v3.222l2.682.018zm-.414 5.004c.78.012 1.368-.144 1.764-.468.408-.324.612-.804.612-1.44 0-.624-.198-1.08-.594-1.368-.396-.288-.99-.438-1.782-.45l-2.268-.036v3.744l2.268.018zm10.516 1.404c-.972 0-1.842-.21-2.61-.63a4.653 4.653 0 0 1-1.782-1.728c-.432-.732-.648-1.572-.648-2.52s.216-1.788.648-2.52A4.524 4.524 0 0 1 177.474 4c.768-.42 1.638-.63 2.61-.63.864 0 1.632.174 2.304.522.684.336 1.212.84 1.584 1.512l-1.314.846c-.312-.468-.696-.81-1.152-1.026a3.106 3.106 0 0 0-1.44-.342c-.624 0-1.182.138-1.674.414a3.045 3.045 0 0 0-1.17 1.17c-.288.492-.432 1.08-.432 1.764 0 .684.144 1.278.432 1.782.288.504.678.894 1.17 1.17.492.276 1.05.414 1.674.414.516 0 .996-.108 1.44-.324.456-.228.84-.576 1.152-1.044l1.314.828c-.372.66-.9 1.17-1.584 1.53-.672.348-1.44.522-2.304.522zM192.012 13V9.652l.27.324h-3.042c-1.272 0-2.268-.27-2.988-.81-.708-.54-1.062-1.326-1.062-2.358 0-1.104.378-1.938 1.134-2.502.768-.564 1.788-.846 3.06-.846h4.176V13h-1.548zm-6.912 0l2.592-3.654h1.782L186.954 13H185.1zm6.912-3.888V4.486l.27.486h-2.844c-.792 0-1.404.15-1.836.45-.432.288-.648.768-.648 1.44 0 1.248.804 1.872 2.412 1.872h2.916l-.27.378z" fill="#A2A2A2"/></svg>