<svg width="193" height="50" viewBox="0 0 193 50" xmlns="http://www.w3.org/2000/svg" xmlns:xlink="http://www.w3.org/1999/xlink"><title>logo/extreme/rus</title><defs><path d="M22 12L9.594 0 1.506 8a2.493 2.493 0 0 0 1.986 4H22z" id="a"/><path id="b" d="M0 .096h16.849V20.43H0z"/></defs><g fill="none" fill-rule="evenodd"><use fill="#FF4F12" xlink:href="#a" transform="translate(0 38)"/><path d="M30 18L12 0 1.95 10.468A7 7 0 0 0 0 15.316V46a4 4 0 0 0 4 4 2.478 2.478 0 0 1-1.749-4.234" fill="#7800FF"/><g><path fill="#101828" d="M158.273 31.174h-4.329l-5.17 5.229v-5.229h-3.66v14.409h3.66v-5.955l5.258 5.955h4.415l-6.798-7.728z"/><g transform="translate(33 25.152)"><mask id="c" fill="#fff"><use xlink:href="#b"/></mask><path d="M9.122 9.915H3.834V3.524h5.288c2.672 0 3.892 1.278 3.892 3.195 0 1.917-1.22 3.196-3.892 3.196m.116-9.82H0V20.43h3.834v-7.088h5.404c4.59 0 7.61-2.353 7.61-6.623S13.829.096 9.239.096" fill="#101828" mask="url(#c)"/></g><path d="M58.504 42.561c-2.15 0-4.154-1.54-4.154-4.183s2.004-4.183 4.154-4.183 4.154 1.54 4.154 4.183c0 2.644-2.004 4.183-4.154 4.183m0-11.794c-3.95 0-7.873 2.557-7.873 7.611 0 5.055 3.922 7.611 7.873 7.611 3.95 0 7.872-2.556 7.872-7.61 0-5.055-3.921-7.612-7.872-7.612M75.721 42.561c-2.208 0-3.834-1.597-3.834-4.183 0-2.556 1.685-4.183 3.834-4.183 1.308 0 2.44.61 3.34 1.976l3.138-1.802c-1.045-2.237-3.311-3.602-6.449-3.602-4.096 0-7.582 3.021-7.582 7.611s3.312 7.611 7.582 7.611c3.08 0 5.142-1.394 6.594-3.863l-3.02-1.656c-.872 1.22-1.802 2.091-3.603 2.091M114.693 39.337c-.174 2.208-.61 2.702-1.365 2.702-.516 0-.759-.057-1.112-.15l.018 3.729s.455.139 1.297.139c3.109 0 4.27-2.005 4.561-6.275l.349-5.025h4.125v11.097h3.66v-14.38h-10.923l-.61 8.163zM100.303 36.461c.522-1.627 1.975-2.905 3.892-2.905 2.034 0 3.4 1.104 3.748 2.905h-7.64zm4.008-5.694c-4.183 0-7.582 3.05-7.582 7.611s3.4 7.611 7.408 7.611c3.167 0 5.17-1.19 6.623-3.66l-2.905-1.452c-.9 1.133-1.714 1.975-3.66 1.975-2.15 0-3.718-1.394-3.95-3.602h11.096v-1.278c0-4.212-2.904-7.205-7.03-7.205zM131.848 36.461c.523-1.627 1.975-2.905 3.893-2.905 2.033 0 3.398 1.104 3.747 2.905h-7.64zm4.01-5.694c-4.184 0-7.583 3.05-7.583 7.611s3.399 7.611 7.408 7.611c3.166 0 5.17-1.19 6.623-3.66l-2.905-1.452c-.9 1.133-1.714 1.975-3.66 1.975-2.15 0-3.719-1.394-3.95-3.602h11.096v-1.278c0-4.212-2.905-7.205-7.03-7.205zM83.483 34.37h4.3v11.213h3.66V34.369h4.299v-3.195H83.483zM165.714 42.562c-2.15 0-4.154-1.54-4.154-4.184 0-2.643 2.004-4.183 4.154-4.183s4.154 1.54 4.154 4.183c0 2.644-2.004 4.184-4.154 4.184m0-11.795c-3.95 0-7.873 2.557-7.873 7.611 0 5.055 3.922 7.611 7.873 7.611 3.95 0 7.872-2.556 7.872-7.61 0-5.055-3.921-7.612-7.872-7.612M188.15 31.171l-3.972 10.091-3.973-10.09h-4.784v14.382h3.48v-9.105l3.856 9.105h2.842l3.856-9.105v9.105h3.48V31.17z" fill="#101828"/></g></g></svg>