<svg width="109" height="43" viewBox="0 0 109 43" xmlns="http://www.w3.org/2000/svg"><defs><path id="b" d="M30.237 6.889h96.618v37.393H30.237z"/><path id="a" d="M33.011 11.674h75.113v29.662H33.011z"/></defs><path d="M12.062 14.811c-3.267-.028-3.267-.028-3.463-.178-.403-.308-.5-1.08-.186-1.49.31-.408.112-.387 3.86-.404 2.377-.011 3.429.003 3.592.047.454.122.805.689.716 1.156-.053.281-.219.573-.397.7-.15.106-.653.24-.794.21-.034-.007-1.531-.025-3.328-.04zM9.252 10c1.724-.008 4.562-.008 6.305 0 1.744.008.334.015-3.134.015s-4.895-.007-3.17-.015zm-3.738-.241c-.183-.16-.359-.421-.354-.524.001-.024.042.03.09.12.118.226.235.355.429.474.09.056.134.102.098.102-.037 0-.155-.077-.263-.172zm13.598.07c.194-.12.31-.248.43-.473.047-.09.087-.145.088-.12.009.169-.458.696-.616.695-.037 0 .007-.046.098-.102zM5.16 8.378c-.004-.092.159-.345.308-.476.156-.137.156-.137.012.027-.08.09-.183.239-.231.33-.048.09-.088.144-.089.12zm14.366-.139c-.069-.166-.28-.388-.47-.493-.06-.033-.079-.06-.042-.062.16-.004.69.604.603.69-.014.014-.054-.047-.09-.135zm-10.27-.652c1.727-.008 4.552-.008 6.278 0 1.727.008.314.014-3.139.014-3.452 0-4.865-.006-3.139-.014z" fill="#f6ca35"/><path d="M8.804 30.358a1.135 1.135 0 0 1-.517-.542c-.143-.378-.022-.952.253-1.2.29-.263.292-.263 3.867-.262 3.78.001 3.645-.013 3.97.413.142.187.158.25.158.627 0 .357-.02.45-.137.622a1.094 1.094 0 0 1-.36.311c-.215.105-.34.109-3.646.107-2.738-.002-3.456-.017-3.588-.076zm9.76-11.6c.117-.12.226-.22.241-.22.015 0-.069.1-.187.22s-.226.22-.241.22c-.015 0 .069-.1.186-.22zM16.37 16.4c.18-.18.338-.329.353-.329.015 0-.119.148-.298.33-.179.18-.338.328-.353.328-.015 0 .12-.148.298-.329z" fill="#b4d932"/><path d="M5.852 9.905c-.445-.158-.708-.567-.708-1.098 0-.55.304-.993.77-1.122.282-.078 12.681-.078 12.963 0 1.03.286 1.03 1.957 0 2.243-.135.038-2.334.056-6.51.055-5.197-.002-6.341-.016-6.515-.078z" fill="#e83230"/><path d="M4.87 4.828c-.32-.17-.5-.487-.525-.927-.016-.29.003-.413.091-.587.145-.284.452-.552.68-.593.098-.017 3.438-.025 7.421-.016 7.242.016 7.242.016 7.468.173.33.229.468.544.441 1.016-.026.453-.206.768-.537.936-.215.11-.3.111-7.525.109-7.177-.003-7.312-.005-7.514-.111z" fill="#a61177"/><path d="M5.934 35.525c-.346-.077-.684-.43-.775-.807-.166-.693.191-1.336.823-1.481.354-.082 12.45-.08 12.832.001.874.188 1.172 1.343.515 2a1.02 1.02 0 0 1-.478.288c-.324.082-12.551.08-12.917-.001z" fill="#26a460"/><path d="M1.348 42.164c-.533-.07-.905-.31-1.167-.754-.149-.254-.15-.261-.168-1.461-.055-3.604.486-6.182 1.91-9.102 1.804-3.7 4.682-6.914 8.861-9.894 3.633-2.59 5.53-4.25 7.224-6.323 2.143-2.621 3.492-5.651 3.874-8.702.036-.286.082-1.273.102-2.193.04-1.848.05-1.905.422-2.276.311-.312.645-.436 1.174-.437.529-.001.86.122 1.175.437.36.36.386.475.406 1.81.039 2.636-.23 4.583-.923 6.667-1.025 3.085-2.781 5.863-5.4 8.54-1.519 1.553-2.441 2.323-4.886 4.078-2.37 1.702-3.37 2.505-4.732 3.804C6.44 29.006 4.552 32 3.74 35.042c-.415 1.556-.5 2.253-.548 4.44-.036 1.673-.036 1.673-.186 1.928-.336.572-.942.848-1.66.754zm.863-.159c.313-.117.622-.397.787-.713.088-.17.105-.4.138-1.946.046-2.153.122-2.762.542-4.341.567-2.128 1.712-4.317 3.295-6.296 1.08-1.35 2.223-2.504 3.756-3.79.889-.746 1.56-1.256 3.202-2.431 2.26-1.618 3.297-2.473 4.66-3.84 3.431-3.441 5.614-7.425 6.246-11.404.168-1.053.226-1.817.262-3.4.036-1.629.002-1.88-.312-2.258-.513-.619-1.634-.684-2.285-.134-.096.081-.232.264-.302.406-.123.25-.129.324-.162 2.014-.047 2.38-.194 3.315-.816 5.181-.484 1.453-1.044 2.58-2.002 4.03-.781 1.18-1.581 2.139-2.819 3.374-1.584 1.581-2.512 2.35-4.91 4.069-2.326 1.665-3.192 2.36-4.437 3.555-2.167 2.082-3.753 4.189-4.97 6.602C.603 33.625-.001 36.45.069 40.113c.017.886.031 1.01.137 1.206.37.685 1.226.978 2.006.686zm21.08.16c-.373-.06-.723-.245-.941-.5-.321-.376-.36-.576-.36-1.88 0-1.956-.133-3.13-.523-4.623-.614-2.347-1.831-4.634-3.607-6.777-.67-.809-2.356-2.497-3.23-3.236-.355-.299-.645-.574-.645-.611 0-.037.364-.326.809-.643a49.58 49.58 0 0 0 1.24-.91c.239-.184.47-.334.515-.334.232 0 2.59 2.278 3.61 3.486 2.61 3.092 4.148 6.302 4.758 9.926.203 1.208.263 2.118.243 3.694-.017 1.398-.017 1.398-.168 1.654-.338.575-.992.865-1.7.753zm.906-.16c.312-.117.62-.395.789-.713.093-.175.102-.336.1-1.837-.001-.973-.03-1.891-.072-2.248-.54-4.639-2.49-8.592-6.058-12.29-.718-.743-2.224-2.137-2.37-2.193-.035-.014-.42.242-.855.568-.435.326-.993.728-1.24.894-.246.166-.448.317-.449.337-.001.02.325.315.725.658.913.782 2.313 2.18 3.029 3.024 1.781 2.102 3.09 4.506 3.7 6.801.42 1.58.497 2.192.542 4.34.035 1.649.044 1.767.154 1.973.366.684 1.225.978 2.005.686zM5.24 40.498c-.03-.01-.12-.033-.201-.051a.957.957 0 0 1-.323-.18c-.49-.414-.512-1.316-.042-1.755.328-.306-.08-.29 7.735-.29 7.2 0 7.2 0 7.442.123.384.196.567.47.594.888.035.55-.156.95-.559 1.17-.159.087-.687.095-7.381.104-3.965.005-7.235.001-7.265-.01zM7.891 19.97c-1.415-1.247-3.02-2.985-4.002-4.338C1.675 12.583.385 9.22.062 5.653c-.08-.883-.075-3.355.007-3.63.085-.281.476-.715.776-.86.306-.149.833-.202 1.17-.12.398.098.796.395.982.733.159.287.159.287.195 1.932.04 1.842.092 2.388.33 3.536.56 2.714 1.974 5.461 4.035 7.845.608.704 2.515 2.574 3.154 3.093.26.211.473.422.475.469.002.047-.221.24-.504.435-.279.192-.846.604-1.26.915-.415.311-.777.566-.804.566-.027 0-.354-.268-.727-.596zm1.656-.147c.405-.304.929-.683 1.162-.843.234-.16.425-.31.425-.333 0-.023-.092-.112-.205-.198-.805-.612-2.756-2.52-3.582-3.503-2-2.38-3.256-4.83-3.863-7.532-.256-1.142-.31-1.699-.347-3.543-.034-1.69-.04-1.764-.163-2.014-.25-.506-.727-.773-1.386-.774C.852 1.083.318 1.45.132 2.089c-.075.256-.083.53-.057 1.891.039 2.061.179 3.16.614 4.827 1.018 3.897 3.235 7.42 6.65 10.566 1.18 1.088 1.264 1.153 1.376 1.07.052-.037.426-.316.832-.62z" fill="#1f619a"/><path d="M.968 42.004a1.52 1.52 0 0 1-.763-.685C.1 41.123.085 41 .068 40.113c-.07-3.662.534-6.488 2.017-9.43 1.216-2.413 2.802-4.52 4.97-6.602 1.244-1.196 2.11-1.89 4.436-3.555 2.398-1.718 3.326-2.488 4.91-4.07 1.238-1.234 2.038-2.192 2.819-3.373.958-1.45 1.518-2.577 2.002-4.03.622-1.866.769-2.801.816-5.181.033-1.69.04-1.764.162-2.014.25-.506.727-.773 1.386-.774.737-.001 1.27.367 1.457 1.006.075.258.083.514.056 1.755-.036 1.582-.094 2.346-.262 3.399-.632 3.979-2.815 7.963-6.246 11.405-1.363 1.366-2.4 2.22-4.66 3.839-2.2 1.574-3.157 2.336-4.535 3.605-2.833 2.61-4.897 5.828-5.718 8.912-.42 1.579-.496 2.188-.542 4.34-.042 1.947-.039 1.931-.435 2.345-.385.401-1.153.54-1.733.314zm21.986 0a1.512 1.512 0 0 1-.762-.685c-.11-.206-.12-.324-.154-1.973-.045-2.148-.121-2.76-.542-4.34-.61-2.295-1.919-4.7-3.7-6.8-.716-.845-2.116-2.243-3.03-3.025-.399-.343-.725-.639-.724-.658 0-.02.203-.171.45-.337.246-.166.804-.568 1.24-.894.435-.326.82-.582.854-.568.146.056 1.652 1.45 2.37 2.194 3.569 3.697 5.517 7.65 6.058 12.29.041.356.07 1.274.072 2.247.002 1.836.007 1.811-.4 2.235-.384.401-1.152.54-1.732.314zm-14.57-21.69c-1.13-.937-2.822-2.662-3.774-3.85-1.922-2.397-3.197-4.888-3.92-7.657C.253 7.14.113 6.04.074 3.98.04 2.2.07 1.968.387 1.586.9.967 2.021.902 2.673 1.452c.095.081.231.264.301.406.123.25.13.324.163 2.014.036 1.844.09 2.401.347 3.543.607 2.703 1.863 5.152 3.863 7.532.826.984 2.777 2.891 3.582 3.503.113.086.205.175.205.198 0 .023-.19.172-.425.333-.233.16-.757.54-1.162.843l-.832.62c-.079.057-.13.038-.331-.13z" fill="#181c44"/><text style="line-height:1.6;-inkscape-font-specification:sans-serif;shape-inside:url(#b)" transform="matrix(.91258 0 0 1.36558 -.978 -4.817)" font-weight="400" font-size="18.667" font-family="sans-serif" letter-spacing="-.03" word-spacing=".02" white-space="pre" fill="#181c44"><tspan x="30.236" y="27.186">WEB-GEN</tspan></text></svg>