<svg width="57" height="15" viewBox="0 0 57 15" fill="none" xmlns="http://www.w3.org/2000/svg"><path d="M.962 14V1.4H6.38c1.368 0 2.442.276 3.222.828.78.552 1.17 1.356 1.17 2.412 0 1.032-.372 1.824-1.116 2.376-.744.54-1.722.81-2.934.81l.324-.54c1.404 0 2.478.282 3.222.846.756.552 1.134 1.362 1.134 2.43 0 1.08-.396 1.926-1.188 2.538-.78.6-1.944.9-3.492.9H.962zm1.782-1.422h3.942c.96 0 1.68-.174 2.16-.522.492-.36.738-.906.738-1.638 0-.732-.246-1.266-.738-1.602-.48-.336-1.2-.504-2.16-.504H2.744v4.266zm0-5.634h3.51c.876 0 1.542-.174 1.998-.522.468-.348.702-.858.702-1.53 0-.684-.234-1.2-.702-1.548-.456-.348-1.122-.522-1.998-.522h-3.51v4.122zm15.463 7.164c-.96 0-1.812-.21-2.556-.63a4.69 4.69 0 0 1-1.764-1.728c-.432-.744-.648-1.584-.648-2.52 0-.948.216-1.788.648-2.52A4.557 4.557 0 0 1 15.651 5c.744-.42 1.596-.63 2.556-.63.948 0 1.794.21 2.538.63a4.4 4.4 0 0 1 1.764 1.71c.432.72.648 1.56.648 2.52 0 .948-.216 1.788-.648 2.52a4.524 4.524 0 0 1-1.764 1.728c-.744.42-1.59.63-2.538.63zm0-1.512c.612 0 1.158-.138 1.638-.414a2.922 2.922 0 0 0 1.152-1.17c.276-.516.414-1.11.414-1.782 0-.684-.138-1.272-.414-1.764a2.922 2.922 0 0 0-1.152-1.17c-.48-.276-1.026-.414-1.638-.414-.612 0-1.158.138-1.638.414-.48.276-.864.666-1.152 1.17-.288.492-.432 1.08-.432 1.764 0 .672.144 1.266.432 1.782.288.504.672.894 1.152 1.17.48.276 1.026.414 1.638.414zM25.652 14V4.46h1.729v6.948l5.85-6.948h1.566V14h-1.728V7.052L27.236 14h-1.584zm4.464-10.782c-.875 0-1.566-.21-2.07-.63-.491-.432-.744-1.05-.755-1.854h1.17c.012.456.162.816.45 1.08.3.264.695.396 1.188.396.491 0 .887-.132 1.188-.396.3-.264.456-.624.468-1.08h1.206c-.012.804-.27 1.422-.774 1.854-.504.42-1.194.63-2.07.63zM40.041 14V5.522l.432.45h-3.924V4.46h8.712v1.512h-3.906l.414-.45V14H40.04zm6.987 0V4.46h1.727v6.948l5.85-6.948h1.567V14h-1.728V7.052L48.61 14h-1.583z" fill="#828282"/></svg>