<svg width="90" height="22" viewBox="0 0 90 22" fill="none" xmlns="http://www.w3.org/2000/svg"><path d="M10.494 16.37V5.552h-6.03l-.108 3.06c-.036.948-.096 1.86-.18 2.736a15.501 15.501 0 0 1-.36 2.34c-.156.684-.372 1.242-.648 1.674-.264.432-.612.684-1.044.756l-1.458-.27c.48.024.876-.15 1.188-.522.324-.372.57-.894.738-1.566.18-.672.312-1.458.396-2.358.084-.9.144-1.872.18-2.916L3.312 4.4h8.496v11.97h-1.314zM.198 19.826l.018-3.978h13.482v3.978h-1.242V17H1.458l-.018 2.826H.198zM21.977 17v-2.088l-.054-.342v-3.492c0-.804-.228-1.422-.684-1.854-.444-.432-1.11-.648-1.998-.648-.612 0-1.194.102-1.746.306a4.448 4.448 0 0 0-1.404.81l-.576-.954a4.99 4.99 0 0 1 1.728-.936 6.566 6.566 0 0 1 2.124-.342c1.224 0 2.166.306 2.826.918.672.6 1.008 1.518 1.008 2.754V17h-1.224zm-3.258.09c-.708 0-1.326-.114-1.854-.342-.516-.24-.912-.564-1.188-.972-.276-.42-.414-.9-.414-1.44 0-.492.114-.936.342-1.332.24-.408.624-.732 1.152-.972.54-.252 1.26-.378 2.16-.378h3.258v.954h-3.222c-.912 0-1.548.162-1.908.486a1.581 1.581 0 0 0-.522 1.206c0 .54.21.972.63 1.296.42.324 1.008.486 1.764.486.72 0 1.338-.162 1.854-.486.528-.336.912-.816 1.152-1.44l.288.882c-.24.624-.66 1.122-1.26 1.494-.588.372-1.332.558-2.232.558zm6.156-.108l.09-1.098c.084.012.162.03.234.054.084.012.156.018.216.018.384 0 .69-.144.918-.432.24-.288.42-.672.54-1.152.12-.48.204-1.02.252-1.62a94.3 94.3 0 0 0 .126-1.836l.162-3.366h6.93V17h-1.278V8.288l.324.378h-5.148l.306-.396-.144 2.736a27.913 27.913 0 0 1-.198 2.34 9.38 9.38 0 0 1-.414 1.962c-.18.564-.432 1.008-.756 1.332-.324.312-.738.468-1.242.468a2.96 2.96 0 0 1-.45-.036c-.144-.024-.3-.054-.468-.09zm17.151.108c-.984 0-1.848-.204-2.592-.612a4.597 4.597 0 0 1-1.746-1.71c-.42-.732-.63-1.566-.63-2.502 0-.936.198-1.764.594-2.484.408-.72.96-1.284 1.656-1.692.708-.42 1.5-.63 2.376-.63.888 0 1.674.204 2.358.612.696.396 1.242.96 1.638 1.692.396.72.594 1.554.594 2.502 0 .06-.006.126-.018.198v.198H38.03v-.954h7.542l-.504.378c0-.684-.15-1.29-.45-1.818a3.166 3.166 0 0 0-1.188-1.26c-.504-.3-1.086-.45-1.746-.45-.648 0-1.23.15-1.746.45-.516.3-.918.72-1.206 1.26-.288.54-.432 1.158-.432 1.854v.198c0 .72.156 1.356.468 1.908.324.54.768.966 1.332 1.278.576.3 1.23.45 1.962.45.576 0 1.11-.102 1.602-.306a3.332 3.332 0 0 0 1.296-.936l.72.828c-.42.504-.948.888-1.584 1.152a5.26 5.26 0 0 1-2.07.396zm11.127 0c-.984 0-1.848-.204-2.592-.612a4.597 4.597 0 0 1-1.746-1.71c-.42-.732-.63-1.566-.63-2.502 0-.936.198-1.764.594-2.484.408-.72.96-1.284 1.656-1.692.708-.42 1.5-.63 2.376-.63.888 0 1.674.204 2.358.612.696.396 1.242.96 1.638 1.692.396.72.594 1.554.594 2.502 0 .06-.006.126-.018.198v.198h-8.226v-.954H56.7l-.504.378c0-.684-.15-1.29-.45-1.818a3.166 3.166 0 0 0-1.188-1.26c-.504-.3-1.086-.45-1.746-.45-.648 0-1.23.15-1.746.45-.516.3-.918.72-1.206 1.26-.288.54-.432 1.158-.432 1.854v.198c0 .72.156 1.356.468 1.908.324.54.768.966 1.332 1.278.576.3 1.23.45 1.962.45.576 0 1.11-.102 1.602-.306a3.332 3.332 0 0 0 1.296-.936l.72.828c-.42.504-.948.888-1.584 1.152a5.26 5.26 0 0 1-2.07.396zM69 11.5a.5.5 0 0 0 0 1v-1zm20.354.854a.5.5 0 0 0 0-.708l-3.182-3.182a.5.5 0 0 0-.707.708L88.293 12l-2.829 2.828a.5.5 0 1 0 .708.708l3.182-3.182zM69 12.5h20v-1H69v1z" fill="#007895"/></svg>