<svg xmlns="http://www.w3.org/2000/svg" height="800" width="1200" viewBox="-7.93728 -13.2296 68.78976 79.3776"><defs><clipPath id="a"><path d="M0 595.28h841.89V0H0z"/></clipPath></defs><g clip-path="url(#a)" transform="matrix(.35278 0 0 -.35278 -196.111 155.455)"><path fill-rule="evenodd" fill="#ff6700" d="M700.203 290.654H561.596a5.694 5.694 0 0 0-5.694 5.694v138.616a5.693 5.693 0 0 0 5.694 5.694h138.607a5.693 5.693 0 0 0 5.694-5.694V296.348a5.694 5.694 0 0 0-5.694-5.694"/><g fill="#fff"><path d="M673.519 393.479h-11.8a.906.906 0 0 1-.915-.898v-53.844c0-.49.409-.893.914-.893h11.8c.502 0 .916.402.916.893v53.844a.91.91 0 0 1-.915.898m-40.292 0h-44.95a.903.903 0 0 1-.911-.898v-53.844c0-.49.406-.893.911-.893h11.804c.502 0 .918.402.918.893v42.26c0 .488.406.893.912.893h25.425c7.15 0 9.18-5.477 9.18-9.01v-34.143c0-.49.41-.893.915-.893h11.796c.503 0 .915.402.915.893v38.197c0 3.151-.38 7.682-4.444 11.67-4.253 4.163-8.133 4.875-12.471 4.875"/><path d="M624.959 372.032h-12.392c-.505 0-.92-.402-.92-.894v-32.405c0-.49.415-.892.92-.892h12.392c.501 0 .911.402.911.892v32.405c0 .492-.41.894-.911.894"/></g></g></svg>