<svg width="17" height="17" viewBox="0 0 17 17" fill="none" xmlns="http://www.w3.org/2000/svg">
<path d="M8.5 9.03125C9.67361 9.03125 10.625 8.07986 10.625 6.90625C10.625 5.73264 9.67361 4.78125 8.5 4.78125C7.32639 4.78125 6.375 5.73264 6.375 6.90625C6.375 8.07986 7.32639 9.03125 8.5 9.03125Z" stroke="#002A31" stroke-width="0.900213" stroke-linecap="round" stroke-linejoin="round"/>
<path d="M13.8125 6.90625C13.8125 11.6875 8.5 15.4062 8.5 15.4062C8.5 15.4062 3.1875 11.6875 3.1875 6.90625C3.1875 5.49729 3.74721 4.14603 4.7435 3.14975C5.73978 2.15346 7.09104 1.59375 8.5 1.59375C9.90896 1.59375 11.2602 2.15346 12.2565 3.14975C13.2528 4.14603 13.8125 5.49729 13.8125 6.90625Z" stroke="#002A31" stroke-width="0.900213" stroke-linecap="round" stroke-linejoin="round"/>
</svg>
