<svg width="16" height="14" viewBox="0 0 16 14" fill="none" xmlns="http://www.w3.org/2000/svg">
<g filter="url(#filter0_d_1128_4256)">
<path d="M8.34984 10.8654L13.0377 6.21726C14.1894 5.06956 14.3572 3.19308 13.2692 1.99373C12.9963 1.69149 12.6642 1.44759 12.293 1.27693C11.9219 1.10627 11.5195 1.01243 11.1106 1.00115C10.7016 0.989875 10.2946 1.06139 9.9145 1.21133C9.53436 1.36127 9.18904 1.58649 8.89965 1.87323L8.01995 2.75121L7.2618 1.99373C6.1043 0.851775 4.2118 0.685359 3.00222 1.76419C2.6974 2.03476 2.45141 2.3641 2.27929 2.7321C2.10718 3.10011 2.01254 3.49905 2.00116 3.90454C1.98979 4.31003 2.06192 4.71357 2.21314 5.09049C2.36436 5.46741 2.5915 5.80981 2.88068 6.09675L7.69007 10.8654C7.77785 10.9516 7.8964 11 8.01995 11C8.1435 11 8.26206 10.9516 8.34984 10.8654Z" stroke="white" stroke-linecap="round" stroke-linejoin="round" shape-rendering="crispEdges"/>
</g>
<defs>
<filter id="filter0_d_1128_4256" x="0.260397" y="0.5" width="15.4792" height="13.4792" filterUnits="userSpaceOnUse" color-interpolation-filters="sRGB">
<feFlood flood-opacity="0" result="BackgroundImageFix"/>
<feColorMatrix in="SourceAlpha" type="matrix" values="0 0 0 0 0 0 0 0 0 0 0 0 0 0 0 0 0 0 127 0" result="hardAlpha"/>
<feOffset dy="1.2396"/>
<feGaussianBlur stdDeviation="0.619801"/>
<feComposite in2="hardAlpha" operator="out"/>
<feColorMatrix type="matrix" values="0 0 0 0 0 0 0 0 0 0 0 0 0 0 0 0 0 0 0.25 0"/>
<feBlend mode="normal" in2="BackgroundImageFix" result="effect1_dropShadow_1128_4256"/>
<feBlend mode="normal" in="SourceGraphic" in2="effect1_dropShadow_1128_4256" result="shape"/>
</filter>
</defs>
</svg>
