<svg width="14" height="14" viewBox="0 0 14 14" fill="none" xmlns="http://www.w3.org/2000/svg">
<path d="M5.09687 6.71563C4.90722 6.25036 4.81061 5.75243 4.8125 5.25C4.8125 4.47124 5.04343 3.70996 5.47609 3.06244C5.90875 2.41493 6.5237 1.91025 7.24318 1.61223C7.96267 1.31421 8.75437 1.23623 9.51817 1.38816C10.282 1.54009 10.9836 1.9151 11.5342 2.46577C12.0849 3.01644 12.4599 3.71803 12.6118 4.48183C12.7638 5.24563 12.6858 6.03733 12.3878 6.75682C12.0898 7.4763 11.5851 8.09126 10.9376 8.52391C10.29 8.95657 9.52876 9.1875 8.75 9.1875C8.24757 9.18939 7.74964 9.09278 7.28437 8.90313L6.5625 9.625H5.25V10.9375H3.9375V12.25H1.75V10.0625L5.09687 6.71563Z" stroke="#002A31" stroke-width="0.875" stroke-linecap="round" stroke-linejoin="round"/>
<path d="M9.84375 4.8125C10.2062 4.8125 10.5 4.51869 10.5 4.15625C10.5 3.79381 10.2062 3.5 9.84375 3.5C9.48131 3.5 9.1875 3.79381 9.1875 4.15625C9.1875 4.51869 9.48131 4.8125 9.84375 4.8125Z" fill="#002A31"/>
</svg>
