<svg width="12" height="14" viewBox="0 0 12 14" fill="none" xmlns="http://www.w3.org/2000/svg">
<path d="M8.77901 6.9125L7.28113 3.26083L6.0181 5.39583L4.75507 3.26083L3.25719 6.91367H2.82431V7.46258H5.07989V6.91367H4.74602L5.07083 6.00658L6.0181 7.50575L6.96537 6.00658L7.29019 6.91367H6.95632V7.46258H9.22095V6.91367L8.77901 6.9125ZM12 5.79717C12.0004 5.03576 11.8455 4.28175 11.5441 3.57823C11.2427 2.87472 10.8007 2.23549 10.2435 1.6971C9.68628 1.1587 9.02469 0.731702 8.29655 0.440503C7.56842 0.149304 6.78803 -0.000382631 5.99999 7.34522e-07C2.68907 7.34522e-07 0 2.59758 0 5.79717C0 7.40133 0.676795 8.848 1.7593 9.89392C1.82709 9.95999 1.91368 10.0051 2.00807 10.0235C2.10246 10.0419 2.20038 10.0327 2.28937 9.99721C2.37836 9.96169 2.45441 9.9014 2.50785 9.82401C2.56128 9.74662 2.58969 9.65562 2.58945 9.56258C2.58965 9.43544 2.53778 9.31339 2.44516 9.22308C1.50741 8.31336 0.981891 7.08111 0.9841 5.79717C0.9841 3.12083 3.23002 0.941501 5.99999 0.941501C8.76996 0.941501 11.0255 3.12083 11.0255 5.79717C11.027 6.4351 10.8978 7.06702 10.6454 7.6565C10.393 8.24598 10.0224 8.78138 9.55482 9.23183L5.31414 13.3286L5.99999 14L10.2497 9.89392C10.8066 9.35623 11.2478 8.71747 11.5482 8.01439C11.8486 7.31131 12.0021 6.55779 12 5.79717Z" fill="#002A31"/>
</svg>
