<svg width="14" height="14" viewBox="0 0 14 14" fill="none" xmlns="http://www.w3.org/2000/svg">
<path d="M11.5938 7C12.1978 7 12.6875 6.51031 12.6875 5.90625C12.6875 5.30219 12.1978 4.8125 11.5938 4.8125C10.9897 4.8125 10.5 5.30219 10.5 5.90625C10.5 6.51031 10.9897 7 11.5938 7Z" stroke="#002A31" stroke-width="0.875" stroke-linecap="round" stroke-linejoin="round"/>
<path d="M2.40625 7C3.01031 7 3.5 6.51031 3.5 5.90625C3.5 5.30219 3.01031 4.8125 2.40625 4.8125C1.80219 4.8125 1.3125 5.30219 1.3125 5.90625C1.3125 6.51031 1.80219 7 2.40625 7Z" stroke="#002A31" stroke-width="0.875" stroke-linecap="round" stroke-linejoin="round"/>
<path d="M5.03125 4.375C5.63531 4.375 6.125 3.88531 6.125 3.28125C6.125 2.67719 5.63531 2.1875 5.03125 2.1875C4.42719 2.1875 3.9375 2.67719 3.9375 3.28125C3.9375 3.88531 4.42719 4.375 5.03125 4.375Z" stroke="#002A31" stroke-width="0.875" stroke-linecap="round" stroke-linejoin="round"/>
<path d="M8.96875 4.375C9.57281 4.375 10.0625 3.88531 10.0625 3.28125C10.0625 2.67719 9.57281 2.1875 8.96875 2.1875C8.36469 2.1875 7.875 2.67719 7.875 3.28125C7.875 3.88531 8.36469 4.375 8.96875 4.375Z" stroke="#002A31" stroke-width="0.875" stroke-linecap="round" stroke-linejoin="round"/>
<path d="M10.0206 8.52564C9.47238 8.21863 9.06753 7.70764 8.89402 7.10377C8.776 6.69306 8.52757 6.3319 8.18622 6.07482C7.84488 5.81775 7.42915 5.67871 7.00183 5.67871C6.5745 5.67871 6.15878 5.81775 5.81743 6.07482C5.47609 6.3319 5.22765 6.69306 5.10964 7.10377C4.93613 7.70764 4.53127 8.21863 3.98308 8.52564C3.64199 8.71147 3.37241 9.00551 3.21683 9.36142C3.06124 9.71733 3.02849 10.1149 3.12373 10.4915C3.21897 10.868 3.43679 11.2022 3.74287 11.4414C4.04895 11.6805 4.4259 11.811 4.81433 11.8124C5.049 11.8125 5.28136 11.766 5.49792 11.6756C5.97467 11.478 6.48572 11.3762 7.00183 11.3762C7.51794 11.3762 8.02898 11.478 8.50573 11.6756C8.7223 11.766 8.95466 11.8125 9.18933 11.8124C9.57776 11.811 9.9547 11.6805 10.2608 11.4414C10.5669 11.2022 10.7847 10.868 10.8799 10.4915C10.9752 10.1149 10.9424 9.71733 10.7868 9.36142C10.6312 9.00551 10.3617 8.71147 10.0206 8.52564Z" stroke="#002A31" stroke-width="0.875" stroke-linecap="round" stroke-linejoin="round"/>
</svg>
