<svg width="14" height="14" viewBox="0 0 14 14" fill="none" xmlns="http://www.w3.org/2000/svg">
<path d="M6.99414 3.9375C7.83983 3.9375 8.52539 3.25194 8.52539 2.40625C8.52539 1.56056 7.83983 0.875 6.99414 0.875C6.14845 0.875 5.46289 1.56056 5.46289 2.40625C5.46289 3.25194 6.14845 3.9375 6.99414 3.9375Z" stroke="#002A31" stroke-width="0.875" stroke-linecap="round" stroke-linejoin="round"/>
<path d="M8.41555 7.36641L10.3187 8.84297C10.4445 8.9477 10.6049 9.00162 10.7684 8.99415C10.932 8.98669 11.0868 8.91838 11.2026 8.80263C11.3183 8.68687 11.3866 8.53204 11.3941 8.36851C11.4015 8.20498 11.3476 8.04457 11.2429 7.91875L9.07727 5.13516C8.97635 5.03321 8.85627 4.95222 8.72394 4.89684C8.5916 4.84147 8.44963 4.81281 8.30618 4.8125H5.68118C5.39003 4.81406 5.11114 4.92993 4.90462 5.13516L2.73899 7.91875C2.62623 8.04392 2.56593 8.20765 2.57056 8.37606C2.5752 8.54446 2.64442 8.70463 2.76389 8.8234C2.88337 8.94217 3.04395 9.01045 3.21237 9.01409C3.3808 9.01774 3.54418 8.95646 3.66868 8.84297L5.5718 7.36641L4.05149 12.157C4.01486 12.2353 3.99401 12.32 3.99013 12.4064C3.98625 12.4927 3.99941 12.579 4.02887 12.6602C4.05832 12.7415 4.10349 12.8161 4.16179 12.8799C4.2201 12.9437 4.2904 12.9954 4.36868 13.032C4.44696 13.0687 4.53169 13.0895 4.61802 13.0934C4.70436 13.0973 4.79062 13.0841 4.87187 13.0547C4.95312 13.0252 5.02778 12.98 5.09157 12.9217C5.15537 12.8634 5.20705 12.7931 5.24368 12.7148L6.99368 9.95859L8.74368 12.7148C8.77786 12.7965 8.82823 12.8705 8.89174 12.9322C8.95526 12.9939 9.03061 13.0421 9.11326 13.074C9.1959 13.1058 9.28413 13.1205 9.37264 13.1174C9.46114 13.1142 9.54809 13.0931 9.62824 13.0554C9.70838 13.0178 9.78008 12.9643 9.839 12.8982C9.89792 12.832 9.94285 12.7547 9.97108 12.6707C9.99931 12.5868 10.0103 12.498 10.0033 12.4097C9.99628 12.3214 9.97149 12.2355 9.9304 12.157L8.41555 7.36641Z" stroke="#002A31" stroke-width="0.875" stroke-linecap="round" stroke-linejoin="round"/>
</svg>
