<svg width="12" height="12" viewBox="0 0 12 12" fill="none" xmlns="http://www.w3.org/2000/svg">
<path d="M10.4566 3.39695L8.61914 5.12508L10.3691 9.93758L9.05664 11.2501L6.44258 7.42195L5.11914 8.62508V9.93758L3.80664 11.2501L3.03008 8.95867L0.744141 8.18758L2.05664 6.87508H3.36914L4.68164 5.56258L0.744141 2.93758L2.05664 1.62508L6.86914 3.37508L8.60274 1.54305L8.56445 1.57039C8.81102 1.32382 9.14544 1.1853 9.49414 1.1853C9.84284 1.1853 10.1773 1.32382 10.4238 1.57039C10.6704 1.81696 10.8089 2.15138 10.8089 2.50008C10.8089 2.84878 10.6704 3.1832 10.4238 3.42977L10.4566 3.39695Z" stroke="#002A31" stroke-width="0.875" stroke-linecap="round" stroke-linejoin="round"/>
</svg>
