<svg width="115" height="20" viewBox="0 0 115 20" fill="none" xmlns="http://www.w3.org/2000/svg"><path d="M9.5.5l2.133 6.564h6.902l-5.584 4.057 2.133 6.565L9.5 13.629l-5.584 4.057 2.133-6.565L.465 7.064h6.902L9.5.5zM33.5.5l2.133 6.564h6.902l-5.584 4.057 2.133 6.565-5.584-4.057-5.584 4.057 2.133-6.565-5.584-4.057h6.902L33.5.5zM57.5.5l2.133 6.564h6.902l-5.584 4.057 2.133 6.565-5.584-4.057-5.584 4.057 2.133-6.565-5.584-4.057h6.902L57.5.5zM81.5.5l2.133 6.564h6.902l-5.584 4.057 2.133 6.565-5.584-4.057-5.584 4.057 2.133-6.565-5.584-4.057h6.902L81.5.5z" fill="#FFC632"/><path d="M105.5.5l2.133 6.564h6.902l-5.584 4.057 2.133 6.565-5.584-4.057-5.584 4.057 2.133-6.565-5.584-4.057h6.902L105.5.5z" fill="url(#a)"/><defs><linearGradient id="a" x1="105.5" y1="7.5" x2="105.5" y2="7.5" gradientUnits="userSpaceOnUse"><stop stop-color="#FFC632"/><stop offset="1" stop-color="#DDD"/></linearGradient></defs></svg>