<svg width="14" height="14" viewBox="0 0 14 14" fill="none" xmlns="http://www.w3.org/2000/svg">
<path d="M2.40625 7H11.5938" stroke="#002A31" stroke-width="0.875" stroke-linecap="round" stroke-linejoin="round"/>
<path d="M2.40625 3.9375H11.5938" stroke="#002A31" stroke-width="0.875" stroke-linecap="round" stroke-linejoin="round"/>
<path d="M5.25 11.375L3.9375 13.125" stroke="#002A31" stroke-width="0.875" stroke-linecap="round" stroke-linejoin="round"/>
<path d="M8.75 11.375L10.0625 13.125" stroke="#002A31" stroke-width="0.875" stroke-linecap="round" stroke-linejoin="round"/>
<path d="M10.2812 1.75H3.71875C2.99388 1.75 2.40625 2.33763 2.40625 3.0625V10.0625C2.40625 10.7874 2.99388 11.375 3.71875 11.375H10.2812C11.0061 11.375 11.5938 10.7874 11.5938 10.0625V3.0625C11.5938 2.33763 11.0061 1.75 10.2812 1.75Z" stroke="#002A31" stroke-width="0.875" stroke-linecap="round" stroke-linejoin="round"/>
<path d="M7 3.9375V7" stroke="#002A31" stroke-width="0.875" stroke-linecap="round" stroke-linejoin="round"/>
<path d="M4.59375 10.0625C4.95619 10.0625 5.25 9.76869 5.25 9.40625C5.25 9.04381 4.95619 8.75 4.59375 8.75C4.23131 8.75 3.9375 9.04381 3.9375 9.40625C3.9375 9.76869 4.23131 10.0625 4.59375 10.0625Z" fill="#002A31"/>
<path d="M9.40625 10.0625C9.76869 10.0625 10.0625 9.76869 10.0625 9.40625C10.0625 9.04381 9.76869 8.75 9.40625 8.75C9.04381 8.75 8.75 9.04381 8.75 9.40625C8.75 9.76869 9.04381 10.0625 9.40625 10.0625Z" fill="#002A31"/>
</svg>
