<svg width="14" height="14" viewBox="0 0 14 14" fill="none" xmlns="http://www.w3.org/2000/svg">
<path d="M2.1875 3.5V10.5C2.1875 10.7321 2.27969 10.9546 2.44378 11.1187C2.60788 11.2828 2.83044 11.375 3.0625 11.375H11.8125C11.9285 11.375 12.0398 11.3289 12.1219 11.2469C12.2039 11.1648 12.25 11.0535 12.25 10.9375V4.8125C12.25 4.69647 12.2039 4.58519 12.1219 4.50314C12.0398 4.42109 11.9285 4.375 11.8125 4.375H3.0625C2.83044 4.375 2.60788 4.28281 2.44378 4.11872C2.27969 3.95462 2.1875 3.73206 2.1875 3.5ZM2.1875 3.5C2.1875 3.26794 2.27969 3.04538 2.44378 2.88128C2.60788 2.71719 2.83044 2.625 3.0625 2.625H10.5" stroke="#002A31" stroke-width="0.875" stroke-linecap="round" stroke-linejoin="round"/>
<path d="M9.84375 8.53125C10.2062 8.53125 10.5 8.23744 10.5 7.875C10.5 7.51256 10.2062 7.21875 9.84375 7.21875C9.48131 7.21875 9.1875 7.51256 9.1875 7.875C9.1875 8.23744 9.48131 8.53125 9.84375 8.53125Z" fill="#002A31"/>
</svg>
