<svg width="14" height="14" viewBox="0 0 14 14" fill="none" xmlns="http://www.w3.org/2000/svg"><path d="M.875 6.563h12.25M12.25 10.063v1.312a.438.438 0 0 1-.438.438H10.5a.438.438 0 0 1-.438-.438v-1.313M3.938 10.063v1.312a.438.438 0 0 1-.438.438H2.187a.438.438 0 0 1-.437-.438v-1.313M3.5 8.313h.875M9.625 8.313h.875" stroke="#002A31" stroke-width=".875" stroke-linecap="round" stroke-linejoin="round"/><path d="M12.25 6.563l-1.635-3.675a.437.437 0 0 0-.4-.263h-6.43a.438.438 0 0 0-.4.263L1.75 6.563v3.5h10.5v-3.5z" stroke="#002A31" stroke-width=".875" stroke-linecap="round" stroke-linejoin="round"/></svg>