<svg width="16" height="14" viewBox="0 0 16 14" fill="none" xmlns="http://www.w3.org/2000/svg"><path d="M8.35 10.865l4.688-4.648c1.151-1.147 1.32-3.024.231-4.223A3.008 3.008 0 0 0 11.111 1a3.032 3.032 0 0 0-2.211.872l-.88.878-.758-.757C6.104.852 4.212.685 3.002 1.764a2.986 2.986 0 0 0-1 2.14 2.962 2.962 0 0 0 .879 2.193l4.81 4.768a.47.47 0 0 0 .659 0z" stroke="#fff" stroke-linecap="round" stroke-linejoin="round" shape-rendering="crispEdges" filter="url(#a)"/><defs><filter id="a" x=".26" y=".5" width="15.479" height="13.479" filterUnits="userSpaceOnUse" color-interpolation-filters="sRGB"><feFlood flood-opacity="0" result="BackgroundImageFix"/><feColorMatrix in="SourceAlpha" values="0 0 0 0 0 0 0 0 0 0 0 0 0 0 0 0 0 0 127 0" result="hardAlpha"/><feOffset dy="1.24"/><feGaussianBlur stdDeviation=".62"/><feComposite in2="hardAlpha" operator="out"/><feColorMatrix values="0 0 0 0 0 0 0 0 0 0 0 0 0 0 0 0 0 0 0.25 0"/><feBlend in2="BackgroundImageFix" result="effect1_dropShadow_1128_4256"/><feBlend in="SourceGraphic" in2="effect1_dropShadow_1128_4256" result="shape"/></filter></defs></svg>