<svg width="12" height="14" viewBox="0 0 12 14" fill="none" xmlns="http://www.w3.org/2000/svg"><path d="M8.779 6.912L7.281 3.261 6.018 5.396 4.755 3.26 3.257 6.914h-.433v.549H5.08v-.55h-.334l.325-.906.947 1.499.947-1.5.325.908h-.334v.549h2.265v-.55h-.442zM12 5.797c0-.761-.155-1.515-.456-2.219a5.786 5.786 0 0 0-1.3-1.88A6.015 6.015 0 0 0 8.296.44 6.18 6.18 0 0 0 6 0C2.69 0 0 2.598 0 5.797c0 1.604.677 3.051 1.76 4.097a.49.49 0 0 0 .53.103.482.482 0 0 0 .218-.173.458.458 0 0 0 .081-.261.473.473 0 0 0-.144-.34 4.761 4.761 0 0 1-1.46-3.426C.984 3.121 3.23.942 6 .942c2.77 0 5.025 2.179 5.025 4.855a4.693 4.693 0 0 1-.38 1.86 4.827 4.827 0 0 1-1.09 1.575l-4.24 4.097L6 14l4.25-4.106a5.76 5.76 0 0 0 1.298-1.88A5.6 5.6 0 0 0 12 5.797z" fill="#002A31"/></svg>