<svg width="14" height="14" viewBox="0 0 14 14" fill="none" xmlns="http://www.w3.org/2000/svg"><path d="M11.594 7a1.094 1.094 0 1 0 0-2.187 1.094 1.094 0 0 0 0 2.187zM2.406 7a1.094 1.094 0 1 0 0-2.188 1.094 1.094 0 0 0 0 2.188zm2.625-2.625a1.094 1.094 0 1 0 0-2.188 1.094 1.094 0 0 0 0 2.188zm3.938 0a1.094 1.094 0 1 0 0-2.188 1.094 1.094 0 0 0 0 2.188zm1.051 4.151a2.384 2.384 0 0 1-1.126-1.422 1.969 1.969 0 0 0-3.784 0 2.384 2.384 0 0 1-1.127 1.422 1.75 1.75 0 0 0 1.515 3.15 3.928 3.928 0 0 1 3.008 0 1.75 1.75 0 0 0 1.515-3.15z" stroke="#002A31" stroke-width=".875" stroke-linecap="round" stroke-linejoin="round"/></svg>