<svg width="14" height="14" viewBox="0 0 14 14" fill="none" xmlns="http://www.w3.org/2000/svg"><path d="M6.994 3.938a1.531 1.531 0 1 0 0-3.063 1.531 1.531 0 0 0 0 3.063zm1.422 3.428l1.903 1.477a.656.656 0 0 0 .924-.924L9.077 5.135a1.088 1.088 0 0 0-.77-.322H5.68a1.11 1.11 0 0 0-.776.322L2.739 7.92a.656.656 0 0 0 .93.924l1.903-1.477-1.52 4.791a.658.658 0 1 0 1.192.558l1.75-2.756 1.75 2.756a.656.656 0 1 0 1.186-.558l-1.514-4.79z" stroke="#002A31" stroke-width=".875" stroke-linecap="round" stroke-linejoin="round"/></svg>