<svg width="72" height="12" viewBox="0 0 72 12" fill="none" xmlns="http://www.w3.org/2000/svg"><path d="M6 0l1.347 4.146h4.36L8.18 6.708l1.347 4.146L6 8.292l-3.527 2.562L3.82 6.708.294 4.146h4.359L6 0zm15 0l1.347 4.146h4.36L23.18 6.708l1.347 4.146L21 8.292l-3.527 2.562 1.347-4.146-3.526-2.562h4.359L21 0zm15 0l1.347 4.146h4.36L38.18 6.708l1.347 4.146L36 8.292l-3.527 2.562 1.347-4.146-3.526-2.562h4.359L36 0zm15 0l1.347 4.146h4.36L53.18 6.708l1.347 4.146L51 8.292l-3.527 2.562 1.347-4.146-3.526-2.562h4.359L51 0z" fill="#FFC632"/><path d="M66 0l1.347 4.146h4.36L68.18 6.708l1.347 4.146L66 8.292l-3.527 2.562 1.347-4.146-3.526-2.562h4.359L66 0z" fill="#DEDEDE"/></svg>