<svg width="14" height="14" viewBox="0 0 14 14" fill="none" xmlns="http://www.w3.org/2000/svg"><path d="M2.406 7h9.188M2.406 3.938h9.188M5.25 11.375l-1.313 1.75M8.75 11.375l1.313 1.75M10.281 1.75H3.72c-.725 0-1.313.588-1.313 1.313v7c0 .724.588 1.312 1.313 1.312h6.562c.725 0 1.313-.588 1.313-1.313v-7c0-.724-.588-1.312-1.313-1.312zM7 3.938V7" stroke="#002A31" stroke-width=".875" stroke-linecap="round" stroke-linejoin="round"/><path d="M4.594 10.063a.656.656 0 1 0 0-1.313.656.656 0 0 0 0 1.313zM9.406 10.063a.656.656 0 1 0 0-1.313.656.656 0 0 0 0 1.313z" fill="#002A31"/></svg>