<svg id="Слой_2" data-name="Слой 2" xmlns="http://www.w3.org/2000/svg" viewBox="0 0 264.7923 158.62282"><defs><style>.cls-1{fill:#005382}</style></defs><title>photo_2023-03-06_12-50-12</title><path class="cls-1" d="M325.947 332.215l-16.35 37.5a9.134 9.134 0 0 0 .18 7.7l.83 1.68a9.15 9.15 0 0 0 16.58-.36l23.73-53.87a9.137 9.137 0 0 1 8.37-5.46h16.51a9.153 9.153 0 0 1 8.32 12.98l-17.68 38.38a9.153 9.153 0 0 0 8.32 12.98h1.15a9.145 9.145 0 0 0 8.4-5.51l23.13-53.32a9.145 9.145 0 0 1 8.4-5.51h19.17a9.152 9.152 0 0 1 8.31 12.99l-64.85 140.32a9.152 9.152 0 0 1-16.55.14l-8.2-16.99a9.156 9.156 0 0 1-.11-7.71l12.68-28.38a9.153 9.153 0 0 0-8.36-12.88h-1.81a9.143 9.143 0 0 0-8.31 5.33l-27.57 60.03a9.15 9.15 0 0 1-16.62.02l-12.83-27.73a9.15 9.15 0 0 0-16.6-.02l-12.95 27.84a9.152 9.152 0 0 1-16.61-.03l-64.4-139.96a9.147 9.147 0 0 1 8.31-12.97h14.31a9.153 9.153 0 0 1 8.27 5.24l33.33 70.51a9.153 9.153 0 0 0 16.61-.13l1.66-3.67a9.169 9.169 0 0 0-.07-7.7l-24.16-50.85a9.156 9.156 0 0 1 8.47-13.08l19.33.42a9.146 9.146 0 0 1 8.11 5.32l1.46 3.16a9.149 9.149 0 0 0 16.7-.2l1.52-3.51a9.161 9.161 0 0 1 8.4-5.51h15.08a9.148 9.148 0 0 1 8.39 12.81z" transform="translate(-179.378 -319.405)"/></svg>