<svg width="289" height="99" viewBox="0 0 289 99" fill="none" xmlns="http://www.w3.org/2000/svg"><path d="M96.515 80V49.9h13.502c3.469 0 6.135.702 7.998 2.107 1.863 1.376 2.795 3.268 2.795 5.676 0 1.634-.373 3.01-1.118 4.128-.717 1.118-1.691 1.978-2.924 2.58-1.233.602-2.566.903-3.999.903l.774-1.29c1.72 0 3.239.301 4.558.903 1.319.602 2.365 1.49 3.139 2.666.774 1.147 1.161 2.58 1.161 4.3 0 2.58-.975 4.587-2.924 6.02-1.921 1.405-4.787 2.107-8.6 2.107H96.515zm4.3-3.483h9.89c2.379 0 4.2-.401 5.461-1.204 1.261-.803 1.892-2.064 1.892-3.784 0-1.749-.631-3.024-1.892-3.827-1.261-.803-3.082-1.204-5.461-1.204h-10.277v-3.483h9.202c2.179 0 3.87-.401 5.074-1.204 1.204-.803 1.806-2.007 1.806-3.612s-.602-2.81-1.806-3.612c-1.204-.803-2.895-1.204-5.074-1.204h-8.815v23.134zM129.446 88.6a9.3 9.3 0 0 1-3.182-.559c-1.032-.344-1.921-.86-2.666-1.548l1.763-3.096c.573.545 1.204.96 1.892 1.247.688.287 1.419.43 2.193.43 1.003 0 1.835-.258 2.494-.774.659-.516 1.276-1.433 1.849-2.752l1.419-3.139.43-.516 8.944-20.683h4.042l-11.051 25.069c-.659 1.605-1.405 2.867-2.236 3.784-.803.917-1.691 1.562-2.666 1.935-.975.401-2.05.602-3.225.602zm5.418-7.869L124.458 57.21h4.3l8.858 20.296-2.752 3.225zm101.956-.473a2.89 2.89 0 0 1-2.064-.817c-.573-.573-.86-1.29-.86-2.15 0-.86.287-1.562.86-2.107a2.89 2.89 0 0 1 2.064-.817c.774 0 1.433.272 1.978.817.573.545.86 1.247.86 2.107 0 .86-.287 1.577-.86 2.15a2.695 2.695 0 0 1-1.978.817z" fill="#1A648F"/><path d="M159.055 80V53.641h-10.32V49.9h24.897v3.741h-10.32V80h-4.257zm18.113 0V57.21h3.956v6.192l-.387-1.548c.631-1.577 1.691-2.78 3.182-3.612 1.491-.831 3.325-1.247 5.504-1.247v3.999a3.13 3.13 0 0 0-.516-.043h-.43c-2.207 0-3.956.66-5.246 1.978-1.29 1.319-1.935 3.225-1.935 5.719V80h-4.128zm17.343 0V57.21h4.128V80h-4.128zm2.064-27.176c-.803 0-1.477-.258-2.021-.774-.516-.516-.774-1.147-.774-1.892 0-.774.258-1.419.774-1.935.544-.516 1.218-.774 2.021-.774.802 0 1.462.258 1.978.774.544.487.817 1.104.817 1.849 0 .774-.258 1.433-.774 1.978-.516.516-1.19.774-2.021.774zm22.028 27.434c-1.892 0-3.626-.43-5.203-1.29-1.548-.889-2.795-2.193-3.741-3.913-.917-1.72-1.376-3.87-1.376-6.45s.445-4.73 1.333-6.45c.918-1.72 2.15-3.01 3.698-3.87 1.577-.86 3.34-1.29 5.289-1.29 2.236 0 4.214.487 5.934 1.462 1.72.975 3.082 2.336 4.085 4.085 1.004 1.72 1.505 3.741 1.505 6.063 0 2.322-.501 4.357-1.505 6.106-1.003 1.749-2.365 3.11-4.085 4.085-1.72.975-3.698 1.462-5.934 1.462zm-12.083 8.084V57.21h3.956v6.149l-.258 5.289.43 5.289v14.405h-4.128zm11.739-11.696c1.462 0 2.767-.33 3.913-.989a6.973 6.973 0 0 0 2.752-2.795c.688-1.233 1.032-2.652 1.032-4.257 0-1.634-.344-3.039-1.032-4.214a6.973 6.973 0 0 0-2.752-2.795c-1.146-.66-2.451-.989-3.913-.989-1.433 0-2.737.33-3.913.989-1.146.66-2.064 1.591-2.752 2.795-.659 1.175-.989 2.58-.989 4.214 0 1.605.33 3.024.989 4.257.688 1.204 1.606 2.136 2.752 2.795 1.176.66 2.48.989 3.913.989zM245.573 80V57.21h3.956v6.192l-.387-1.548c.631-1.577 1.691-2.78 3.182-3.612 1.491-.831 3.325-1.247 5.504-1.247v3.999a3.13 3.13 0 0 0-.516-.043h-.43c-2.207 0-3.956.66-5.246 1.978-1.29 1.319-1.935 3.225-1.935 5.719V80h-4.128zm27.226.258c-1.949 0-3.669-.358-5.16-1.075-1.462-.717-2.609-1.806-3.44-3.268-.803-1.49-1.204-3.354-1.204-5.59V57.21h4.128v12.642c0 2.236.53 3.913 1.591 5.031 1.089 1.118 2.609 1.677 4.558 1.677 1.433 0 2.68-.287 3.741-.86 1.061-.602 1.878-1.462 2.451-2.58.573-1.147.86-2.523.86-4.128V57.21h4.128V80h-3.913v-6.149l.645 1.634a7.97 7.97 0 0 1-3.354 3.526c-1.491.831-3.168 1.247-5.031 1.247z" fill="#1F2041"/><path fill-rule="evenodd" clip-rule="evenodd" d="M79.422 74.577c.026-.058.044-.118.062-.18l.005-.017a33.926 33.926 0 0 0 1.643-10.441c0-17.15-12.74-31.372-29.25-33.72-1.107-.073-1.501-.219-5.001-.219-3.5 0-3.649.146-4.633.22-12.592 1.79-22.988 10.487-27.213 22.124-.012.029-.019.059-.03.089A33.891 33.891 0 0 0 13 63.939c0 3.599.565 7.068 1.605 10.327.023.117.064.227.113.333 4.485 13.575 17.283 23.403 32.342 23.406h.006c.229 0 .455-.013.682-.017.048.005.096.017.144.017.058 0 .115-.02.172-.025 14.634-.425 26.978-10.116 31.358-23.403zM17.491 54.439a30.961 30.961 0 0 0-.29 18.03h11.196a36.279 36.279 0 0 1-1.094-8.826c0-3.26.496-6.333 1.318-9.204h-11.13zm14.288 0c-.915 2.864-1.476 5.943-1.476 9.204 0 3.145.457 6.09 1.216 8.826H45.56v-18.03H31.779zm16.782-3h13.495c-3.726-8.773-10.472-15.096-13.495-17.623v17.623zm-3 0V34.526c-3.301 2.89-9.259 8.875-12.671 16.913h12.671zm0 41.995V75.469H32.497c3.333 8.836 9.645 15.069 13.064 17.965zm3-17.965v18.645c3.111-2.508 10.256-9.042 13.886-18.645H48.561zm0-21.03v18.03h14.868a32.773 32.773 0 0 0 1.22-8.826c0-3.261-.563-6.34-1.479-9.204H48.561zm28.079 0H66.33c.822 2.87 1.319 5.944 1.319 9.204 0 3.138-.408 6.08-1.094 8.826h10.376a30.96 30.96 0 0 0-.291-18.03zm-11.308-3h10.165c-4.096-9.28-12.601-16.186-22.848-18.054 3.829 3.53 9.526 9.792 12.683 18.054zm-35.713 0c3.211-8.403 9.046-14.731 12.873-18.227-10.696 1.586-19.627 8.644-23.857 18.227h10.984zm-.336 24.03H18.228c4.026 10.033 13.133 17.499 24.126 19.179-3.978-3.57-9.988-10.12-13.071-19.18zm36.386 0c-3.031 8.906-8.891 15.389-12.869 18.997 10.532-1.975 19.204-9.277 23.104-18.997H65.669z" fill="#1F2041"/><path d="M43 21c31 0 36.377 16.082 102.5 16.082 22 0 64.334-8.083 85.5-20.082" stroke="#1A648F" stroke-width="2.3"/><path d="M225.517 20.875l-4.529-5.322 1.373-.54 2.714 1.677 7.093-3.482-7.497-8.714 1.812-.94 11.08 6.984 6.781-3.318c.562-.293 1.123-.287 1.683.02.561.306.903.788 1.026 1.447.081.431.027.841-.163 1.23-.19.388-.473.676-.849.864l-20.524 10.094z" fill="#1A648F"/><path d="M43.5 21C20.58 21 2 39.58 2 62.5c0 11.285 4.505 21.519 11.814 29" stroke="#1A648F" stroke-width="2.3"/><circle cx="13" cy="91" r="2" fill="#1A648F"/></svg>