<svg width="180" height="60" viewBox="0 0 180 60" fill="none" xmlns="http://www.w3.org/2000/svg">
<g clip-path="url(#clip0_251_171)">
<path fill-rule="evenodd" clip-rule="evenodd" d="M46.9295 37.3483C46.0233 39.3477 45.5888 40.2406 44.4219 42.0071C42.7921 44.4742 40.4973 47.5465 37.6528 47.573C35.1257 47.5959 34.4767 45.9353 31.0469 45.9548C27.6172 45.9742 26.9007 47.6012 24.3718 47.5783C21.5273 47.5518 19.3531 44.7777 17.7234 42.3106C13.1693 35.4106 12.6922 27.3142 15.5013 23.01C17.4982 19.9518 20.6459 18.1606 23.6075 18.1606C26.6223 18.1606 28.518 19.8053 31.0097 19.8053C33.4268 19.8053 34.9005 18.1571 38.387 18.1571C41.0223 18.1571 43.8136 19.5848 45.8016 22.0536C39.2861 25.6095 40.3448 34.8724 46.9295 37.3483Z" fill="black"/>
<path fill-rule="evenodd" clip-rule="evenodd" d="M35.7429 15.4041C37.0091 13.7876 37.9702 11.5023 37.6227 9.1676C35.5549 9.30878 33.1342 10.6182 31.7208 12.3264C30.4386 13.8758 29.3799 16.1753 29.7931 18.4094C32.0506 18.4782 34.3862 17.137 35.7429 15.4041Z" fill="black"/>
<path d="M61.2488 24.0098C63.4932 24.0098 65.038 22.8516 65.4675 20.8801H63.9089C63.5556 21.9899 62.5926 22.6379 61.2557 22.6379C59.4199 22.6379 58.2562 21.1696 58.2562 18.8466C58.2562 16.5442 59.4339 15.0621 61.2488 15.0621C62.5442 15.0621 63.5833 15.8273 63.9089 17.006H65.4675C65.135 15.0207 63.4517 13.6903 61.2488 13.6903C58.4571 13.6903 56.6698 15.6963 56.6698 18.8466C56.6698 22.0176 58.4432 24.0098 61.2488 24.0098Z" fill="black"/>
<path d="M69.7902 19.977L73.0183 16.5717H71.2311L68.3769 19.6736H68.3216V16.5717H66.8321V23.8235H68.3216V20.4803H68.3769L71.2656 23.8235H73.143L69.7902 19.977Z" fill="black"/>
<path d="M76.4543 22.7687C75.6507 22.7687 75.1242 22.3552 75.1242 21.721C75.1242 21.1005 75.63 20.7077 76.5236 20.6456L78.3177 20.5353V21.1074C78.3177 22.0519 77.5004 22.7687 76.4543 22.7687ZM76.0386 23.9475C76.9946 23.9475 77.9159 23.4374 78.3385 22.6309H78.3732V23.8235H79.807V18.8258C79.807 17.3713 78.6779 16.4407 76.9114 16.4407C75.1104 16.4407 73.9882 17.4057 73.905 18.7155H75.3182C75.4498 18.0675 75.9902 17.6539 76.8561 17.6539C77.7705 17.6539 78.3177 18.1364 78.3177 18.943V19.5014L76.3227 19.6185C74.5908 19.7151 73.6142 20.494 73.6142 21.7623C73.6142 23.0652 74.6117 23.9475 76.0386 23.9475Z" fill="black"/>
<path d="M87.261 23.8235V16.5717H85.7784V19.4255C85.4738 19.7839 84.9265 20.0873 84.1159 20.0873C83.1946 20.0873 82.7028 19.522 82.7028 18.619V16.5717H81.2133V18.7293C81.2133 20.3147 82.1625 21.3557 83.8804 21.3557C84.6839 21.3557 85.2867 21.1074 85.6814 20.7353H85.7784V23.8235H87.261Z" fill="black"/>
<path d="M90.3506 23.8235L93.7172 18.7293H93.7726V23.8235H95.2482V16.5717H93.7726L90.4059 21.652H90.3506V16.5717H88.875V23.8235H90.3506Z" fill="black"/>
<path d="M99.8617 17.6539C100.589 17.6539 100.984 17.9917 100.984 18.5915C100.984 19.2324 100.561 19.5564 99.7163 19.5564H98.3309V17.6539H99.8617ZM99.8133 20.5974C100.797 20.5974 101.282 20.9559 101.282 21.6727C101.282 22.369 100.825 22.7412 99.9795 22.7412H98.3309V20.5974H99.8133ZM96.8553 23.8235H100.208C101.788 23.8235 102.771 23.0101 102.771 21.7348C102.771 20.8249 102.148 20.1631 101.206 20.0391V19.9839C101.905 19.8529 102.446 19.1705 102.446 18.4191C102.446 17.2748 101.587 16.5717 100.167 16.5717H96.8553V23.8235Z" fill="black"/>
<path d="M106.658 22.7687C105.854 22.7687 105.327 22.3552 105.327 21.721C105.327 21.1005 105.833 20.7077 106.727 20.6456L108.521 20.5353V21.1074C108.521 22.0519 107.703 22.7687 106.658 22.7687ZM106.242 23.9475C107.198 23.9475 108.119 23.4374 108.542 22.6309H108.576V23.8235H110.01V18.8258C110.01 17.3713 108.881 16.4407 107.115 16.4407C105.314 16.4407 104.191 17.4057 104.108 18.7155H105.521C105.653 18.0675 106.193 17.6539 107.059 17.6539C107.974 17.6539 108.521 18.1364 108.521 18.943V19.5014L106.526 19.6185C104.794 19.7151 103.817 20.494 103.817 21.7623C103.817 23.0652 104.815 23.9475 106.242 23.9475Z" fill="black"/>
<path d="M113.058 23.8235L116.425 18.7294H116.48V23.8235H117.956V16.5717H116.48L113.114 21.6521H113.058V16.5717H111.583V23.8235H113.058ZM112.573 13.387C112.573 14.6898 113.502 15.5722 114.873 15.5722C116.252 15.5722 117.18 14.6898 117.18 13.387H116.169C116.162 14.1659 115.663 14.7587 114.873 14.7587C114.091 14.7587 113.592 14.1659 113.585 13.387H112.573Z" fill="black"/>
<path d="M125.105 16.5717H119.043V17.7504H121.33V23.8235H122.819V17.7504H125.105V16.5717Z" fill="black"/>
<path d="M129.116 17.6401C130.162 17.6401 130.868 18.4191 130.903 19.5289H127.259C127.336 18.4328 128.07 17.6401 129.116 17.6401ZM130.896 21.6935C130.695 22.3275 130.065 22.755 129.213 22.755C128.014 22.755 127.252 21.921 127.252 20.6594V20.5697H132.399V20.0597C132.399 17.8607 131.139 16.4407 129.116 16.4407C127.059 16.4407 125.742 17.9572 125.742 20.232C125.742 22.5206 127.038 23.9613 129.178 23.9613C130.848 23.9613 132.108 23.017 132.316 21.6935H130.896Z" fill="black"/>
<path d="M139.569 17.6539C140.297 17.6539 140.692 17.9917 140.692 18.5915C140.692 19.2324 140.269 19.5564 139.424 19.5564H138.038V17.6539H139.569ZM139.521 20.5974C140.504 20.5974 140.989 20.9559 140.989 21.6727C140.989 22.369 140.532 22.7412 139.687 22.7412H138.038V20.5974H139.521ZM136.563 23.8235H139.916C141.495 23.8235 142.479 23.0101 142.479 21.7348C142.479 20.8249 141.855 20.1631 140.913 20.0391V19.9839C141.613 19.8529 142.153 19.1705 142.153 18.4191C142.153 17.2748 141.294 16.5717 139.874 16.5717H136.563V23.8235Z" fill="black"/>
<path d="M68.1727 47.1985H71.1599L64.5929 29.24H61.5424L54.9754 47.1985H57.9123L59.5761 42.3449H66.5089L68.1727 47.1985ZM63.0046 32.2268H63.0803L65.7903 40.1048H60.2947L63.0046 32.2268Z" fill="black"/>
<path d="M79.718 33.8944C77.8022 33.8944 76.2769 34.8528 75.4954 36.3586H75.445V34.106H72.8106V51.5295H75.5333V45.0454H75.5963C76.3526 46.5016 77.8652 47.4225 79.7686 47.4225C83.0962 47.4225 85.3021 44.7966 85.3021 40.6524C85.3021 36.5079 83.0836 33.8944 79.718 33.8944ZM78.9996 45.1449C76.9072 45.1449 75.5207 43.3778 75.5207 40.6524C75.5207 37.9516 76.9198 36.1596 78.9996 36.1596C81.155 36.1596 82.5037 37.9142 82.5037 40.6524C82.5037 43.4026 81.155 45.1449 78.9996 45.1449Z" fill="black"/>
<path d="M94.2886 33.8944C92.3728 33.8944 90.8475 34.8528 90.066 36.3586H90.0156V34.106H87.3812V51.5295H90.1039V45.0454H90.1669C90.9232 46.5016 92.4358 47.4225 94.3392 47.4225C97.6668 47.4225 99.8727 44.7966 99.8727 40.6524C99.8727 36.5079 97.6542 33.8944 94.2886 33.8944ZM93.5702 45.1449C91.4778 45.1449 90.0913 43.3778 90.0913 40.6524C90.0913 37.9516 91.4904 36.1596 93.5702 36.1596C95.7256 36.1596 97.0743 37.9142 97.0743 40.6524C97.0743 43.4026 95.7256 45.1449 93.5702 45.1449Z" fill="black"/>
<path d="M106.691 42.1953C106.867 45.4436 109.59 47.497 113.623 47.497C117.934 47.497 120.644 45.3939 120.644 42.0337C120.644 39.4076 119.094 37.9267 115.363 37.0555L113.359 36.5702C111.014 35.9977 110.056 35.2509 110.056 33.9815C110.056 32.3885 111.556 31.2933 113.749 31.2933C115.943 31.2933 117.443 32.376 117.607 34.1682H120.354C120.266 31.0694 117.632 28.9412 113.787 28.9412C109.905 28.9412 107.17 31.0694 107.17 34.1682C107.17 36.6697 108.72 38.2129 112.06 39.0093L114.417 39.5695C116.775 40.1419 117.77 40.9758 117.77 42.3697C117.77 43.975 116.119 45.1449 113.825 45.1449C111.43 45.1449 109.678 43.975 109.476 42.1953H106.691Z" fill="black"/>
<path d="M123.618 31.0071V34.1059H121.69V36.2341H123.618V43.7511C123.618 46.2774 124.665 47.2856 127.349 47.2856C127.954 47.2856 128.559 47.2357 128.862 47.161V45.033C128.685 45.0702 128.244 45.0951 127.967 45.0951C126.858 45.0951 126.354 44.5849 126.354 43.4523V36.2341H128.875V34.1059H126.354V31.0071H123.618Z" fill="black"/>
<path d="M136.462 47.4473C140.256 47.4473 142.752 44.8712 142.752 40.6523C142.752 36.4458 140.244 33.8695 136.462 33.8695C132.681 33.8695 130.172 36.4458 130.172 40.6523C130.172 44.8712 132.668 47.4473 136.462 47.4473ZM136.462 45.2321C134.332 45.2321 132.945 43.5644 132.945 40.6523C132.945 37.7526 134.332 36.0847 136.462 36.0847C138.592 36.0847 139.979 37.7526 139.979 40.6523C139.979 43.5644 138.605 45.2321 136.462 45.2321Z" fill="black"/>
<path d="M144.831 47.1985H147.554V39.3579C147.554 37.5036 148.638 36.3461 150.39 36.3461C150.919 36.3461 151.398 36.4084 151.612 36.4956V33.9941C151.411 33.9567 151.071 33.8944 150.68 33.8944C149.117 33.8944 147.932 34.8031 147.491 36.3338H147.428V34.106H144.831V47.1985Z" fill="black"/>
<path d="M158.242 36.035C160.145 36.035 161.431 37.4413 161.494 39.4451H154.864C155.003 37.4663 156.339 36.035 158.242 36.035ZM161.481 43.3529C161.116 44.4978 159.969 45.2695 158.418 45.2695C156.238 45.2695 154.851 43.7635 154.851 41.4862V41.3243H164.217V40.4033C164.217 36.4333 161.923 33.8695 158.242 33.8695C154.498 33.8695 152.104 36.6074 152.104 40.7144C152.104 44.8463 154.461 47.4473 158.355 47.4473C161.393 47.4473 163.687 45.7424 164.065 43.3529H161.481Z" fill="black"/>
<path d="M168.897 2.47059C172.133 2.47059 174.33 3.08471 175.613 4.34471C176.895 5.60647 177.517 7.77353 177.517 10.9694V49.0888C177.517 52.2759 176.897 54.4306 175.62 55.6765C174.343 56.9224 172.144 57.5294 168.897 57.5294H10.9827C7.75685 57.5294 5.58266 56.9294 4.33596 55.6924C3.08926 54.4571 2.48276 52.3006 2.48276 49.0994V10.9694C2.48276 7.30412 2.88532 5.28706 3.82699 4.21941C4.88217 3.02647 7.15921 2.46882 10.9933 2.46882H168.897V2.47059ZM168.897 0H10.9933C1.56946 0 0 3.24706 0 10.9694V49.0994C0 56.8165 3.22759 60 10.9827 60H168.899C176.659 60 180 56.8112 180 49.0888V10.9694C180 3.24706 176.657 0 168.897 0Z" fill="black"/>
</g>
<defs>
<clipPath id="clip0_251_171">
<rect width="180" height="60" fill="white"/>
</clipPath>
</defs>
</svg>
