<svg width="34" height="9" viewBox="0 0 34 9" fill="none" xmlns="http://www.w3.org/2000/svg">
<path d="M1 4C0.723858 4 0.5 4.22386 0.5 4.5C0.5 4.77614 0.723858 5 1 5V4ZM33.3536 4.85355C33.5488 4.65829 33.5488 4.34171 33.3536 4.14645L30.1716 0.964466C29.9763 0.769204 29.6597 0.769204 29.4645 0.964466C29.2692 1.15973 29.2692 1.47631 29.4645 1.67157L32.2929 4.5L29.4645 7.32843C29.2692 7.52369 29.2692 7.84027 29.4645 8.03553C29.6597 8.2308 29.9763 8.2308 30.1716 8.03553L33.3536 4.85355ZM1 5H33V4H1V5Z" fill="#0E5E6F"/>
</svg>
