<svg width="65" height="23" viewBox="0 0 65 23" fill="none" xmlns="http://www.w3.org/2000/svg">
<g filter="url(#filter0_d_492_721)">
<path d="M4.962 18V5.4H10.38C11.748 5.4 12.822 5.676 13.602 6.228C14.382 6.78 14.772 7.584 14.772 8.64C14.772 9.672 14.4 10.464 13.656 11.016C12.912 11.556 11.934 11.826 10.722 11.826L11.046 11.286C12.45 11.286 13.524 11.568 14.268 12.132C15.024 12.684 15.402 13.494 15.402 14.562C15.402 15.642 15.006 16.488 14.214 17.1C13.434 17.7 12.27 18 10.722 18H4.962ZM6.744 16.578H10.686C11.646 16.578 12.366 16.404 12.846 16.056C13.338 15.696 13.584 15.15 13.584 14.418C13.584 13.686 13.338 13.152 12.846 12.816C12.366 12.48 11.646 12.312 10.686 12.312H6.744V16.578ZM6.744 10.944H10.254C11.13 10.944 11.796 10.77 12.252 10.422C12.72 10.074 12.954 9.564 12.954 8.892C12.954 8.208 12.72 7.692 12.252 7.344C11.796 6.996 11.13 6.822 10.254 6.822H6.744V10.944ZM22.2073 18.108C21.2473 18.108 20.3953 17.898 19.6513 17.478C18.9073 17.058 18.3193 16.482 17.8873 15.75C17.4553 15.006 17.2393 14.166 17.2393 13.23C17.2393 12.282 17.4553 11.442 17.8873 10.71C18.3193 9.978 18.9073 9.408 19.6513 9C20.3953 8.58 21.2473 8.37 22.2073 8.37C23.1553 8.37 24.0013 8.58 24.7453 9C25.5013 9.408 26.0893 9.978 26.5093 10.71C26.9413 11.43 27.1573 12.27 27.1573 13.23C27.1573 14.178 26.9413 15.018 26.5093 15.75C26.0893 16.482 25.5013 17.058 24.7453 17.478C24.0013 17.898 23.1553 18.108 22.2073 18.108ZM22.2073 16.596C22.8193 16.596 23.3653 16.458 23.8453 16.182C24.3373 15.906 24.7213 15.516 24.9973 15.012C25.2733 14.496 25.4113 13.902 25.4113 13.23C25.4113 12.546 25.2733 11.958 24.9973 11.466C24.7213 10.962 24.3373 10.572 23.8453 10.296C23.3653 10.02 22.8193 9.882 22.2073 9.882C21.5953 9.882 21.0493 10.02 20.5693 10.296C20.0893 10.572 19.7053 10.962 19.4173 11.466C19.1293 11.958 18.9853 12.546 18.9853 13.23C18.9853 13.902 19.1293 14.496 19.4173 15.012C19.7053 15.516 20.0893 15.906 20.5693 16.182C21.0493 16.458 21.5953 16.596 22.2073 16.596ZM29.6525 18V8.46H31.3805V15.408L37.2305 8.46H38.7965V18H37.0685V11.052L31.2365 18H29.6525ZM34.1165 7.218C33.2405 7.218 32.5505 7.008 32.0465 6.588C31.5545 6.156 31.3025 5.538 31.2905 4.734H32.4605C32.4725 5.19 32.6225 5.55 32.9105 5.814C33.2105 6.078 33.6065 6.21 34.0985 6.21C34.5905 6.21 34.9865 6.078 35.2865 5.814C35.5865 5.55 35.7425 5.19 35.7545 4.734H36.9605C36.9485 5.538 36.6905 6.156 36.1865 6.588C35.6825 7.008 34.9925 7.218 34.1165 7.218ZM44.0406 18V9.522L44.4726 9.972H40.5486V8.46H49.2606V9.972H45.3546L45.7686 9.522V18H44.0406ZM51.0275 18V8.46H52.7555V15.408L58.6055 8.46H60.1715V18H58.4435V11.052L52.6115 18H51.0275Z" fill="#007895"/>
</g>
<defs>
<filter id="filter0_d_492_721" x="0.961914" y="0.734009" width="63.2097" height="21.374" filterUnits="userSpaceOnUse" color-interpolation-filters="sRGB">
<feFlood flood-opacity="0" result="BackgroundImageFix"/>
<feColorMatrix in="SourceAlpha" type="matrix" values="0 0 0 0 0 0 0 0 0 0 0 0 0 0 0 0 0 0 127 0" result="hardAlpha"/>
<feOffset/>
<feGaussianBlur stdDeviation="2"/>
<feComposite in2="hardAlpha" operator="out"/>
<feColorMatrix type="matrix" values="0 0 0 0 0 0 0 0 0 0.470588 0 0 0 0 0.584314 0 0 0 0.4 0"/>
<feBlend mode="normal" in2="BackgroundImageFix" result="effect1_dropShadow_492_721"/>
<feBlend mode="normal" in="SourceGraphic" in2="effect1_dropShadow_492_721" result="shape"/>
</filter>
</defs>
</svg>
