<svg width="57" height="15" viewBox="0 0 57 15" fill="none" xmlns="http://www.w3.org/2000/svg">
<path d="M0.962 14V1.4H6.38C7.748 1.4 8.822 1.676 9.602 2.228C10.382 2.78 10.772 3.584 10.772 4.64C10.772 5.672 10.4 6.464 9.656 7.016C8.912 7.556 7.934 7.826 6.722 7.826L7.046 7.286C8.45 7.286 9.524 7.568 10.268 8.132C11.024 8.684 11.402 9.494 11.402 10.562C11.402 11.642 11.006 12.488 10.214 13.1C9.434 13.7 8.27 14 6.722 14H0.962ZM2.744 12.578H6.686C7.646 12.578 8.366 12.404 8.846 12.056C9.338 11.696 9.584 11.15 9.584 10.418C9.584 9.686 9.338 9.152 8.846 8.816C8.366 8.48 7.646 8.312 6.686 8.312H2.744V12.578ZM2.744 6.944H6.254C7.13 6.944 7.796 6.77 8.252 6.422C8.72 6.074 8.954 5.564 8.954 4.892C8.954 4.208 8.72 3.692 8.252 3.344C7.796 2.996 7.13 2.822 6.254 2.822H2.744V6.944ZM18.2073 14.108C17.2473 14.108 16.3953 13.898 15.6513 13.478C14.9073 13.058 14.3193 12.482 13.8873 11.75C13.4553 11.006 13.2393 10.166 13.2393 9.23C13.2393 8.282 13.4553 7.442 13.8873 6.71C14.3193 5.978 14.9073 5.408 15.6513 5C16.3953 4.58 17.2473 4.37 18.2073 4.37C19.1553 4.37 20.0013 4.58 20.7453 5C21.5013 5.408 22.0893 5.978 22.5093 6.71C22.9413 7.43 23.1573 8.27 23.1573 9.23C23.1573 10.178 22.9413 11.018 22.5093 11.75C22.0893 12.482 21.5013 13.058 20.7453 13.478C20.0013 13.898 19.1553 14.108 18.2073 14.108ZM18.2073 12.596C18.8193 12.596 19.3653 12.458 19.8453 12.182C20.3373 11.906 20.7213 11.516 20.9973 11.012C21.2733 10.496 21.4113 9.902 21.4113 9.23C21.4113 8.546 21.2733 7.958 20.9973 7.466C20.7213 6.962 20.3373 6.572 19.8453 6.296C19.3653 6.02 18.8193 5.882 18.2073 5.882C17.5953 5.882 17.0493 6.02 16.5693 6.296C16.0893 6.572 15.7053 6.962 15.4173 7.466C15.1293 7.958 14.9853 8.546 14.9853 9.23C14.9853 9.902 15.1293 10.496 15.4173 11.012C15.7053 11.516 16.0893 11.906 16.5693 12.182C17.0493 12.458 17.5953 12.596 18.2073 12.596ZM25.6525 14V4.46H27.3805V11.408L33.2305 4.46H34.7965V14H33.0685V7.052L27.2365 14H25.6525ZM30.1165 3.218C29.2405 3.218 28.5505 3.008 28.0465 2.588C27.5545 2.156 27.3025 1.538 27.2905 0.733999H28.4605C28.4725 1.19 28.6225 1.55 28.9105 1.814C29.2105 2.078 29.6065 2.21 30.0985 2.21C30.5905 2.21 30.9865 2.078 31.2865 1.814C31.5865 1.55 31.7425 1.19 31.7545 0.733999H32.9605C32.9485 1.538 32.6905 2.156 32.1865 2.588C31.6825 3.008 30.9925 3.218 30.1165 3.218ZM40.0406 14V5.522L40.4726 5.972H36.5486V4.46H45.2606V5.972H41.3546L41.7686 5.522V14H40.0406ZM47.0275 14V4.46H48.7555V11.408L54.6055 4.46H56.1715V14H54.4435V7.052L48.6115 14H47.0275Z" fill="#828282"/>
</svg>
