<svg width="200" height="200" viewBox="0 0 200 200" fill="none" xmlns="http://www.w3.org/2000/svg">
<rect width="200" height="200" fill="white"/>
<path d="M33.139 113.796V86.061C33.139 85.6883 33.354 85.3873 33.784 85.158C34.2427 84.9 34.7443 84.771 35.289 84.771C35.891 84.771 36.2923 84.943 36.493 85.287L46.641 100.294L56.832 85.287C57.0327 84.943 57.391 84.771 57.907 84.771C58.423 84.771 58.9247 84.9 59.412 85.158C59.8993 85.416 60.143 85.717 60.143 86.061V113.796C60.143 114.169 59.9853 114.47 59.67 114.699C59.3547 114.9 58.982 115 58.552 115C57.4913 115 56.961 114.599 56.961 113.796V90.705L49.135 102.057C48.447 103.06 47.6013 103.562 46.598 103.562C45.6807 103.562 44.8637 103.06 44.147 102.057L36.321 90.705V113.796C36.321 114.169 36.1633 114.47 35.848 114.699C35.5327 114.9 35.16 115 34.73 115C33.6693 115 33.139 114.599 33.139 113.796ZM65.6218 106.228V94.618C65.6218 94.2453 65.7651 93.9587 66.0518 93.758C66.3671 93.5287 66.7255 93.414 67.1268 93.414C68.1875 93.414 68.7178 93.8153 68.7178 94.618V105.841C68.7178 106.902 69.0045 107.848 69.5778 108.679C70.1511 109.51 70.8678 110.141 71.7278 110.571C72.6165 111.001 73.4765 111.331 74.3078 111.56C75.1678 111.761 75.9561 111.861 76.6728 111.861C78.7081 111.861 80.6288 111.23 82.4348 109.969C84.2408 108.708 85.5165 107.031 86.2618 104.938V94.618C86.2618 93.844 86.8065 93.457 87.8958 93.457C88.3258 93.457 88.6841 93.5573 88.9708 93.758C89.2861 93.9587 89.4438 94.2453 89.4438 94.618V115.215C89.4438 116.906 89.0568 118.454 88.2828 119.859C87.5375 121.292 86.5628 122.439 85.3588 123.299C84.1548 124.159 82.8505 124.818 81.4458 125.277C80.0411 125.736 78.6508 125.965 77.2748 125.965C74.9241 125.965 72.6165 125.42 70.3518 124.331C68.1158 123.242 66.9835 121.78 66.9548 119.945C66.9548 119.486 67.0981 119.128 67.3848 118.87C67.7001 118.641 68.0728 118.526 68.5028 118.526C68.9615 118.526 69.3628 118.655 69.7068 118.913C70.0508 119.171 70.2228 119.501 70.2228 119.902C70.2228 120.819 71.0398 121.522 72.6738 122.009C74.3078 122.525 75.9131 122.783 77.4898 122.783C78.7798 122.783 80.0555 122.539 81.3168 122.052C82.6068 121.593 83.7535 120.776 84.7568 119.601C85.7601 118.454 86.2618 117.093 86.2618 115.516V110.528C83.6531 113.509 80.3278 115 76.2858 115C73.4765 115 70.9968 114.197 68.8468 112.592C66.6968 110.958 65.6218 108.837 65.6218 106.228Z" fill="#238F9B"/>
<path d="M95.1615 113.796V86.061C95.1615 85.287 95.7061 84.9 96.7955 84.9C97.2255 84.9 97.5838 85.0003 97.8705 85.201C98.1858 85.4017 98.3435 85.6883 98.3435 86.061V96.553H116.575V86.061C116.575 85.287 117.12 84.9 118.209 84.9C118.639 84.9 118.998 85.0003 119.284 85.201C119.6 85.4017 119.757 85.6883 119.757 86.061V113.796C119.757 114.169 119.6 114.47 119.284 114.699C118.969 114.9 118.596 115 118.166 115C117.106 115 116.575 114.599 116.575 113.796V99.735H98.3435V113.796C98.3435 114.169 98.1858 114.47 97.8705 114.699C97.5551 114.9 97.1825 115 96.7525 115C95.6918 115 95.1615 114.599 95.1615 113.796ZM124.521 104.336C124.521 101.871 125.166 99.7493 126.456 97.972C127.774 96.166 129.351 94.8617 131.186 94.059C133.049 93.2563 134.998 92.855 137.034 92.855C139.9 92.855 142.538 93.9443 144.946 96.123C147.382 98.273 148.601 100.996 148.601 104.293C148.601 107.418 147.526 110.098 145.376 112.334C143.226 114.541 140.416 115.645 136.948 115.645C133.536 115.645 130.612 114.541 128.176 112.334C125.739 110.098 124.521 107.432 124.521 104.336ZM127.703 104.379C127.703 106.414 128.634 108.278 130.498 109.969C132.361 111.632 134.525 112.463 136.991 112.463C139.313 112.463 141.291 111.617 142.925 109.926C144.587 108.235 145.419 106.357 145.419 104.293C145.419 102.286 144.63 100.409 143.054 98.66C141.477 96.9113 139.442 96.037 136.948 96.037C134.024 96.037 131.745 96.9257 130.111 98.703C128.505 100.48 127.703 102.372 127.703 104.379ZM151.175 95.091C151.175 94.661 151.275 94.2883 151.476 93.973C151.705 93.6577 152.006 93.5 152.379 93.5H153.841V88.211C153.841 87.8383 153.984 87.5517 154.271 87.351C154.586 87.1503 154.959 87.05 155.389 87.05C156.478 87.05 157.023 87.437 157.023 88.211V93.5H163.903C164.275 93.5 164.562 93.6577 164.763 93.973C164.963 94.2597 165.064 94.618 165.064 95.048C165.064 96.1373 164.677 96.682 163.903 96.682H157.023V106.959C157.023 110.17 158.241 111.775 160.678 111.775C161.71 111.775 162.598 111.488 163.344 110.915C164.118 110.342 164.505 109.338 164.505 107.905C164.505 107.504 164.662 107.174 164.978 106.916C165.322 106.658 165.723 106.529 166.182 106.529C166.612 106.529 166.97 106.658 167.257 106.916C167.543 107.145 167.687 107.489 167.687 107.948C167.658 110.213 166.97 111.947 165.623 113.151C164.304 114.355 162.656 114.957 160.678 114.957C156.12 114.957 153.841 111.904 153.841 105.798V96.682H152.379C151.576 96.682 151.175 96.1517 151.175 95.091Z" fill="#094451"/>
</svg>
