<svg width="130" height="22" viewBox="0 0 130 22" fill="none" xmlns="http://www.w3.org/2000/svg">
<path d="M33.124 17V4.4H38.362C39.694 4.4 40.738 4.676 41.494 5.228C42.262 5.768 42.646 6.566 42.646 7.622C42.646 8.666 42.28 9.458 41.548 9.998C40.816 10.526 39.856 10.79 38.668 10.79L38.974 10.34C40.378 10.34 41.446 10.616 42.178 11.168C42.91 11.72 43.276 12.53 43.276 13.598C43.276 14.678 42.892 15.518 42.124 16.118C41.368 16.706 40.228 17 38.704 17H33.124ZM34.438 15.938H38.704C39.772 15.938 40.582 15.74 41.134 15.344C41.686 14.948 41.962 14.336 41.962 13.508C41.962 12.692 41.686 12.092 41.134 11.708C40.582 11.324 39.772 11.132 38.704 11.132H34.438V15.938ZM34.438 10.106H38.29C39.262 10.106 40.006 9.914 40.522 9.53C41.05 9.134 41.314 8.552 41.314 7.784C41.314 7.016 41.05 6.44 40.522 6.056C40.006 5.66 39.262 5.462 38.29 5.462H34.438V10.106ZM50.3504 17.09C49.3664 17.09 48.5024 16.886 47.7584 16.478C47.0144 16.058 46.4324 15.488 46.0124 14.768C45.5924 14.036 45.3824 13.202 45.3824 12.266C45.3824 11.33 45.5804 10.502 45.9764 9.782C46.3844 9.062 46.9364 8.498 47.6324 8.09C48.3404 7.67 49.1324 7.46 50.0084 7.46C50.8964 7.46 51.6824 7.664 52.3664 8.072C53.0624 8.468 53.6084 9.032 54.0044 9.764C54.4004 10.484 54.5984 11.318 54.5984 12.266C54.5984 12.326 54.5924 12.392 54.5804 12.464C54.5804 12.524 54.5804 12.59 54.5804 12.662H46.3544V11.708H53.8964L53.3924 12.086C53.3924 11.402 53.2424 10.796 52.9424 10.268C52.6544 9.728 52.2584 9.308 51.7544 9.008C51.2504 8.708 50.6684 8.558 50.0084 8.558C49.3604 8.558 48.7784 8.708 48.2624 9.008C47.7464 9.308 47.3444 9.728 47.0564 10.268C46.7684 10.808 46.6244 11.426 46.6244 12.122V12.32C46.6244 13.04 46.7804 13.676 47.0924 14.228C47.4164 14.768 47.8604 15.194 48.4244 15.506C49.0004 15.806 49.6544 15.956 50.3864 15.956C50.9624 15.956 51.4964 15.854 51.9884 15.65C52.4924 15.446 52.9244 15.134 53.2844 14.714L54.0044 15.542C53.5844 16.046 53.0564 16.43 52.4204 16.694C51.7964 16.958 51.1064 17.09 50.3504 17.09ZM62.3054 17.09C61.4894 17.09 60.7514 16.904 60.0914 16.532C59.4314 16.148 58.9034 15.602 58.5074 14.894C58.1234 14.174 57.9314 13.298 57.9314 12.266C57.9314 11.234 58.1234 10.364 58.5074 9.656C58.8914 8.936 59.4134 8.39 60.0734 8.018C60.7334 7.646 61.4774 7.46 62.3054 7.46C63.2054 7.46 64.0094 7.664 64.7174 8.072C65.4374 8.468 66.0014 9.032 66.4094 9.764C66.8174 10.484 67.0214 11.318 67.0214 12.266C67.0214 13.226 66.8174 14.066 66.4094 14.786C66.0014 15.506 65.4374 16.07 64.7174 16.478C64.0094 16.886 63.2054 17.09 62.3054 17.09ZM57.4274 20.492V7.55H58.6514V10.394L58.5254 12.284L58.7054 14.192V20.492H57.4274ZM62.2154 15.956C62.8874 15.956 63.4874 15.806 64.0154 15.506C64.5434 15.194 64.9634 14.762 65.2754 14.21C65.5874 13.646 65.7434 12.998 65.7434 12.266C65.7434 11.534 65.5874 10.892 65.2754 10.34C64.9634 9.788 64.5434 9.356 64.0154 9.044C63.4874 8.732 62.8874 8.576 62.2154 8.576C61.5434 8.576 60.9374 8.732 60.3974 9.044C59.8694 9.356 59.4494 9.788 59.1374 10.34C58.8374 10.892 58.6874 11.534 58.6874 12.266C58.6874 12.998 58.8374 13.646 59.1374 14.21C59.4494 14.762 59.8694 15.194 60.3974 15.506C60.9374 15.806 61.5434 15.956 62.2154 15.956ZM69.7672 17V7.55H71.0452V11.726H77.0032V7.55H78.2812V17H77.0032V12.824H71.0452V17H69.7672ZM82.0757 20.582C81.6317 20.582 81.2057 20.51 80.7977 20.366C80.4017 20.222 80.0597 20.006 79.7717 19.718L80.3657 18.764C80.6057 18.992 80.8637 19.166 81.1397 19.286C81.4277 19.418 81.7457 19.484 82.0937 19.484C82.5137 19.484 82.8737 19.364 83.1737 19.124C83.4857 18.896 83.7797 18.488 84.0557 17.9L84.6677 16.514L84.8117 16.316L88.6997 7.55H89.9597L85.2257 18.134C84.9617 18.746 84.6677 19.232 84.3437 19.592C84.0317 19.952 83.6897 20.204 83.3177 20.348C82.9457 20.504 82.5317 20.582 82.0757 20.582ZM84.5957 17.27L80.2397 7.55H81.5717L85.4237 16.226L84.5957 17.27ZM93.7508 17V8.324L94.0748 8.666H90.1688V7.55H98.6108V8.666H94.7048L95.0288 8.324V17H93.7508ZM104.527 10.88C105.715 10.892 106.615 11.156 107.227 11.672C107.851 12.188 108.163 12.932 108.163 13.904C108.163 14.912 107.827 15.686 107.155 16.226C106.495 16.766 105.535 17.03 104.275 17.018L100.459 17V7.55H101.737V10.844L104.527 10.88ZM104.203 16.046C105.079 16.058 105.739 15.884 106.183 15.524C106.639 15.152 106.867 14.612 106.867 13.904C106.867 13.196 106.645 12.68 106.201 12.356C105.757 12.02 105.091 11.846 104.203 11.834L101.737 11.798V16.01L104.203 16.046ZM114.561 17.09C113.625 17.09 112.785 16.886 112.041 16.478C111.309 16.058 110.733 15.488 110.313 14.768C109.893 14.036 109.683 13.202 109.683 12.266C109.683 11.318 109.893 10.484 110.313 9.764C110.733 9.044 111.309 8.48 112.041 8.072C112.785 7.664 113.625 7.46 114.561 7.46C115.365 7.46 116.091 7.616 116.739 7.928C117.387 8.24 117.897 8.708 118.269 9.332L117.315 9.98C116.991 9.5 116.589 9.146 116.109 8.918C115.629 8.69 115.107 8.576 114.543 8.576C113.871 8.576 113.265 8.732 112.725 9.044C112.185 9.344 111.759 9.77 111.447 10.322C111.135 10.874 110.979 11.522 110.979 12.266C110.979 13.01 111.135 13.658 111.447 14.21C111.759 14.762 112.185 15.194 112.725 15.506C113.265 15.806 113.871 15.956 114.543 15.956C115.107 15.956 115.629 15.842 116.109 15.614C116.589 15.386 116.991 15.038 117.315 14.57L118.269 15.218C117.897 15.83 117.387 16.298 116.739 16.622C116.091 16.934 115.365 17.09 114.561 17.09ZM126.529 17V13.598L126.763 13.868H123.559C122.347 13.868 121.399 13.604 120.715 13.076C120.031 12.548 119.689 11.78 119.689 10.772C119.689 9.692 120.055 8.888 120.787 8.36C121.519 7.82 122.497 7.55 123.721 7.55H127.699V17H126.529ZM119.617 17L122.209 13.364H123.541L121.003 17H119.617ZM126.529 13.22V8.288L126.763 8.666H123.757C122.881 8.666 122.197 8.834 121.705 9.17C121.225 9.506 120.985 10.052 120.985 10.808C120.985 12.212 121.879 12.914 123.667 12.914H126.763L126.529 13.22Z" fill="#007895"/>
<path d="M21 12.5C21.2761 12.5 21.5 12.2761 21.5 12C21.5 11.7239 21.2761 11.5 21 11.5V12.5ZM0.646446 11.6464C0.451185 11.8417 0.451185 12.1583 0.646446 12.3536L3.82843 15.5355C4.02369 15.7308 4.34027 15.7308 4.53553 15.5355C4.7308 15.3403 4.7308 15.0237 4.53553 14.8284L1.70711 12L4.53553 9.17157C4.7308 8.97631 4.7308 8.65973 4.53553 8.46447C4.34027 8.2692 4.02369 8.2692 3.82843 8.46447L0.646446 11.6464ZM21 11.5L1 11.5V12.5L21 12.5V11.5Z" fill="#007895"/>
</svg>
