<svg width="180" height="60" viewBox="0 0 180 60" fill="none" xmlns="http://www.w3.org/2000/svg">
<g clip-path="url(#clip0_251_194)">
<path d="M168.897 2.47059C172.133 2.47059 174.33 3.08471 175.613 4.34471C176.895 5.60647 177.517 7.77353 177.517 10.9694V49.0888C177.517 52.2759 176.897 54.4306 175.62 55.6765C174.343 56.9224 172.144 57.5294 168.897 57.5294H10.9809C7.75507 57.5294 5.58087 56.9294 4.33417 55.6924C3.08747 54.4571 2.48099 52.3006 2.48099 49.0994V10.9694C2.48099 7.30412 2.88353 5.28706 3.8252 4.21941C4.88038 3.02647 7.15744 2.46882 10.9915 2.46882H168.897V2.47059ZM168.897 0H10.9933C1.56946 0 0 3.24706 0 10.9694V49.0994C0 56.8165 3.2276 60 10.9827 60H168.899C176.659 60 180 56.8112 180 49.0888V10.9694C180 3.24706 176.657 0 168.897 0Z" fill="black"/>
<path d="M90.6351 34.3347C87.4018 34.3347 84.8424 36.7469 84.8424 40.0989C84.8424 43.3163 87.4018 45.8633 90.6351 45.8633C93.8681 45.8633 96.4277 43.4512 96.4277 40.0989C96.4277 36.6138 93.8681 34.3347 90.6351 34.3347ZM90.6351 43.4494C88.8847 43.4494 87.4018 41.9755 87.4018 39.9643C87.4018 37.953 88.8829 36.4792 90.6351 36.4792C92.3854 36.4792 93.8682 37.82 93.8682 39.9643C93.8682 41.9755 92.387 43.4494 90.6351 43.4494ZM78.1087 34.3347C74.8754 34.3347 72.316 36.7469 72.316 40.0989C72.316 43.3163 74.8754 45.8633 78.1087 45.8633C81.3417 45.8633 83.9013 43.4512 83.9013 40.0989C83.8995 36.6138 81.3417 34.3347 78.1087 34.3347ZM78.1087 43.4494C76.3583 43.4494 74.8754 41.9755 74.8754 39.9643C74.8754 37.953 76.3565 36.4792 78.1087 36.4792C79.8606 36.4792 81.3417 37.82 81.3417 39.9643C81.3417 41.9755 79.8588 43.4494 78.1087 43.4494ZM63.1564 36.0782V38.4904H68.9491C68.8136 39.8312 68.2753 40.9024 67.6016 41.573C66.7942 42.3764 65.4468 43.3146 63.1564 43.3146C59.5204 43.3146 56.8256 40.4999 56.8256 36.8817C56.8256 33.2635 59.6541 30.4488 63.1564 30.4488C65.0421 30.4488 66.5232 31.2521 67.6016 32.1904L69.352 30.4488C67.8707 29.1078 65.985 28.0366 63.2901 28.0366C58.4402 28.0366 54.266 32.0573 54.266 36.8834C54.266 41.7094 58.442 45.7303 63.2901 45.7303C65.9832 45.7303 67.8691 44.9268 69.4857 43.1833C71.1021 41.5746 71.6405 39.2954 71.6405 37.5539C71.6405 37.0181 71.6405 36.4807 71.5051 36.08L63.1564 36.0782ZM124.309 37.9546C123.771 36.6138 122.423 34.3364 119.459 34.3364C116.495 34.3364 114.071 36.6156 114.071 40.1007C114.071 43.3181 116.495 45.8649 119.729 45.8649C122.288 45.8649 123.905 44.2564 124.443 43.3181L122.557 41.9773C121.883 42.9154 121.076 43.5858 119.729 43.5858C118.381 43.5858 117.574 43.0502 116.9 41.8442L124.578 38.6268L124.309 37.9546ZM116.497 39.8312C116.497 37.6869 118.247 36.4807 119.461 36.4807C120.404 36.4807 121.347 37.0165 121.616 37.6869L116.497 39.8312ZM110.166 45.3258H112.726V28.5704H110.166V45.3258ZM106.126 35.5409C105.452 34.8704 104.375 34.2 103.028 34.2C100.199 34.2 97.5059 36.7469 97.5059 39.9643C97.5059 43.1815 100.065 45.5937 103.028 45.5937C104.375 45.5937 105.452 44.9233 105.992 44.2529H106.127V45.0563C106.127 47.2006 104.915 48.4066 103.03 48.4066C101.548 48.4066 100.47 47.3337 100.201 46.3954L98.0459 47.3337C98.7196 48.8076 100.336 50.6842 103.165 50.6842C106.129 50.6842 108.553 48.9424 108.553 44.7869V34.599H106.129V35.5409H106.126ZM103.161 43.4494C101.411 43.4494 99.9282 41.9755 99.9282 39.9643C99.9282 37.953 101.409 36.4792 103.161 36.4792C104.913 36.4792 106.259 37.953 106.259 39.9643C106.259 41.9755 104.913 43.4494 103.161 43.4494ZM136.028 28.5722H129.966V45.3276H132.526V39.0277H136.028C138.857 39.0277 141.55 37.0165 141.55 33.8009C141.55 30.5852 138.857 28.5722 136.028 28.5722ZM136.164 36.6138H132.528V30.8496H136.164C138.049 30.8496 139.128 32.4583 139.128 33.6643C138.992 35.1399 137.914 36.6138 136.164 36.6138ZM151.652 34.2016C149.767 34.2016 147.881 35.0051 147.207 36.7486L149.497 37.6869C150.036 36.7486 150.845 36.4807 151.788 36.4807C153.135 36.4807 154.347 37.2842 154.481 38.625V38.7599C154.076 38.492 153 38.0894 151.921 38.0894C149.497 38.0894 147.072 39.4303 147.072 41.8424C147.072 44.1216 149.093 45.5954 151.248 45.5954C152.998 45.5954 153.807 44.792 154.481 43.9867H154.616V45.3276H157.04V38.8947C156.771 35.9434 154.481 34.2016 151.652 34.2016ZM151.383 43.4494C150.576 43.4494 149.362 43.0469 149.362 41.9755C149.362 40.6347 150.843 40.2337 152.055 40.2337C153.134 40.2337 153.672 40.5016 154.345 40.7695C154.078 42.378 152.731 43.4494 151.383 43.4494ZM165.526 34.6026L162.698 41.8407H162.564L159.6 34.6026H156.907L161.352 44.7902L158.792 50.4196H161.352L168.221 34.6026H165.526ZM142.897 45.3258H145.457V28.5704H142.897V45.3258Z" fill="black"/>
<path d="M61.4286 21.087C60.7306 21.8801 59.9145 22.2653 58.9283 22.2653C58.0462 22.2653 57.2925 21.9664 56.6883 21.3755C56.0839 20.7863 55.7784 19.9984 55.7784 19.0359C55.7784 18.0734 56.0839 17.2856 56.6883 16.6963C57.2925 16.1054 58.0462 15.8065 58.9283 15.8065C59.885 15.8065 60.6196 16.14 61.1716 16.8242L61.2915 16.9728L62.3107 15.9896L62.203 15.867C61.3679 14.9028 60.2652 14.4155 58.9265 14.4155C57.6259 14.4155 56.518 14.8613 55.636 15.7391C54.7539 16.6169 54.3059 17.7279 54.3059 19.0376C54.3059 20.3492 54.7539 21.4585 55.636 22.3362C56.518 23.214 57.6259 23.6598 58.9265 23.6598C59.6419 23.6598 60.3138 23.5163 60.9251 23.2331C61.5362 22.9496 62.0503 22.5591 62.4566 22.0735L62.5574 21.9526L61.5485 20.9486L61.4286 21.087Z" fill="black"/>
<path d="M73.4428 14.6539L70.241 23.0774L67.0217 18.5002L70.1855 14.8889V14.6539H68.4472L64.8025 18.7542V14.6539H63.4134V23.4661H64.8025V20.8969L65.9712 19.6009L68.7233 23.4661H70.0812H70.3382H71.6735L72.5104 21.2198H75.8651L76.6899 23.4661H78.2823L74.9222 14.6539H73.4428ZM75.3599 19.8375H73.0087L74.1843 16.6082L75.3599 19.8375Z" fill="black"/>
<path d="M83.2102 18.0476C82.8628 18.5555 82.2447 18.8043 81.5102 18.8043C81.0014 18.8043 80.5951 18.6712 80.3277 18.4087C80.0567 18.1425 79.911 17.7728 79.911 17.2769V14.6539H78.5219V17.4652C78.5219 18.2911 78.784 18.9582 79.338 19.4505C79.8867 19.9378 80.5673 20.1848 81.3816 20.1848C82.1336 20.1848 82.7464 19.9706 83.2519 19.5457L83.2118 19.8202V23.4661H84.7747V14.6539H83.2118V18.0476H83.2102Z" fill="black"/>
<path d="M87.2056 20.8761L87.2039 19.7617V14.6539H85.8148V23.4661H87.242L91.3799 16.8985L91.3712 17.9888V23.4661H92.7603V14.6539H91.1628L87.2056 20.8761Z" fill="black"/>
<path d="M99.0844 18.8752C99.3361 18.7162 99.548 18.5122 99.7181 18.2634C99.9491 17.9265 100.065 17.5326 100.065 17.0954C100.065 16.3818 99.798 15.8047 99.2737 15.333C98.7526 14.8647 98.1275 14.6539 97.4174 14.6539H94.1494V23.4661H97.5841C98.3274 23.4661 98.9784 23.2191 99.5237 22.7318C100.074 22.2393 100.352 21.6121 100.352 20.8674C100.352 20.3715 100.203 19.9274 99.9092 19.549C99.6851 19.2587 99.4074 19.0341 99.0844 18.8752ZM98.2855 17.9145C98.0669 18.153 97.782 18.2825 97.4157 18.2825H95.5387V16.0362H97.4643C97.815 16.0362 98.086 16.1296 98.2977 16.3628C98.513 16.6013 98.6173 16.8535 98.6173 17.1369C98.6173 17.4203 98.5097 17.6726 98.2855 17.9145ZM98.5304 21.6968C98.2995 21.9543 98.006 22.0838 97.631 22.0838H95.5387V19.6648H97.5841C97.9748 19.6648 98.2821 19.7685 98.5217 20.0242C98.7649 20.2835 98.8812 20.5494 98.8812 20.857C98.8812 21.1646 98.7666 21.4342 98.5304 21.6968Z" fill="black"/>
<path d="M103.813 14.6539L100.453 23.4661H102.045L102.882 21.2198H106.237L107.061 23.4661H108.654L105.294 14.6539H103.813ZM105.73 19.8375H103.379L104.554 16.6082L105.73 19.8375Z" fill="black"/>
<path d="M110.631 20.8762L110.645 19.7618V14.6541H109.256V23.4663H110.652L114.806 16.8986L114.812 17.989V23.4663H116.202V14.6541H114.573L110.631 20.8762Z" fill="black"/>
<path d="M112.673 14.3067C113.125 14.3067 113.486 14.1442 113.821 13.8246C114.158 13.5032 114.292 13.1023 114.292 12.6358V12.4077H113.076V12.6341C113.076 12.774 113.066 12.8933 112.974 12.9952C112.887 13.0937 112.797 13.1386 112.654 13.1386C112.505 13.1386 112.41 13.0937 112.323 12.9987C112.232 12.9002 112.206 12.7809 112.206 12.6324V12.4077H110.991V12.6341C110.991 13.1023 111.149 13.5032 111.494 13.8246C111.838 14.1442 112.222 14.3067 112.673 14.3067Z" fill="black"/>
<path d="M116.896 16.0362H119.327V23.4661H120.89V16.0362H123.147V14.6539H116.896V16.0362Z" fill="black"/>
<path d="M124.016 23.4661H129.399V22.0838H125.578V19.6648H129.051V18.2825H125.578V16.0362H129.399V14.6539H124.016V23.4661Z" fill="black"/>
<path d="M138.959 19.549C138.735 19.2587 138.457 19.0341 138.134 18.8752C138.386 18.7162 138.598 18.5122 138.768 18.2634C138.999 17.9265 139.115 17.5326 139.115 17.0954C139.115 16.3818 138.848 15.8047 138.322 15.333C137.801 14.8647 137.176 14.6539 136.466 14.6539H133.219V23.4661H136.634C137.377 23.4661 138.028 23.2191 138.574 22.7318C139.124 22.2393 139.402 21.6121 139.402 20.8674C139.402 20.3715 139.253 19.9274 138.959 19.549ZM137.336 17.9145C137.117 18.153 136.832 18.2825 136.466 18.2825H134.608V16.0362H136.514C136.865 16.0362 137.136 16.1296 137.348 16.3628C137.563 16.603 137.667 16.8535 137.667 17.1369C137.667 17.4203 137.56 17.6726 137.336 17.9145ZM137.58 21.6968C137.35 21.9543 137.056 22.0838 136.681 22.0838H134.608V19.6648H136.634C137.025 19.6648 137.332 19.7685 137.572 20.0242C137.815 20.2835 137.931 20.5494 137.931 20.857C137.929 21.1646 137.815 21.4342 137.58 21.6968Z" fill="black"/>
<path fill-rule="evenodd" clip-rule="evenodd" d="M38.4367 24.7165L16.8899 12.3812L33.9092 29.2289L38.4367 24.7165Z" fill="black"/>
<path fill-rule="evenodd" clip-rule="evenodd" d="M14.8912 12.5065C14.8097 12.6547 14.7192 12.8259 14.7192 13.0165V47.9241C14.7192 48.0335 14.776 48.1376 14.8061 48.2347L32.8292 30.2665L14.8912 12.5065Z" fill="black"/>
<path fill-rule="evenodd" clip-rule="evenodd" d="M33.9127 31.2988L16.2425 48.9141C16.294 48.8947 16.3454 48.8718 16.395 48.8418L38.7222 36.0582L33.9127 31.2988Z" fill="black"/>
<path fill-rule="evenodd" clip-rule="evenodd" d="M46.8798 29.5517L39.756 25.4735L34.9519 30.2629L40.0433 35.3029L46.8798 31.3888C47.5927 30.9812 47.5927 29.9594 46.8798 29.5517Z" fill="black"/>
</g>
<defs>
<clipPath id="clip0_251_194">
<rect width="180" height="60" fill="white"/>
</clipPath>
</defs>
</svg>
