<svg width="307" height="1299" viewBox="0 0 307 1299" fill="none" xmlns="http://www.w3.org/2000/svg">
<mask id="mask0_391_1348" style="mask-type:alpha" maskUnits="userSpaceOnUse" x="32" y="1282" width="73" height="66">
<path d="M47.2091 1342.35L34.3239 1309.08C33.5641 1307.12 34.907 1305.58 35.6734 1305.06L86.3398 1285.44C88.4777 1284.61 89.7722 1286.44 90.1522 1287.46L103.037 1320.74C103.854 1322.85 102.367 1324.22 101.521 1324.65L50.8549 1344.27C48.6291 1345.13 47.4969 1343.35 47.2091 1342.35Z" stroke="#F2DEBA" stroke-width="2.52341"/>
<path d="M77.574 1289.01L92.6988 1328.07" stroke="#F2DEBA" stroke-width="2.52341"/>
<path d="M51.1642 1299.49L48.5189 1292.66C48.3206 1292.11 48.228 1290.88 49.4438 1290.41C50.6597 1289.94 61.3889 1285.79 66.6015 1283.77C67.1151 1283.59 68.2652 1283.55 68.7561 1284.82C69.2471 1286.09 70.7243 1289.9 71.4014 1291.65" stroke="#F2DEBA" stroke-width="2.52341"/>
<path d="M54.5648 1297.09L53.6912 1294.83C53.5291 1294.34 53.4636 1293.25 54.4982 1292.81C55.5329 1292.37 61.6045 1290.04 64.511 1288.93C64.9479 1288.76 65.9371 1288.72 66.3983 1289.91C66.8596 1291.1 67.1729 1291.91 67.2719 1292.17" stroke="#F2DEBA" stroke-width="2.52341"/>
</mask>
<g mask="url(#mask0_391_1348)">
<rect x="22.9344" y="1268.75" width="85.796" height="52.9917" fill="#ECECEC"/>
</g>
<path d="M79.0636 534.978L102.018 541.936C103.988 542.744 107.23 544.835 104.437 546.734L95.1749 551.059" stroke="#ECECEC" stroke-width="2.2026"/>
<path d="M69.8106 543.36C64.4152 542.719 62.331 546.606 61.9634 548.63C62.644 553.743 64.6183 565.772 67.07 572.984C69.5217 580.196 72.7051 577.303 73.9903 574.955C75.6978 570.264 79.5387 560.458 80.0705 558.396C80.7533 555.748 76.5549 544.16 69.8106 543.36Z" stroke="#ECECEC" stroke-width="2.2026"/>
<path d="M61.5743 528.691C63.8357 533.572 70.2221 541.393 77.6764 533.628" stroke="#ECECEC" stroke-width="2.2026"/>
<path d="M61.9325 548.673C54.9102 541.861 44.9895 528.334 61.4847 528.725C64.1087 526.941 71.0225 525.413 77.6857 533.569L104.292 560.38C107.362 559.176 111.246 557.622 114.422 557.263C115.133 557.182 117.638 556.784 116.174 559.657C111.738 567.071 98.0083 578.12 78.5721 563.009" stroke="#ECECEC" stroke-width="2.2026"/>
<circle cx="6.06067" cy="6.06067" r="4.95937" transform="matrix(-0.991656 0.128914 0.128914 0.991656 83.7649 290.83)" stroke="#ECECEC" stroke-width="2.2026"/>
<circle cx="6.06067" cy="6.06067" r="4.95937" transform="matrix(-0.991656 0.128914 0.128914 0.991656 50.0818 295.209)" stroke="#ECECEC" stroke-width="2.2026"/>
<circle cx="1.79822" cy="1.79822" r="1.1013" transform="matrix(-0.991656 0.128914 0.128914 0.991656 80.0874 295.607)" stroke="#ECECEC" stroke-width="1.39385"/>
<circle cx="1.79822" cy="1.79822" r="1.1013" transform="matrix(-0.991656 0.128914 0.128914 0.991656 46.4044 299.986)" stroke="#ECECEC" stroke-width="1.39385"/>
<path d="M72.625 298.39L50.7311 301.236" stroke="#ECECEC" stroke-width="2.2026"/>
<path d="M39.0094 303.029C35.7315 303.645 29.0206 304.099 28.4006 300.983C27.7806 297.866 26.1103 284.054 25.3527 277.537C25.1919 276.154 26.0162 275.604 30.3341 275.042C34.8518 274.454 69.1605 270.017 85.7459 267.839C86.5169 267.828 88.2076 268.331 88.8028 270.43C89.5468 273.053 91.3597 280.541 91.6985 280.564C92.0374 280.587 93.5835 280.857 93.8661 281.223C94.1488 281.589 95.6203 291.875 94.9093 292.605C94.1983 293.336 91.29 295.762 90.0395 295.958C89.039 296.115 85.9021 296.507 84.4586 296.684" stroke="#ECECEC" stroke-width="2.2026"/>
<mask id="path-16-inside-1_391_1348" fill="white">
<rect width="15.9176" height="11.9215" rx="1.93142" transform="matrix(-0.991656 0.128914 0.128914 0.991656 60.5615 273.094)"/>
</mask>
<rect width="15.9176" height="11.9215" rx="1.93142" transform="matrix(-0.991656 0.128914 0.128914 0.991656 60.5615 273.094)" stroke="#ECECEC" stroke-width="4.40519" mask="url(#path-16-inside-1_391_1348)"/>
<mask id="path-17-inside-2_391_1348" fill="white">
<rect width="15.9176" height="11.9215" rx="1.93142" transform="matrix(-0.991656 0.128914 0.128914 0.991656 78.1396 270.809)"/>
</mask>
<rect width="15.9176" height="11.9215" rx="1.93142" transform="matrix(-0.991656 0.128914 0.128914 0.991656 78.1396 270.809)" stroke="#ECECEC" stroke-width="4.40519" mask="url(#path-17-inside-2_391_1348)"/>
<mask id="path-18-inside-3_391_1348" fill="white">
<rect width="15.9176" height="11.9215" rx="1.93142" transform="matrix(-0.991656 0.128914 0.128914 0.991656 43.0878 275.365)"/>
</mask>
<rect width="15.9176" height="11.9215" rx="1.93142" transform="matrix(-0.991656 0.128914 0.128914 0.991656 43.0878 275.365)" stroke="#ECECEC" stroke-width="4.40519" mask="url(#path-18-inside-3_391_1348)"/>
<path d="M90.2418 285.688C90.3343 286.399 90.5697 286.968 90.8205 287.315C90.9453 287.488 91.0384 287.564 91.0921 287.598C91.1354 287.552 91.2058 287.454 91.2824 287.255C91.4362 286.856 91.5183 286.245 91.4259 285.534C91.3334 284.823 91.0979 284.253 90.8471 283.907C90.7223 283.734 90.6292 283.658 90.5756 283.624C90.5322 283.67 90.4618 283.768 90.3852 283.967C90.2314 284.366 90.1493 284.977 90.2418 285.688ZM91.1446 287.622C91.1446 287.622 91.1438 287.622 91.1422 287.622C91.1438 287.622 91.1446 287.622 91.1446 287.622ZM91.0498 287.634C91.0483 287.635 91.0476 287.635 91.0476 287.635C91.0476 287.635 91.0484 287.635 91.0498 287.634ZM90.523 283.599C90.523 283.6 90.5238 283.6 90.5254 283.6C90.5238 283.6 90.523 283.599 90.523 283.599ZM90.6178 283.588C90.6193 283.587 90.62 283.587 90.62 283.587C90.62 283.587 90.6193 283.587 90.6178 283.588Z" stroke="#ECECEC" stroke-width="2.2026"/>
<path d="M81.6168 271.484L84.0875 271.163C85.0757 271.034 85.6818 272.007 85.8613 272.509C86.3851 274.635 87.4712 279.051 87.6254 279.71C87.7796 280.369 87.2477 280.831 86.9624 280.979C85.8981 281.138 83.5714 281.468 82.7791 281.523C81.9867 281.577 81.6182 280.865 81.5329 280.502L80.552 272.957C80.3976 271.769 81.1382 271.536 81.6168 271.484Z" stroke="#ECECEC" stroke-width="2.2026"/>
<path d="M231.327 382.846L245.761 355.244C246.612 353.617 248.391 353.616 249.174 353.819L291.2 375.796C292.973 376.723 292.517 378.624 292.068 379.459L277.634 407.061C276.719 408.81 274.959 408.627 274.193 408.317L232.168 386.34C230.322 385.375 230.838 383.609 231.327 382.846Z" stroke="#ECECEC" stroke-width="2.2026"/>
<path d="M256.276 357.765L239.412 390.013" stroke="#ECECEC" stroke-width="2.2026"/>
<path d="M283.818 372.09L266.875 404.49" stroke="#ECECEC" stroke-width="2.2026"/>
<path d="M235.404 389.027C234.989 389.944 234.748 392.203 237.108 393.901C239.468 395.599 241.915 393.952 242.843 392.917" stroke="#ECECEC" stroke-width="2.2026"/>
<path d="M262.793 403.349C262.378 404.267 262.137 406.525 264.498 408.224C266.858 409.922 269.304 408.275 270.232 407.24" stroke="#ECECEC" stroke-width="2.2026"/>
<path d="M261.743 360.784L264.707 355.117C264.955 354.67 265.703 353.906 266.712 354.434C267.72 354.961 276.619 359.615 280.943 361.876C281.355 362.111 282.042 362.843 281.492 363.895C280.942 364.947 279.288 368.111 278.529 369.562" stroke="#ECECEC" stroke-width="2.2026"/>
<path d="M265.275 361.636L266.253 359.765C266.482 359.376 267.161 358.705 268.047 359.13C268.932 359.555 273.952 362.202 276.352 363.473C276.714 363.662 277.31 364.288 276.793 365.276C276.276 366.264 275.925 366.936 275.815 367.148" stroke="#ECECEC" stroke-width="2.2026"/>
<path d="M271.154 99.4318L252.516 105.34C250.918 106.019 248.297 107.757 250.593 109.276L258.188 112.706" stroke="#ECECEC" stroke-width="2.2026"/>
<path d="M278.783 106.168C283.174 105.591 284.913 108.737 285.234 110.383C284.732 114.558 283.247 124.383 281.323 130.287C279.399 136.191 276.774 133.866 275.702 131.965C274.262 128.159 271.03 120.206 270.575 118.53C269.991 116.379 273.294 106.89 278.783 106.168Z" stroke="#ECECEC" stroke-width="2.2026"/>
<path d="M285.345 94.1265C283.552 98.1286 278.427 104.57 272.271 98.3169" stroke="#ECECEC" stroke-width="2.2026"/>
<path d="M285.259 110.418C290.913 104.793 298.86 93.6645 285.419 94.1532C283.261 92.7265 277.61 91.5522 272.263 98.2692L250.853 120.397C248.338 119.448 245.156 118.221 242.563 117.961C241.983 117.903 239.937 117.604 241.16 119.931C244.852 125.928 256.158 134.793 271.844 122.275" stroke="#ECECEC" stroke-width="2.2026"/>
<path d="M1.67672 28.3585L8.94065 7.11381C9.36897 5.8611 10.6364 5.66622 11.2165 5.72537L43.5627 16.7851C44.9276 17.2518 44.811 18.6563 44.5821 19.3003L37.3182 40.545C36.8579 41.8911 35.5837 41.9532 35.0042 41.8159L2.65805 30.7562C1.23706 30.2704 1.41175 28.9553 1.67672 28.3585Z" stroke="#ECECEC" stroke-width="1.58768"/>
<path d="M16.7075 7.75946L8.22094 32.58" stroke="#ECECEC" stroke-width="1.58768"/>
<path d="M37.8982 14.9527L29.3717 39.8901" stroke="#ECECEC" stroke-width="1.58768"/>
<path d="M5.2572 32.3161C5.06175 33.015 5.13767 34.6507 7.00498 35.6024C8.87229 36.5541 10.4352 35.1133 10.9832 34.2739" stroke="#ECECEC" stroke-width="1.58768"/>
<path d="M26.3383 39.524C26.1428 40.2229 26.2187 41.8586 28.086 42.8103C29.9533 43.762 31.5162 42.3212 32.0643 41.4819" stroke="#ECECEC" stroke-width="1.58768"/>
<path d="M20.9335 9.31206L22.4248 4.95057C22.5526 4.60456 23.0023 3.97889 23.7785 4.24429C24.5547 4.50968 31.4044 6.85171 34.7322 7.98955C35.0516 8.11176 35.6213 8.55856 35.3445 9.36805C35.0677 10.1775 34.235 12.613 33.8533 13.7295" stroke="#ECECEC" stroke-width="1.58768"/>
<path d="M23.5428 9.533L24.0352 8.09267C24.1558 7.7907 24.5662 7.23822 25.2436 7.44407C25.9209 7.64992 29.7873 8.98693 31.6358 9.62971C31.9148 9.72508 32.4076 10.106 32.1476 10.8664C31.8876 11.6269 31.711 12.1435 31.6551 12.3068" stroke="#ECECEC" stroke-width="1.58768"/>
<path d="M60.4611 1006.4L78.0988 990.147C79.7947 988.86 83.2412 987.126 83.4608 990.496L82.4912 1000.67" stroke="#ECECEC" stroke-width="2.2026"/>
<path d="M62.9922 1018.63C59.7043 1022.95 61.9974 1026.72 63.555 1028.06C68.307 1030.07 79.6756 1034.47 87.1348 1036.01C94.5939 1037.56 93.7151 1033.35 92.3432 1031.05C89.1655 1027.2 82.6625 1018.92 81.1548 1017.41C79.2192 1015.48 67.1022 1013.22 62.9922 1018.63Z" stroke="#ECECEC" stroke-width="2.2026"/>
<path d="M46.1728 1018.29C51.5267 1018.81 61.5065 1017.28 58.594 1006.91" stroke="#ECECEC" stroke-width="2.2026"/>
<path d="M63.5767 1028.11C54.1441 1030.71 37.4546 1032.4 46.1567 1018.38C45.9502 1015.22 48.1394 1008.48 58.5481 1006.88L95.1482 997.542C95.6675 994.285 96.2977 990.149 97.5991 987.23C97.8903 986.577 98.8175 984.215 100.551 986.934C104.691 994.517 107.251 1011.95 84.3703 1021.04" stroke="#ECECEC" stroke-width="2.2026"/>
<path d="M335.007 799.858L322.678 774.494C321.951 772.999 320.341 772.951 319.627 773.114L281.01 791.885C279.381 792.677 279.742 794.41 280.127 795.178L292.456 820.541C293.237 822.148 294.835 822.029 295.536 821.769L334.153 802.998C335.85 802.173 335.429 800.561 335.007 799.858Z" stroke="#ECECEC" stroke-width="1.99421"/>
<path d="M287.789 788.728L302.26 818.5" stroke="#ECECEC" stroke-width="1.99421"/>
<path d="M305.986 817.577C306.337 818.418 306.494 820.468 304.313 821.942C302.132 823.417 299.962 821.861 299.149 820.899" stroke="#ECECEC" stroke-width="1.99421"/>
<path d="M308.067 779.083L305.536 773.876C305.324 773.464 304.667 772.753 303.74 773.204C302.813 773.654 294.636 777.629 290.663 779.56C290.283 779.762 289.642 780.407 290.112 781.373C290.581 782.34 291.995 785.247 292.643 786.58" stroke="#ECECEC" stroke-width="1.99421"/>
<path d="M304.849 779.76L304.013 778.04C303.816 777.683 303.219 777.057 302.407 777.418C301.594 777.779 296.98 780.042 294.775 781.128C294.442 781.29 293.886 781.84 294.328 782.748C294.769 783.656 295.069 784.273 295.164 784.468" stroke="#ECECEC" stroke-width="1.99421"/>
<circle cx="256.397" cy="1155.04" r="4.95937" transform="rotate(28.369 256.397 1155.04)" stroke="#ECECEC" stroke-width="2.2026"/>
<circle cx="286.284" cy="1171.18" r="4.95937" transform="rotate(28.369 286.284 1171.18)" stroke="#ECECEC" stroke-width="2.2026"/>
<circle cx="256.397" cy="1155.04" r="1.1013" transform="rotate(28.369 256.397 1155.04)" stroke="#ECECEC" stroke-width="1.39385"/>
<circle cx="286.284" cy="1171.18" r="1.1013" transform="rotate(28.369 286.284 1171.18)" stroke="#ECECEC" stroke-width="1.39385"/>
<path d="M261.642 1157.87L281.069 1168.36" stroke="#ECECEC" stroke-width="2.2026"/>
<path d="M291.373 1174.23C294.214 1175.98 300.318 1178.8 302.012 1176.11C303.706 1173.43 310.207 1161.12 313.246 1155.31C313.891 1154.08 313.318 1153.27 309.487 1151.2C305.478 1149.03 275.028 1132.62 260.319 1124.65C259.603 1124.36 257.844 1124.23 256.538 1125.97C254.904 1128.16 250.533 1134.5 250.208 1134.4C249.883 1134.3 248.343 1134 247.948 1134.24C247.553 1134.48 242.499 1143.56 242.902 1144.5C243.305 1145.43 245.152 1148.74 246.25 1149.37C247.128 1149.87 249.917 1151.36 251.202 1152.04" stroke="#ECECEC" stroke-width="2.2026"/>
<mask id="path-54-inside-4_391_1348" fill="white">
<rect x="281.957" y="1138.56" width="15.9176" height="11.9215" rx="1.93142" transform="rotate(28.369 281.957 1138.56)"/>
</mask>
<rect x="281.957" y="1138.56" width="15.9176" height="11.9215" rx="1.93142" transform="rotate(28.369 281.957 1138.56)" stroke="#ECECEC" stroke-width="4.40519" mask="url(#path-54-inside-4_391_1348)"/>
<mask id="path-55-inside-5_391_1348" fill="white">
<rect x="266.359" y="1130.14" width="15.9176" height="11.9215" rx="1.93142" transform="rotate(28.369 266.359 1130.14)"/>
</mask>
<rect x="266.359" y="1130.14" width="15.9176" height="11.9215" rx="1.93142" transform="rotate(28.369 266.359 1130.14)" stroke="#ECECEC" stroke-width="4.40519" mask="url(#path-55-inside-5_391_1348)"/>
<mask id="path-56-inside-6_391_1348" fill="white">
<rect x="297.461" y="1146.94" width="15.9176" height="11.9215" rx="1.93142" transform="rotate(28.369 297.461 1146.94)"/>
</mask>
<rect x="297.461" y="1146.94" width="15.9176" height="11.9215" rx="1.93142" transform="rotate(28.369 297.461 1146.94)" stroke="#ECECEC" stroke-width="4.40519" mask="url(#path-56-inside-6_391_1348)"/>
<path d="M249.735 1139.71C249.395 1140.34 248.971 1140.79 248.613 1141.02C248.435 1141.14 248.32 1141.17 248.258 1141.19C248.234 1141.13 248.203 1141.01 248.203 1140.8C248.202 1140.37 248.344 1139.77 248.685 1139.14C249.026 1138.51 249.449 1138.06 249.807 1137.83C249.986 1137.71 250.1 1137.67 250.162 1137.66C250.186 1137.72 250.217 1137.84 250.217 1138.05C250.218 1138.48 250.076 1139.08 249.735 1139.71ZM248.2 1141.19C248.2 1141.19 248.201 1141.19 248.203 1141.19C248.201 1141.19 248.2 1141.19 248.2 1141.19ZM248.285 1141.24C248.286 1141.24 248.286 1141.24 248.286 1141.24C248.286 1141.24 248.286 1141.24 248.285 1141.24ZM250.22 1137.66C250.22 1137.66 250.219 1137.66 250.217 1137.66C250.219 1137.66 250.22 1137.66 250.22 1137.66ZM250.136 1137.61C250.134 1137.61 250.134 1137.61 250.134 1137.61C250.134 1137.61 250.134 1137.61 250.136 1137.61Z" stroke="#ECECEC" stroke-width="2.2026"/>
<path d="M262.871 1129.53L260.679 1128.34C259.802 1127.87 258.888 1128.56 258.541 1128.97C257.291 1130.76 254.697 1134.5 254.317 1135.06C253.937 1135.62 254.269 1136.24 254.482 1136.48C255.42 1137.01 257.474 1138.15 258.194 1138.49C258.915 1138.82 259.514 1138.29 259.723 1137.98L263.339 1131.28C263.908 1130.23 263.299 1129.75 262.871 1129.53Z" stroke="#ECECEC" stroke-width="2.2026"/>
</svg>
