<svg width="90" height="22" viewBox="0 0 90 22" fill="none" xmlns="http://www.w3.org/2000/svg">
<path d="M10.494 16.37V5.552H4.464L4.356 8.612C4.32 9.56 4.26 10.472 4.176 11.348C4.104 12.212 3.984 12.992 3.816 13.688C3.66 14.372 3.444 14.93 3.168 15.362C2.904 15.794 2.556 16.046 2.124 16.118L0.666 15.848C1.146 15.872 1.542 15.698 1.854 15.326C2.178 14.954 2.424 14.432 2.592 13.76C2.772 13.088 2.904 12.302 2.988 11.402C3.072 10.502 3.132 9.53 3.168 8.486L3.312 4.4H11.808V16.37H10.494ZM0.198 19.826L0.216 15.848H13.698V19.826H12.456V17H1.458L1.44 19.826H0.198ZM21.977 17V14.912L21.923 14.57V11.078C21.923 10.274 21.695 9.656 21.239 9.224C20.795 8.792 20.129 8.576 19.241 8.576C18.629 8.576 18.047 8.678 17.495 8.882C16.943 9.086 16.475 9.356 16.091 9.692L15.515 8.738C15.995 8.33 16.571 8.018 17.243 7.802C17.915 7.574 18.623 7.46 19.367 7.46C20.591 7.46 21.533 7.766 22.193 8.378C22.865 8.978 23.201 9.896 23.201 11.132V17H21.977ZM18.719 17.09C18.011 17.09 17.393 16.976 16.865 16.748C16.349 16.508 15.953 16.184 15.677 15.776C15.401 15.356 15.263 14.876 15.263 14.336C15.263 13.844 15.377 13.4 15.605 13.004C15.845 12.596 16.229 12.272 16.757 12.032C17.297 11.78 18.017 11.654 18.917 11.654H22.175V12.608H18.953C18.041 12.608 17.405 12.77 17.045 13.094C16.697 13.418 16.523 13.82 16.523 14.3C16.523 14.84 16.733 15.272 17.153 15.596C17.573 15.92 18.161 16.082 18.917 16.082C19.637 16.082 20.255 15.92 20.771 15.596C21.299 15.26 21.683 14.78 21.923 14.156L22.211 15.038C21.971 15.662 21.551 16.16 20.951 16.532C20.363 16.904 19.619 17.09 18.719 17.09ZM24.8752 16.982L24.9652 15.884C25.0492 15.896 25.1272 15.914 25.1992 15.938C25.2832 15.95 25.3552 15.956 25.4152 15.956C25.7992 15.956 26.1052 15.812 26.3332 15.524C26.5732 15.236 26.7532 14.852 26.8732 14.372C26.9932 13.892 27.0772 13.352 27.1252 12.752C27.1732 12.14 27.2152 11.528 27.2512 10.916L27.4132 7.55H34.3432V17H33.0652V8.288L33.3892 8.666H28.2412L28.5472 8.27L28.4032 11.006C28.3672 11.822 28.3012 12.602 28.2052 13.346C28.1212 14.09 27.9832 14.744 27.7912 15.308C27.6112 15.872 27.3592 16.316 27.0352 16.64C26.7112 16.952 26.2972 17.108 25.7932 17.108C25.6492 17.108 25.4992 17.096 25.3432 17.072C25.1992 17.048 25.0432 17.018 24.8752 16.982ZM42.0262 17.09C41.0422 17.09 40.1782 16.886 39.4342 16.478C38.6902 16.058 38.1082 15.488 37.6882 14.768C37.2682 14.036 37.0582 13.202 37.0582 12.266C37.0582 11.33 37.2562 10.502 37.6522 9.782C38.0602 9.062 38.6122 8.498 39.3082 8.09C40.0162 7.67 40.8082 7.46 41.6842 7.46C42.5722 7.46 43.3582 7.664 44.0422 8.072C44.7382 8.468 45.2842 9.032 45.6802 9.764C46.0762 10.484 46.2742 11.318 46.2742 12.266C46.2742 12.326 46.2682 12.392 46.2562 12.464C46.2562 12.524 46.2562 12.59 46.2562 12.662H38.0302V11.708H45.5722L45.0682 12.086C45.0682 11.402 44.9182 10.796 44.6182 10.268C44.3302 9.728 43.9342 9.308 43.4302 9.008C42.9262 8.708 42.3442 8.558 41.6842 8.558C41.0362 8.558 40.4542 8.708 39.9382 9.008C39.4222 9.308 39.0202 9.728 38.7322 10.268C38.4442 10.808 38.3002 11.426 38.3002 12.122V12.32C38.3002 13.04 38.4562 13.676 38.7682 14.228C39.0922 14.768 39.5362 15.194 40.1002 15.506C40.6762 15.806 41.3302 15.956 42.0622 15.956C42.6382 15.956 43.1722 15.854 43.6642 15.65C44.1682 15.446 44.6002 15.134 44.9602 14.714L45.6802 15.542C45.2602 16.046 44.7322 16.43 44.0962 16.694C43.4722 16.958 42.7822 17.09 42.0262 17.09ZM53.1532 17.09C52.1692 17.09 51.3052 16.886 50.5612 16.478C49.8172 16.058 49.2352 15.488 48.8152 14.768C48.3952 14.036 48.1852 13.202 48.1852 12.266C48.1852 11.33 48.3832 10.502 48.7792 9.782C49.1872 9.062 49.7392 8.498 50.4352 8.09C51.1432 7.67 51.9352 7.46 52.8112 7.46C53.6992 7.46 54.4852 7.664 55.1692 8.072C55.8652 8.468 56.4112 9.032 56.8072 9.764C57.2032 10.484 57.4012 11.318 57.4012 12.266C57.4012 12.326 57.3952 12.392 57.3832 12.464C57.3832 12.524 57.3832 12.59 57.3832 12.662H49.1572V11.708H56.6992L56.1952 12.086C56.1952 11.402 56.0452 10.796 55.7452 10.268C55.4572 9.728 55.0612 9.308 54.5572 9.008C54.0532 8.708 53.4712 8.558 52.8112 8.558C52.1632 8.558 51.5812 8.708 51.0652 9.008C50.5492 9.308 50.1472 9.728 49.8592 10.268C49.5712 10.808 49.4272 11.426 49.4272 12.122V12.32C49.4272 13.04 49.5832 13.676 49.8952 14.228C50.2192 14.768 50.6632 15.194 51.2272 15.506C51.8032 15.806 52.4572 15.956 53.1892 15.956C53.7652 15.956 54.2992 15.854 54.7912 15.65C55.2952 15.446 55.7272 15.134 56.0872 14.714L56.8072 15.542C56.3872 16.046 55.8592 16.43 55.2232 16.694C54.5992 16.958 53.9092 17.09 53.1532 17.09Z" fill="#828282"/>
<path d="M69 11.5C68.7239 11.5 68.5 11.7239 68.5 12C68.5 12.2761 68.7239 12.5 69 12.5L69 11.5ZM89.3536 12.3536C89.5488 12.1583 89.5488 11.8417 89.3536 11.6464L86.1716 8.46447C85.9763 8.26921 85.6597 8.26921 85.4645 8.46447C85.2692 8.65973 85.2692 8.97631 85.4645 9.17157L88.2929 12L85.4645 14.8284C85.2692 15.0237 85.2692 15.3403 85.4645 15.5355C85.6597 15.7308 85.9763 15.7308 86.1716 15.5355L89.3536 12.3536ZM69 12.5L89 12.5L89 11.5L69 11.5L69 12.5Z" fill="#828282"/>
</svg>
