<svg width="1879" height="927" viewBox="0 0 1879 927" fill="none" xmlns="http://www.w3.org/2000/svg">
<path d="M285.487 531.351L337.595 547.145C342.067 548.98 349.426 553.728 343.086 558.037L322.06 567.855" stroke="#ECECEC" stroke-width="5"/>
<path d="M264.482 550.377C252.234 548.924 247.503 557.748 246.668 562.342C248.213 573.949 252.695 601.255 258.26 617.627C263.826 633.999 271.052 627.432 273.97 622.102C277.846 611.451 286.565 589.192 287.772 584.511C289.322 578.501 279.792 552.194 264.482 550.377Z" stroke="#ECECEC" stroke-width="5"/>
<path d="M245.785 517.079C250.919 528.16 265.416 545.914 282.338 528.286" stroke="#ECECEC" stroke-width="5"/>
<path d="M246.598 562.44C230.657 546.976 208.137 516.269 245.582 517.156C251.538 513.107 267.233 509.638 282.359 528.153L342.756 589.014C349.725 586.281 358.542 582.753 365.752 581.938C367.365 581.756 373.053 580.851 369.729 587.373C359.66 604.202 328.492 629.285 284.371 594.982" stroke="#ECECEC" stroke-width="5"/>
<path d="M1039.53 632.665L1079.57 595.765C1083.42 592.842 1091.24 588.907 1091.74 596.556L1089.54 619.657" stroke="#ECECEC" stroke-width="5"/>
<path d="M1045.27 660.417C1037.81 670.236 1043.02 678.789 1046.55 681.838C1057.34 686.393 1083.15 696.378 1100.08 699.885C1117.01 703.391 1115.02 693.832 1111.9 688.614C1104.69 679.872 1089.93 661.069 1086.5 657.655C1082.11 653.271 1054.6 648.144 1045.27 660.417Z" stroke="#ECECEC" stroke-width="5"/>
<path d="M1007.09 659.644C1019.25 660.84 1041.9 657.349 1035.29 633.825" stroke="#ECECEC" stroke-width="5"/>
<path d="M1046.6 681.948C1025.19 687.845 987.302 691.681 1007.06 659.859C1006.59 652.672 1011.56 637.386 1035.19 633.739L1118.27 612.55C1119.45 605.158 1120.88 595.77 1123.83 589.142C1124.49 587.659 1126.6 582.299 1130.53 588.471C1139.93 605.684 1145.74 645.267 1093.8 665.897" stroke="#ECECEC" stroke-width="5"/>
<path d="M878.262 199.301L835.951 212.712C832.325 214.254 826.375 218.2 831.588 221.647L848.827 229.433" stroke="#ECECEC" stroke-width="5"/>
<path d="M895.58 214.593C905.548 213.282 909.495 220.425 910.223 224.161C909.084 233.638 905.712 255.942 901.345 269.344C896.977 282.746 891.019 277.468 888.586 273.154C885.317 264.512 877.98 246.459 876.948 242.655C875.622 237.772 883.119 216.231 895.58 214.593Z" stroke="#ECECEC" stroke-width="5"/>
<path d="M910.476 187.257C906.406 196.343 894.772 210.964 880.797 196.77" stroke="#ECECEC" stroke-width="5"/>
<path d="M910.282 224.24C923.115 211.471 941.155 186.209 910.643 187.318C905.746 184.079 892.917 181.414 880.779 196.662L832.177 246.894C826.468 244.738 819.245 241.953 813.359 241.363C812.042 241.231 807.397 240.553 810.174 245.835C818.555 259.448 844.219 279.572 879.828 251.155" stroke="#ECECEC" stroke-width="5"/>
<path d="M488.694 209.783L460.707 152.207C459.057 148.812 455.403 148.703 453.781 149.074L366.119 191.685C362.42 193.483 363.241 197.417 364.114 199.159L392.1 256.735C393.874 260.384 397.501 260.113 399.093 259.522L486.756 216.911C490.607 215.039 489.653 211.379 488.694 209.783Z" stroke="#ECECEC" stroke-width="4.52695"/>
<path d="M438.955 156.751L471.652 224.018" stroke="#ECECEC" stroke-width="4.52695"/>
<path d="M381.507 184.518L414.358 252.102" stroke="#ECECEC" stroke-width="4.52695"/>
<path d="M479.946 222.235C480.744 224.144 481.101 228.799 476.15 232.145C471.199 235.492 466.273 231.961 464.428 229.778" stroke="#ECECEC" stroke-width="4.52695"/>
<path d="M422.814 250.005C423.612 251.915 423.969 256.57 419.018 259.916C414.067 263.263 409.14 259.732 407.296 257.549" stroke="#ECECEC" stroke-width="4.52695"/>
<path d="M427.539 162.623L421.794 150.802C421.311 149.868 419.82 148.255 417.716 149.277C415.612 150.3 397.049 159.323 388.03 163.707C387.169 164.165 385.713 165.628 386.779 167.822C387.846 170.016 391.054 176.616 392.525 179.642" stroke="#ECECEC" stroke-width="4.52695"/>
<path d="M420.233 164.16L418.336 160.257C417.889 159.444 416.535 158.025 414.69 158.844C412.845 159.664 402.372 164.799 397.366 167.265C396.61 167.632 395.348 168.883 396.35 170.944C397.352 173.005 398.033 174.405 398.248 174.847" stroke="#ECECEC" stroke-width="4.52695"/>
<path d="M922.807 64.375L939.296 16.1486C940.268 13.3049 943.145 12.8625 944.462 12.9968L1017.89 38.1029C1020.99 39.1623 1020.72 42.3507 1020.2 43.8125L1003.71 92.0389C1002.67 95.0948 999.777 95.2357 998.462 94.9241L925.034 69.818C921.809 68.7151 922.205 65.7298 922.807 64.375Z" stroke="#ECECEC" stroke-width="3.60411"/>
<path d="M956.928 17.6144L937.663 73.9581" stroke="#ECECEC" stroke-width="3.60411"/>
<path d="M1005.03 33.9432L985.676 90.5523" stroke="#ECECEC" stroke-width="3.60411"/>
<path d="M930.935 73.359C930.491 74.9455 930.663 78.6586 934.902 80.819C939.141 82.9795 942.689 79.7088 943.933 77.8034" stroke="#ECECEC" stroke-width="3.60411"/>
<path d="M978.789 89.7214C978.346 91.3079 978.518 95.021 982.757 97.1815C986.996 99.3419 990.544 96.0712 991.788 94.1658" stroke="#ECECEC" stroke-width="3.60411"/>
<path d="M966.52 21.1388L969.906 11.238C970.196 10.4526 971.217 9.03225 972.979 9.63472C974.741 10.2372 990.29 15.5537 997.844 18.1366C998.569 18.4141 999.862 19.4283 999.234 21.2659C998.606 23.1035 996.715 28.6321 995.849 31.1667" stroke="#ECECEC" stroke-width="3.60411"/>
<path d="M972.444 21.6403L973.562 18.3707C973.835 17.6852 974.767 16.431 976.305 16.8983C977.842 17.3656 986.619 20.4007 990.815 21.8598C991.449 22.0763 992.567 22.9409 991.977 24.6673C991.387 26.3936 990.986 27.5663 990.859 27.9369" stroke="#ECECEC" stroke-width="3.60411"/>
<path d="M1490.55 343.642L1523.32 280.985C1525.25 277.29 1529.29 277.289 1531.07 277.751L1626.47 327.638C1630.49 329.743 1629.46 334.059 1628.44 335.954L1595.67 398.612C1593.6 402.582 1589.6 402.166 1587.86 401.462L1492.46 351.575C1488.27 349.383 1489.44 345.373 1490.55 343.642Z" stroke="#ECECEC" stroke-width="5"/>
<path d="M1547.19 286.707L1508.91 359.911" stroke="#ECECEC" stroke-width="5"/>
<path d="M1609.71 319.226L1571.25 392.775" stroke="#ECECEC" stroke-width="5"/>
<path d="M1499.81 357.673C1498.86 359.755 1498.32 364.883 1503.68 368.738C1509.03 372.593 1514.59 368.855 1516.69 366.504" stroke="#ECECEC" stroke-width="5"/>
<path d="M1561.98 390.186C1561.04 392.268 1560.49 397.396 1565.85 401.251C1571.21 405.106 1576.76 401.368 1578.87 399.017" stroke="#ECECEC" stroke-width="5"/>
<path d="M1559.6 293.56L1566.33 280.696C1566.89 279.68 1568.59 277.948 1570.88 279.145C1573.17 280.342 1593.37 290.906 1603.18 296.039C1604.12 296.572 1605.68 298.235 1604.43 300.622C1603.18 303.01 1599.43 310.193 1597.7 313.486" stroke="#ECECEC" stroke-width="5"/>
<path d="M1567.62 295.495L1569.84 291.247C1570.36 290.364 1571.9 288.841 1573.91 289.805C1575.92 290.77 1587.31 296.78 1592.76 299.664C1593.58 300.094 1594.94 301.515 1593.76 303.758C1592.59 306.001 1591.79 307.525 1591.54 308.006" stroke="#ECECEC" stroke-width="5"/>
<path d="M1761.1 160.555C1767.32 160.661 1772.44 155.707 1772.55 149.49C1772.65 143.274 1767.7 138.148 1761.48 138.043C1755.26 137.937 1750.14 142.891 1750.03 149.108C1749.93 155.324 1754.88 160.45 1761.1 160.555Z" stroke="#ECECEC" stroke-width="5"/>
<path d="M1838.19 161.866C1844.41 161.972 1849.53 157.018 1849.64 150.801C1849.74 144.585 1844.79 139.459 1838.57 139.354C1832.35 139.248 1827.23 144.202 1827.12 150.419C1827.02 156.635 1831.97 161.761 1838.19 161.866Z" stroke="#ECECEC" stroke-width="5"/>
<path d="M1761.25 151.799C1762.63 151.822 1763.77 150.722 1763.79 149.341C1763.81 147.961 1762.71 146.823 1761.33 146.799C1759.95 146.776 1758.81 147.876 1758.79 149.256C1758.77 150.637 1759.87 151.775 1761.25 151.799Z" stroke="#ECECEC" stroke-width="3.1641"/>
<path d="M1838.34 153.11C1839.72 153.133 1840.86 152.033 1840.88 150.653C1840.9 149.272 1839.8 148.134 1838.42 148.11C1837.04 148.087 1835.9 149.187 1835.88 150.568C1835.86 151.948 1836.96 153.086 1838.34 153.11Z" stroke="#ECECEC" stroke-width="3.1641"/>
<path d="M1774.82 149.529L1824.93 150.381" stroke="#ECECEC" stroke-width="5"/>
<path d="M1851.82 151.443C1859.37 152 1874.63 151.317 1875.23 144.129C1875.84 136.942 1876.09 105.359 1876.15 90.4658C1876.16 87.3049 1874.16 86.2747 1864.28 86.1057C1853.93 85.9288 1775.41 84.6452 1737.45 83.9493C1735.71 84.1213 1732.02 85.6867 1731.21 90.5721C1730.2 96.6789 1728.01 114.031 1727.26 114.169C1726.5 114.307 1723.08 115.308 1722.53 116.206C1721.99 117.104 1721.29 140.68 1723.08 142.147C1724.87 143.614 1732.04 148.348 1734.91 148.472C1737.21 148.572 1744.39 148.659 1747.69 148.69" stroke="#ECECEC" stroke-width="5"/>
<mask id="mask0_431_1302" style="mask-type:luminance" maskUnits="userSpaceOnUse" x="1790" y="84" width="47" height="38">
<path d="M1827.33 89.9384L1799.97 89.4732C1797.55 89.4321 1795.56 91.3614 1795.52 93.7825L1795.2 112.073C1795.16 114.495 1797.09 116.491 1799.51 116.532L1826.87 116.997C1829.3 117.038 1831.29 115.109 1831.33 112.688L1831.64 94.3967C1831.69 91.9756 1829.76 89.9796 1827.33 89.9384Z" stroke="#ECECEC" stroke-width="10"/>
</mask>
<g mask="url(#mask0_431_1302)">
<path d="M1827.33 89.9384L1799.97 89.4732C1797.55 89.4321 1795.56 91.3614 1795.52 93.7825L1795.2 112.073C1795.16 114.495 1797.09 116.491 1799.51 116.532L1826.87 116.997C1829.3 117.038 1831.29 115.109 1831.33 112.688L1831.64 94.3967C1831.69 91.9756 1829.76 89.9796 1827.33 89.9384Z" stroke="#ECECEC" stroke-width="10"/>
</g>
<mask id="mask1_431_1302" style="mask-type:luminance" maskUnits="userSpaceOnUse" x="1749" y="83" width="48" height="39">
<path d="M1787.1 89.2542L1759.74 88.789C1757.32 88.7478 1755.33 90.6772 1755.29 93.0983L1754.97 111.389C1754.93 113.81 1756.86 115.806 1759.28 115.848L1786.64 116.313C1789.07 116.354 1791.06 114.425 1791.1 112.004L1791.41 93.7125C1791.46 91.2914 1789.53 89.2954 1787.1 89.2542Z" stroke="#ECECEC" stroke-width="10"/>
</mask>
<g mask="url(#mask1_431_1302)">
<path d="M1787.1 89.2542L1759.74 88.789C1757.32 88.7478 1755.33 90.6772 1755.29 93.0983L1754.97 111.389C1754.93 113.81 1756.86 115.806 1759.28 115.848L1786.64 116.313C1789.07 116.354 1791.06 114.425 1791.1 112.004L1791.41 93.7125C1791.46 91.2914 1789.53 89.2954 1787.1 89.2542Z" stroke="#ECECEC" stroke-width="10"/>
</g>
<mask id="mask2_431_1302" style="mask-type:luminance" maskUnits="userSpaceOnUse" x="1830" y="85" width="47" height="38">
<path d="M1867.33 90.6183L1839.97 90.1531C1837.55 90.112 1835.56 92.0413 1835.52 94.4624L1835.2 112.753C1835.16 115.175 1837.09 117.171 1839.51 117.212L1866.87 117.677C1869.3 117.718 1871.29 115.789 1871.33 113.368L1871.64 95.0767C1871.69 92.6556 1869.76 90.6595 1867.33 90.6183Z" stroke="#ECECEC" stroke-width="10"/>
</mask>
<g mask="url(#mask2_431_1302)">
<path d="M1867.33 90.6183L1839.97 90.1531C1837.55 90.112 1835.56 92.0413 1835.52 94.4624L1835.2 112.753C1835.16 115.175 1837.09 117.171 1839.51 117.212L1866.87 117.677C1869.3 117.718 1871.29 115.789 1871.33 113.368L1871.64 95.0767C1871.69 92.6556 1869.76 90.6595 1867.33 90.6183Z" stroke="#ECECEC" stroke-width="10"/>
</g>
<path d="M1730.68 120.717C1730.68 120.717 1730.68 120.717 1730.67 120.718M1731.85 125.356C1731.82 126.984 1731.43 128.328 1730.95 129.174C1730.72 129.595 1730.53 129.791 1730.41 129.88C1730.3 129.787 1730.12 129.585 1729.9 129.156C1729.45 128.295 1729.11 126.938 1729.14 125.31C1729.16 123.682 1729.55 122.338 1730.03 121.492C1730.26 121.071 1730.46 120.875 1730.57 120.786C1730.68 120.879 1730.86 121.082 1731.08 121.51C1731.53 122.372 1731.87 123.728 1731.85 125.356ZM1730.3 129.949C1730.3 129.949 1730.3 129.949 1730.31 129.948C1730.3 129.949 1730.3 129.95 1730.3 129.949ZM1730.52 129.951C1730.52 129.952 1730.52 129.953 1730.52 129.953C1730.52 129.953 1730.52 129.953 1730.52 129.951ZM1730.46 120.715C1730.46 120.714 1730.46 120.713 1730.46 120.713C1730.46 120.713 1730.46 120.713 1730.46 120.715Z" stroke="#ECECEC" stroke-width="5"/>
<path d="M1747.69 91.1212L1742.03 91.0251C1739.77 90.9866 1738.65 93.3346 1738.37 94.5135C1737.73 99.4416 1736.41 109.679 1736.23 111.206C1736.05 112.732 1737.36 113.638 1738.05 113.9C1740.49 113.987 1745.82 114.141 1747.62 114.062C1749.42 113.984 1750.07 112.283 1750.17 111.443L1750.47 94.1728C1750.51 91.4542 1748.78 91.117 1747.69 91.1212Z" stroke="#ECECEC" stroke-width="5"/>
<path d="M1152.75 259.857C1158.97 259.963 1164.09 255.009 1164.2 248.792C1164.3 242.576 1159.35 237.45 1153.13 237.345C1146.91 237.239 1141.79 242.193 1141.68 248.41C1141.58 254.626 1146.53 259.752 1152.75 259.857Z" stroke="#ECECEC" stroke-width="5"/>
<path d="M1229.85 261.167C1236.07 261.273 1241.19 256.319 1241.3 250.102C1241.4 243.886 1236.45 238.76 1230.23 238.655C1224.01 238.549 1218.89 243.503 1218.78 249.72C1218.68 255.936 1223.63 261.062 1229.85 261.167Z" stroke="#ECECEC" stroke-width="5"/>
<path d="M1152.9 251.101C1154.28 251.124 1155.42 250.024 1155.44 248.643C1155.46 247.263 1154.36 246.125 1152.98 246.101C1151.6 246.078 1150.46 247.178 1150.44 248.558C1150.42 249.939 1151.52 251.077 1152.9 251.101Z" stroke="#ECECEC" stroke-width="3.1641"/>
<path d="M1230 252.411C1231.38 252.434 1232.52 251.334 1232.54 249.954C1232.56 248.573 1231.46 247.435 1230.08 247.411C1228.7 247.388 1227.56 248.488 1227.54 249.869C1227.52 251.249 1228.62 252.387 1230 252.411Z" stroke="#ECECEC" stroke-width="3.1641"/>
<path d="M1166.47 248.831L1216.58 249.683" stroke="#ECECEC" stroke-width="5"/>
<path d="M1243.48 250.745C1251.03 251.302 1266.29 250.618 1266.89 243.431C1267.5 236.244 1267.75 204.661 1267.8 189.768C1267.82 186.607 1265.82 185.576 1255.93 185.407C1245.59 185.231 1167.07 183.947 1129.11 183.251C1127.36 183.423 1123.68 184.988 1122.87 189.874C1121.86 195.981 1119.67 213.332 1118.91 213.471C1118.16 213.609 1114.74 214.609 1114.19 215.507C1113.65 216.405 1112.94 239.982 1114.73 241.449C1116.52 242.916 1123.7 247.65 1126.57 247.774C1128.87 247.874 1136.04 247.96 1139.35 247.991" stroke="#ECECEC" stroke-width="5"/>
<mask id="mask3_431_1302" style="mask-type:luminance" maskUnits="userSpaceOnUse" x="1181" y="183" width="48" height="39">
<path d="M1218.99 189.24L1191.63 188.774C1189.21 188.733 1187.22 190.663 1187.18 193.084L1186.86 211.375C1186.82 213.796 1188.75 215.792 1191.17 215.833L1218.53 216.298C1220.96 216.339 1222.95 214.41 1222.99 211.989L1223.3 193.698C1223.35 191.277 1221.42 189.281 1218.99 189.24Z" stroke="#ECECEC" stroke-width="10"/>
</mask>
<g mask="url(#mask3_431_1302)">
<path d="M1218.99 189.24L1191.63 188.774C1189.21 188.733 1187.22 190.663 1187.18 193.084L1186.86 211.375C1186.82 213.796 1188.75 215.792 1191.17 215.833L1218.53 216.298C1220.96 216.339 1222.95 214.41 1222.99 211.989L1223.3 193.698C1223.35 191.277 1221.42 189.281 1218.99 189.24Z" stroke="#ECECEC" stroke-width="10"/>
</g>
<mask id="mask4_431_1302" style="mask-type:luminance" maskUnits="userSpaceOnUse" x="1141" y="183" width="48" height="38">
<path d="M1178.76 188.556L1151.4 188.091C1148.98 188.049 1146.99 189.979 1146.95 192.4L1146.63 210.691C1146.59 213.112 1148.52 215.108 1150.94 215.149L1178.3 215.614C1180.73 215.655 1182.72 213.726 1182.76 211.305L1183.07 193.014C1183.12 190.593 1181.19 188.597 1178.76 188.556Z" stroke="#ECECEC" stroke-width="10"/>
</mask>
<g mask="url(#mask4_431_1302)">
<path d="M1178.76 188.556L1151.4 188.091C1148.98 188.049 1146.99 189.979 1146.95 192.4L1146.63 210.691C1146.59 213.112 1148.52 215.108 1150.94 215.149L1178.3 215.614C1180.73 215.655 1182.72 213.726 1182.76 211.305L1183.07 193.014C1183.12 190.593 1181.19 188.597 1178.76 188.556Z" stroke="#ECECEC" stroke-width="10"/>
</g>
<mask id="mask5_431_1302" style="mask-type:luminance" maskUnits="userSpaceOnUse" x="1221" y="184" width="48" height="38">
<path d="M1258.99 189.92L1231.63 189.455C1229.21 189.413 1227.22 191.343 1227.18 193.764L1226.86 212.055C1226.82 214.476 1228.75 216.472 1231.17 216.513L1258.53 216.978C1260.96 217.019 1262.95 215.09 1262.99 212.669L1263.3 194.378C1263.35 191.957 1261.42 189.961 1258.99 189.92Z" stroke="#ECECEC" stroke-width="10"/>
</mask>
<g mask="url(#mask5_431_1302)">
<path d="M1258.99 189.92L1231.63 189.455C1229.21 189.413 1227.22 191.343 1227.18 193.764L1226.86 212.055C1226.82 214.476 1228.75 216.472 1231.17 216.513L1258.53 216.978C1260.96 217.019 1262.95 215.09 1262.99 212.669L1263.3 194.378C1263.35 191.957 1261.42 189.961 1258.99 189.92Z" stroke="#ECECEC" stroke-width="10"/>
</g>
<path d="M1122.18 229.253C1122.18 229.254 1122.18 229.255 1122.18 229.255M1123.5 224.658C1123.48 226.286 1123.09 227.63 1122.61 228.476C1122.37 228.896 1122.18 229.093 1122.07 229.182C1121.96 229.089 1121.78 228.886 1121.55 228.458C1121.11 227.596 1120.77 226.24 1120.79 224.612C1120.82 222.984 1121.21 221.64 1121.68 220.794C1121.92 220.373 1122.11 220.177 1122.23 220.088C1122.33 220.181 1122.52 220.383 1122.74 220.812C1123.19 221.673 1123.53 223.03 1123.5 224.658ZM1121.96 229.251C1121.96 229.251 1121.96 229.25 1121.96 229.249C1121.96 229.251 1121.96 229.251 1121.96 229.251ZM1122.34 220.018C1122.34 220.019 1122.34 220.019 1122.33 220.02C1122.34 220.019 1122.34 220.018 1122.34 220.018ZM1122.12 220.017C1122.12 220.016 1122.12 220.015 1122.12 220.015C1122.12 220.015 1122.12 220.015 1122.12 220.017Z" stroke="#ECECEC" stroke-width="5"/>
<path d="M1139.35 190.423L1133.69 190.327C1131.43 190.288 1130.31 192.636 1130.03 193.815C1129.39 198.743 1128.06 208.981 1127.88 210.508C1127.7 212.034 1129.02 212.939 1129.7 213.201C1132.14 213.288 1137.48 213.443 1139.28 213.364C1141.08 213.286 1141.73 211.585 1141.83 210.745L1142.12 193.475C1142.17 190.756 1140.44 190.419 1139.35 190.423Z" stroke="#ECECEC" stroke-width="5"/>
<path d="M795.982 501.677C789.816 502.478 784.168 498.13 783.366 491.964C782.565 485.798 786.913 480.15 793.079 479.349C799.245 478.547 804.893 482.896 805.694 489.062C806.496 495.227 802.147 500.875 795.982 501.677Z" stroke="#ECECEC" stroke-width="5"/>
<path d="M719.519 511.617C713.353 512.418 707.705 508.07 706.903 501.904C706.102 495.738 710.45 490.09 716.616 489.289C722.782 488.487 728.43 492.836 729.231 499.001C730.033 505.167 725.684 510.815 719.519 511.617Z" stroke="#ECECEC" stroke-width="5"/>
<path d="M794.853 492.992C793.483 493.17 792.229 492.205 792.051 490.836C791.873 489.466 792.839 488.212 794.208 488.034C795.577 487.856 796.831 488.822 797.009 490.191C797.187 491.56 796.222 492.814 794.853 492.992Z" stroke="#ECECEC" stroke-width="3.1641"/>
<path d="M718.391 502.932C717.021 503.11 715.767 502.145 715.589 500.776C715.411 499.406 716.377 498.152 717.746 497.974C719.115 497.796 720.369 498.762 720.547 500.131C720.725 501.5 719.76 502.754 718.391 502.932Z" stroke="#ECECEC" stroke-width="3.1641"/>
<path d="M781.112 492.257L731.411 498.718" stroke="#ECECEC" stroke-width="5"/>
<path d="M704.803 502.787C697.362 504.186 682.128 505.216 680.72 498.142C679.313 491.068 675.521 459.712 673.801 444.919C673.436 441.779 675.307 440.531 685.109 439.256C695.365 437.922 773.247 427.849 810.897 422.904C812.647 422.88 816.485 424.022 817.836 428.786C819.525 434.741 823.64 451.739 824.409 451.792C825.179 451.844 828.688 452.455 829.33 453.286C829.972 454.118 833.312 477.467 831.698 479.125C830.084 480.784 823.482 486.292 820.643 486.737C818.372 487.093 811.251 487.983 807.975 488.384" stroke="#ECECEC" stroke-width="5"/>
<mask id="mask6_431_1302" style="mask-type:luminance" maskUnits="userSpaceOnUse" x="713" y="430" width="49" height="41">
<path d="M722.243 438.926L749.379 435.398C751.78 435.086 753.98 436.78 754.292 439.181L756.65 457.322C756.963 459.723 755.269 461.923 752.868 462.235L725.731 465.763C723.33 466.075 721.13 464.381 720.818 461.98L718.46 443.839C718.148 441.438 719.841 439.238 722.243 438.926Z" stroke="#ECECEC" stroke-width="10"/>
</mask>
<g mask="url(#mask6_431_1302)">
<path d="M722.243 438.926L749.379 435.398C751.78 435.086 753.98 436.78 754.292 439.181L756.651 457.322C756.963 459.723 755.269 461.923 752.868 462.235L725.731 465.763C723.33 466.075 721.13 464.381 720.818 461.98L718.46 443.839C718.148 441.438 719.841 439.238 722.243 438.926Z" stroke="#ECECEC" stroke-width="10"/>
</g>
<mask id="mask7_431_1302" style="mask-type:luminance" maskUnits="userSpaceOnUse" x="753" y="425" width="49" height="41">
<path d="M762.146 433.739L789.282 430.211C791.683 429.899 793.883 431.593 794.195 433.994L796.554 452.135C796.866 454.536 795.172 456.736 792.771 457.048L765.634 460.576C763.233 460.888 761.033 459.194 760.721 456.793L758.363 438.652C758.051 436.251 759.744 434.051 762.146 433.739Z" stroke="#ECECEC" stroke-width="10"/>
</mask>
<g mask="url(#mask7_431_1302)">
<path d="M762.146 433.739L789.282 430.211C791.683 429.899 793.883 431.593 794.195 433.994L796.554 452.135C796.866 454.536 795.172 456.736 792.771 457.048L765.634 460.576C763.233 460.888 761.033 459.194 760.721 456.793L758.363 438.652C758.051 436.251 759.744 434.051 762.146 433.739Z" stroke="#ECECEC" stroke-width="10"/>
</g>
<mask id="mask8_431_1302" style="mask-type:luminance" maskUnits="userSpaceOnUse" x="673" y="435" width="50" height="41">
<path d="M682.577 444.083L709.713 440.555C712.114 440.243 714.314 441.937 714.626 444.338L716.984 462.479C717.297 464.88 715.603 467.08 713.202 467.392L686.065 470.92C683.664 471.232 681.464 469.538 681.152 467.137L678.794 448.996C678.482 446.595 680.175 444.395 682.577 444.083Z" stroke="#ECECEC" stroke-width="10"/>
</mask>
<g mask="url(#mask8_431_1302)">
<path d="M682.577 444.083L709.713 440.555C712.114 440.243 714.314 441.937 714.626 444.338L716.984 462.479C717.297 464.88 715.603 467.08 713.202 467.392L686.065 470.92C683.664 471.232 681.464 469.538 681.152 467.137L678.794 448.996C678.482 446.595 680.175 444.395 682.577 444.083Z" stroke="#ECECEC" stroke-width="10"/>
</g>
<path d="M821.741 458.682C821.741 458.682 821.743 458.682 821.747 458.683M821.956 458.656C821.96 458.654 821.961 458.653 821.961 458.653M821.103 463.422C821.313 465.037 821.847 466.33 822.416 467.116C822.7 467.508 822.911 467.682 823.033 467.757C823.131 467.653 823.291 467.431 823.465 466.98C823.814 466.074 824.001 464.688 823.791 463.073C823.581 461.458 823.046 460.166 822.477 459.379C822.194 458.988 821.982 458.814 821.86 458.738C821.762 458.842 821.602 459.064 821.428 459.516C821.079 460.422 820.893 461.808 821.103 463.422ZM823.152 467.814C823.152 467.814 823.15 467.813 823.147 467.813C823.15 467.814 823.152 467.814 823.152 467.814ZM822.937 467.84C822.934 467.841 822.932 467.842 822.932 467.842C822.932 467.843 822.934 467.842 822.937 467.84Z" stroke="#ECECEC" stroke-width="5"/>
<path d="M801.524 431.178L807.132 430.449C809.376 430.157 810.751 432.365 811.159 433.505C812.348 438.331 814.813 448.355 815.163 449.852C815.514 451.349 814.306 452.396 813.658 452.733C811.242 453.093 805.961 453.843 804.162 453.967C802.363 454.091 801.527 452.474 801.333 451.65L799.107 434.522C798.756 431.825 800.437 431.296 801.524 431.178Z" stroke="#ECECEC" stroke-width="5"/>
<path d="M47.8125 139.455C55.2337 140.475 62.0764 135.286 63.0962 127.865C64.116 120.443 58.9268 113.601 51.5057 112.581C44.0845 111.561 37.2418 116.75 36.222 124.171C35.2022 131.593 40.3914 138.435 47.8125 139.455Z" stroke="#ECECEC" stroke-width="6.02388"/>
<path d="M139.842 152.102C147.264 153.122 154.106 147.933 155.126 140.512C156.146 133.09 150.957 126.248 143.536 125.228C136.114 124.208 129.272 129.397 128.252 136.818C127.232 144.24 132.421 151.082 139.842 152.102Z" stroke="#ECECEC" stroke-width="6.02388"/>
<path d="M49.2491 129.002C50.897 129.228 52.4165 128.076 52.643 126.428C52.8695 124.78 51.7171 123.261 50.0692 123.034C48.4212 122.808 46.9017 123.96 46.6752 125.608C46.4487 127.256 47.6011 128.775 49.2491 129.002Z" stroke="#ECECEC" stroke-width="3.81203"/>
<path d="M141.279 141.649C142.927 141.875 144.446 140.723 144.673 139.075C144.899 137.427 143.747 135.908 142.099 135.681C140.451 135.455 138.932 136.607 138.705 138.255C138.479 139.903 139.631 141.422 141.279 141.649Z" stroke="#ECECEC" stroke-width="3.81203"/>
<path d="M65.8094 128.237L125.629 136.458" stroke="#ECECEC" stroke-width="6.02388"/>
<path d="M157.65 141.593C166.602 143.345 184.946 144.719 186.704 136.209C188.462 127.699 193.305 89.9567 195.507 72.1493C195.974 68.3699 193.731 66.8503 181.933 65.2278C169.59 63.5303 75.8504 50.711 30.5355 44.4224C28.4272 44.3778 23.7933 45.7206 22.1237 51.4482C20.0367 58.6076 14.9293 79.0495 14.0023 79.106C13.0752 79.1625 8.84153 79.8677 8.06116 80.8636C7.2808 81.8595 3.05143 109.96 4.98125 111.972C6.91108 113.984 14.8164 120.678 18.2325 121.239C20.9655 121.688 29.5366 122.823 33.4806 123.335" stroke="#ECECEC" stroke-width="6.02388"/>
<mask id="mask9_431_1302" style="mask-type:luminance" maskUnits="userSpaceOnUse" x="89" y="53" width="59" height="50">
<path d="M137.2 64.5044L104.539 60.016C101.648 59.6188 98.9836 61.6398 98.5864 64.5299L95.5859 86.3644C95.1887 89.2546 97.2097 91.9195 100.1 92.3166L132.761 96.8051C135.651 97.2022 138.316 95.1813 138.714 92.2911L141.714 70.4566C142.111 67.5665 140.09 64.9016 137.2 64.5044Z" stroke="#ECECEC" stroke-width="12.0478"/>
</mask>
<g mask="url(#mask9_431_1302)">
<path d="M137.2 64.5044L104.539 60.016C101.648 59.6188 98.9836 61.6398 98.5864 64.5299L95.5859 86.3644C95.1887 89.2546 97.2097 91.9195 100.1 92.3166L132.761 96.8051C135.651 97.2022 138.316 95.1813 138.714 92.2911L141.714 70.4566C142.111 67.5665 140.09 64.9016 137.2 64.5044Z" stroke="#ECECEC" stroke-width="12.0478"/>
</g>
<mask id="mask10_431_1302" style="mask-type:luminance" maskUnits="userSpaceOnUse" x="41" y="47" width="59" height="50">
<path d="M89.1726 57.9043L56.5111 53.4159C53.6209 53.0187 50.956 55.0397 50.5589 57.9298L47.5583 79.7643C47.1612 82.6545 49.1821 85.3194 52.0723 85.7165L84.7338 90.205C87.6239 90.6021 90.2888 88.5812 90.686 85.691L93.6865 63.8565C94.0837 60.9664 92.0628 58.3015 89.1726 57.9043Z" stroke="#ECECEC" stroke-width="12.0478"/>
</mask>
<g mask="url(#mask10_431_1302)">
<path d="M89.1726 57.9043L56.5111 53.4159C53.6209 53.0187 50.956 55.0397 50.5589 57.9298L47.5583 79.7643C47.1612 82.6545 49.1821 85.3194 52.0723 85.7165L84.7338 90.205C87.6239 90.6021 90.2888 88.5812 90.686 85.691L93.6865 63.8565C94.0837 60.9664 92.0628 58.3015 89.1726 57.9043Z" stroke="#ECECEC" stroke-width="12.0478"/>
</g>
<mask id="mask11_431_1302" style="mask-type:luminance" maskUnits="userSpaceOnUse" x="137" y="60" width="59" height="50">
<path d="M184.943 71.0652L152.281 66.5768C149.391 66.1796 146.726 68.2006 146.329 71.0907L143.328 92.9252C142.931 95.8154 144.952 98.4803 147.842 98.8774L180.504 103.366C183.394 103.763 186.059 101.742 186.456 98.8519L189.457 77.0174C189.854 74.1273 187.833 71.4624 184.943 71.0652Z" stroke="#ECECEC" stroke-width="12.0478"/>
</mask>
<g mask="url(#mask11_431_1302)">
<path d="M184.943 71.0652L152.281 66.5768C149.391 66.1796 146.726 68.2006 146.329 71.0907L143.328 92.9252C142.931 95.8154 144.952 98.4803 147.842 98.8774L180.504 103.366C183.394 103.763 186.059 101.742 186.456 98.8519L189.457 77.0174C189.854 74.1273 187.833 71.4624 184.943 71.0652Z" stroke="#ECECEC" stroke-width="12.0478"/>
</g>
<path d="M15.3761 98.4197C15.3761 98.4196 15.3783 98.419 15.3828 98.4183M15.6352 98.453C15.6393 98.4549 15.6412 98.456 15.6412 98.4561M17.1564 87.4302C17.1564 87.4303 17.1542 87.4309 17.1498 87.4316M16.8973 87.3969C16.8932 87.395 16.8913 87.3939 16.8913 87.3938M17.8838 93.1472C17.6168 95.0908 16.9614 96.6429 16.2687 97.5858C15.9239 98.0551 15.6677 98.2627 15.5203 98.3529C15.4027 98.2262 15.2121 97.9573 15.0067 97.4124C14.5939 96.3176 14.3816 94.6463 14.6487 92.7027C14.9158 90.7591 15.5711 89.207 16.2638 88.2641C16.6087 87.7948 16.8648 87.5873 17.0122 87.497C17.1298 87.6237 17.3204 87.8926 17.5258 88.4375C17.9386 89.5323 18.1509 91.2037 17.8838 93.1472Z" stroke="#ECECEC" stroke-width="6.02388"/>
<path d="M41.755 54.4731L35.0045 53.5455C32.3043 53.1744 30.6274 55.8221 30.1265 57.1924C28.6517 62.9951 25.5933 75.0506 25.1584 76.8506C24.7234 78.6505 26.1691 79.923 26.9463 80.3342C29.8538 80.7891 36.2103 81.7401 38.3761 81.9049C40.5419 82.0697 41.5641 80.129 41.8045 79.1381L44.6376 58.5223C45.0835 55.2771 43.0628 54.6252 41.755 54.4731Z" stroke="#ECECEC" stroke-width="6.02388"/>
<mask id="mask12_431_1302" style="mask-type:alpha" maskUnits="userSpaceOnUse" x="469" y="792" width="143" height="129">
<path d="M498.099 910.842L472.568 844.905C471.062 841.017 473.723 837.979 475.242 836.946L575.634 798.073C579.87 796.433 582.435 800.056 583.188 802.072L608.719 868.009C610.337 872.187 607.391 874.918 605.716 875.762L505.323 914.634C500.913 916.342 498.669 912.818 498.099 910.842Z" stroke="#F2DEBA" stroke-width="5"/>
<path d="M492.601 830.725L522.43 907.76" stroke="#F2DEBA" stroke-width="5"/>
<path d="M558.265 805.133L588.234 882.531" stroke="#F2DEBA" stroke-width="5"/>
<path d="M514.75 913.129C515.695 915.21 519.192 919 525.622 917.511C532.052 916.022 532.901 909.382 532.522 906.248" stroke="#F2DEBA" stroke-width="5"/>
<path d="M580.178 887.794C581.123 889.875 584.62 893.665 591.051 892.176C597.481 890.687 598.33 884.047 597.95 880.913" stroke="#F2DEBA" stroke-width="5"/>
<path d="M505.936 825.906L500.694 812.369C500.301 811.276 500.118 808.856 502.527 807.923C504.936 806.991 526.195 798.759 536.524 794.76C537.542 794.407 539.82 794.33 540.793 796.842C541.766 799.355 544.693 806.914 546.035 810.379" stroke="#F2DEBA" stroke-width="5"/>
<path d="M512.674 821.152L510.943 816.682C510.621 815.71 510.492 813.546 512.542 812.67C514.592 811.794 526.622 807.183 532.381 804.988C533.247 804.653 535.207 804.572 536.121 806.933C537.035 809.293 537.656 810.896 537.852 811.403" stroke="#F2DEBA" stroke-width="5"/>
</mask>
<g mask="url(#mask12_431_1302)">
<path d="M620 765H450V870H620V765Z" fill="#ECECEC"/>
</g>
</svg>
