<svg width="194" height="17" viewBox="0 0 194 17" fill="none" xmlns="http://www.w3.org/2000/svg">
<path d="M0.576 11.632L1.206 10.3C1.758 10.732 2.364 11.056 3.024 11.272C3.696 11.488 4.362 11.602 5.022 11.614C5.682 11.614 6.288 11.524 6.84 11.344C7.404 11.164 7.854 10.894 8.19 10.534C8.526 10.174 8.694 9.73 8.694 9.202C8.694 8.554 8.43 8.062 7.902 7.726C7.386 7.39 6.666 7.222 5.742 7.222H2.934V5.764H5.616C6.42 5.764 7.044 5.602 7.488 5.278C7.944 4.942 8.172 4.48 8.172 3.892C8.172 3.448 8.034 3.076 7.758 2.776C7.494 2.464 7.128 2.23 6.66 2.074C6.204 1.918 5.682 1.84 5.094 1.84C4.518 1.828 3.924 1.906 3.312 2.074C2.7 2.23 2.112 2.482 1.548 2.83L0.972 1.354C1.74 0.922 2.538 0.622 3.366 0.454C4.206 0.274 5.016 0.22 5.796 0.291999C6.576 0.351999 7.278 0.531999 7.902 0.831999C8.538 1.12 9.042 1.504 9.414 1.984C9.798 2.452 9.99 3.016 9.99 3.676C9.99 4.276 9.834 4.81 9.522 5.278C9.21 5.734 8.778 6.088 8.226 6.34C7.674 6.58 7.032 6.7 6.3 6.7L6.372 6.214C7.212 6.214 7.938 6.352 8.55 6.628C9.174 6.892 9.654 7.27 9.99 7.762C10.338 8.254 10.512 8.824 10.512 9.472C10.512 10.084 10.356 10.63 10.044 11.11C9.732 11.578 9.306 11.974 8.766 12.298C8.238 12.61 7.632 12.838 6.948 12.982C6.276 13.126 5.568 13.174 4.824 13.126C4.08 13.078 3.342 12.934 2.61 12.694C1.89 12.454 1.212 12.1 0.576 11.632ZM19.0728 13V10.984L18.9828 10.606V7.168C18.9828 6.436 18.7668 5.872 18.3348 5.476C17.9148 5.068 17.2788 4.864 16.4268 4.864C15.8628 4.864 15.3108 4.96 14.7708 5.152C14.2308 5.332 13.7748 5.578 13.4028 5.89L12.6828 4.594C13.1748 4.198 13.7628 3.898 14.4468 3.694C15.1428 3.478 15.8688 3.37 16.6248 3.37C17.9328 3.37 18.9408 3.688 19.6488 4.324C20.3568 4.96 20.7108 5.932 20.7108 7.24V13H19.0728ZM15.9408 13.108C15.2328 13.108 14.6088 12.988 14.0688 12.748C13.5408 12.508 13.1328 12.178 12.8448 11.758C12.5568 11.326 12.4128 10.84 12.4128 10.3C12.4128 9.784 12.5328 9.316 12.7728 8.896C13.0248 8.476 13.4268 8.14 13.9788 7.888C14.5428 7.636 15.2988 7.51 16.2468 7.51H19.2708V8.752H16.3188C15.4548 8.752 14.8728 8.896 14.5728 9.184C14.2728 9.472 14.1228 9.82 14.1228 10.228C14.1228 10.696 14.3088 11.074 14.6808 11.362C15.0528 11.638 15.5688 11.776 16.2288 11.776C16.8768 11.776 17.4408 11.632 17.9208 11.344C18.4128 11.056 18.7668 10.636 18.9828 10.084L19.3248 11.272C19.0968 11.836 18.6948 12.286 18.1188 12.622C17.5428 12.946 16.8168 13.108 15.9408 13.108ZM28.8804 13.108C28.0884 13.108 27.3624 12.928 26.7024 12.568C26.0544 12.196 25.5324 11.65 25.1364 10.93C24.7524 10.21 24.5604 9.31 24.5604 8.23C24.5604 7.15 24.7464 6.25 25.1184 5.53C25.5024 4.81 26.0184 4.27 26.6664 3.91C27.3264 3.55 28.0644 3.37 28.8804 3.37C29.8164 3.37 30.6444 3.574 31.3644 3.982C32.0844 4.39 32.6544 4.96 33.0744 5.692C33.4944 6.412 33.7044 7.258 33.7044 8.23C33.7044 9.202 33.4944 10.054 33.0744 10.786C32.6544 11.518 32.0844 12.088 31.3644 12.496C30.6444 12.904 29.8164 13.108 28.8804 13.108ZM23.8224 16.492V3.46H25.4784V6.034L25.3704 8.248L25.5504 10.462V16.492H23.8224ZM28.7364 11.596C29.3484 11.596 29.8944 11.458 30.3744 11.182C30.8664 10.906 31.2504 10.516 31.5264 10.012C31.8144 9.496 31.9584 8.902 31.9584 8.23C31.9584 7.546 31.8144 6.958 31.5264 6.466C31.2504 5.962 30.8664 5.572 30.3744 5.296C29.8944 5.02 29.3484 4.882 28.7364 4.882C28.1364 4.882 27.5904 5.02 27.0984 5.296C26.6184 5.572 26.2344 5.962 25.9464 6.466C25.6704 6.958 25.5324 7.546 25.5324 8.23C25.5324 8.902 25.6704 9.496 25.9464 10.012C26.2344 10.516 26.6184 10.906 27.0984 11.182C27.5904 11.458 28.1364 11.596 28.7364 11.596ZM40.463 13.108C39.443 13.108 38.543 12.898 37.763 12.478C36.995 12.058 36.395 11.482 35.963 10.75C35.543 10.018 35.333 9.178 35.333 8.23C35.333 7.282 35.537 6.442 35.945 5.71C36.365 4.978 36.935 4.408 37.655 4C38.387 3.58 39.209 3.37 40.121 3.37C41.045 3.37 41.861 3.574 42.569 3.982C43.277 4.39 43.829 4.966 44.225 5.71C44.633 6.442 44.837 7.3 44.837 8.284C44.837 8.356 44.831 8.44 44.819 8.536C44.819 8.632 44.813 8.722 44.801 8.806H36.683V7.564H43.901L43.199 7.996C43.211 7.384 43.085 6.838 42.821 6.358C42.557 5.878 42.191 5.506 41.723 5.242C41.267 4.966 40.733 4.828 40.121 4.828C39.521 4.828 38.987 4.966 38.519 5.242C38.051 5.506 37.685 5.884 37.421 6.376C37.157 6.856 37.025 7.408 37.025 8.032V8.32C37.025 8.956 37.169 9.526 37.457 10.03C37.757 10.522 38.171 10.906 38.699 11.182C39.227 11.458 39.833 11.596 40.517 11.596C41.081 11.596 41.591 11.5 42.047 11.308C42.515 11.116 42.923 10.828 43.271 10.444L44.225 11.56C43.793 12.064 43.253 12.448 42.605 12.712C41.969 12.976 41.255 13.108 40.463 13.108ZM47.5178 13V3.46H54.5378V4.972H48.8318L49.2458 4.576V13H47.5178ZM60.1329 13.108C59.1129 13.108 58.2129 12.898 57.4329 12.478C56.6649 12.058 56.0649 11.482 55.6329 10.75C55.2129 10.018 55.0029 9.178 55.0029 8.23C55.0029 7.282 55.2069 6.442 55.6149 5.71C56.0349 4.978 56.6049 4.408 57.3249 4C58.0569 3.58 58.8789 3.37 59.7909 3.37C60.7149 3.37 61.5309 3.574 62.2389 3.982C62.9469 4.39 63.4989 4.966 63.8949 5.71C64.3029 6.442 64.5069 7.3 64.5069 8.284C64.5069 8.356 64.5009 8.44 64.4889 8.536C64.4889 8.632 64.4829 8.722 64.4709 8.806H56.3529V7.564H63.5709L62.8689 7.996C62.8809 7.384 62.7549 6.838 62.4909 6.358C62.2269 5.878 61.8609 5.506 61.3929 5.242C60.9369 4.966 60.4029 4.828 59.7909 4.828C59.1909 4.828 58.6569 4.966 58.1889 5.242C57.7209 5.506 57.3549 5.884 57.0909 6.376C56.8269 6.856 56.6949 7.408 56.6949 8.032V8.32C56.6949 8.956 56.8389 9.526 57.1269 10.03C57.4269 10.522 57.8409 10.906 58.3689 11.182C58.8969 11.458 59.5029 11.596 60.1869 11.596C60.7509 11.596 61.2609 11.5 61.7169 11.308C62.1849 11.116 62.5929 10.828 62.9409 10.444L63.8949 11.56C63.4629 12.064 62.9229 12.448 62.2749 12.712C61.6389 12.976 60.9249 13.108 60.1329 13.108ZM71.3457 13.108C70.3737 13.108 69.5037 12.898 68.7357 12.478C67.9797 12.058 67.3857 11.482 66.9537 10.75C66.5217 10.018 66.3057 9.178 66.3057 8.23C66.3057 7.282 66.5217 6.442 66.9537 5.71C67.3857 4.978 67.9797 4.408 68.7357 4C69.5037 3.58 70.3737 3.37 71.3457 3.37C72.2097 3.37 72.9777 3.544 73.6497 3.892C74.3337 4.228 74.8617 4.732 75.2337 5.404L73.9197 6.25C73.6077 5.782 73.2237 5.44 72.7677 5.224C72.3237 4.996 71.8437 4.882 71.3277 4.882C70.7037 4.882 70.1457 5.02 69.6537 5.296C69.1617 5.572 68.7717 5.962 68.4837 6.466C68.1957 6.958 68.0517 7.546 68.0517 8.23C68.0517 8.914 68.1957 9.508 68.4837 10.012C68.7717 10.516 69.1617 10.906 69.6537 11.182C70.1457 11.458 70.7037 11.596 71.3277 11.596C71.8437 11.596 72.3237 11.488 72.7677 11.272C73.2237 11.044 73.6077 10.696 73.9197 10.228L75.2337 11.056C74.8617 11.716 74.3337 12.226 73.6497 12.586C72.9777 12.934 72.2097 13.108 71.3457 13.108ZM79.2378 13V4.522L79.6698 4.972H75.7458V3.46H84.4578V4.972H80.5518L80.9658 4.522V13H79.2378ZM91.2828 13.108C90.4908 13.108 89.7648 12.928 89.1048 12.568C88.4568 12.196 87.9348 11.65 87.5388 10.93C87.1548 10.21 86.9628 9.31 86.9628 8.23C86.9628 7.15 87.1488 6.25 87.5208 5.53C87.9048 4.81 88.4208 4.27 89.0688 3.91C89.7288 3.55 90.4668 3.37 91.2828 3.37C92.2188 3.37 93.0468 3.574 93.7668 3.982C94.4868 4.39 95.0568 4.96 95.4768 5.692C95.8968 6.412 96.1068 7.258 96.1068 8.23C96.1068 9.202 95.8968 10.054 95.4768 10.786C95.0568 11.518 94.4868 12.088 93.7668 12.496C93.0468 12.904 92.2188 13.108 91.2828 13.108ZM86.2248 16.492V3.46H87.8808V6.034L87.7728 8.248L87.9528 10.462V16.492H86.2248ZM91.1388 11.596C91.7508 11.596 92.2968 11.458 92.7768 11.182C93.2688 10.906 93.6528 10.516 93.9288 10.012C94.2168 9.496 94.3608 8.902 94.3608 8.23C94.3608 7.546 94.2168 6.958 93.9288 6.466C93.6528 5.962 93.2688 5.572 92.7768 5.296C92.2968 5.02 91.7508 4.882 91.1388 4.882C90.5388 4.882 89.9928 5.02 89.5008 5.296C89.0208 5.572 88.6368 5.962 88.3488 6.466C88.0728 6.958 87.9348 7.546 87.9348 8.23C87.9348 8.902 88.0728 9.496 88.3488 10.012C88.6368 10.516 89.0208 10.906 89.5008 11.182C89.9928 11.458 90.5388 11.596 91.1388 11.596ZM98.6174 13V3.46H100.345V10.408L106.195 3.46H107.761V13H106.033V6.052L100.201 13H98.6174ZM116.173 13.108C115.381 13.108 114.655 12.928 113.995 12.568C113.347 12.196 112.825 11.65 112.429 10.93C112.045 10.21 111.853 9.31 111.853 8.23C111.853 7.15 112.039 6.25 112.411 5.53C112.795 4.81 113.311 4.27 113.959 3.91C114.619 3.55 115.357 3.37 116.173 3.37C117.109 3.37 117.937 3.574 118.657 3.982C119.377 4.39 119.947 4.96 120.367 5.692C120.787 6.412 120.997 7.258 120.997 8.23C120.997 9.202 120.787 10.054 120.367 10.786C119.947 11.518 119.377 12.088 118.657 12.496C117.937 12.904 117.109 13.108 116.173 13.108ZM111.115 16.492V3.46H112.771V6.034L112.663 8.248L112.843 10.462V16.492H111.115ZM116.029 11.596C116.641 11.596 117.187 11.458 117.667 11.182C118.159 10.906 118.543 10.516 118.819 10.012C119.107 9.496 119.251 8.902 119.251 8.23C119.251 7.546 119.107 6.958 118.819 6.466C118.543 5.962 118.159 5.572 117.667 5.296C117.187 5.02 116.641 4.882 116.029 4.882C115.429 4.882 114.883 5.02 114.391 5.296C113.911 5.572 113.527 5.962 113.239 6.466C112.963 6.958 112.825 7.546 112.825 8.23C112.825 8.902 112.963 9.496 113.239 10.012C113.527 10.516 113.911 10.906 114.391 11.182C114.883 11.458 115.429 11.596 116.029 11.596ZM127.594 13.108C126.634 13.108 125.782 12.898 125.038 12.478C124.294 12.058 123.706 11.482 123.274 10.75C122.842 10.006 122.626 9.166 122.626 8.23C122.626 7.282 122.842 6.442 123.274 5.71C123.706 4.978 124.294 4.408 125.038 4C125.782 3.58 126.634 3.37 127.594 3.37C128.542 3.37 129.388 3.58 130.132 4C130.888 4.408 131.476 4.978 131.896 5.71C132.328 6.43 132.544 7.27 132.544 8.23C132.544 9.178 132.328 10.018 131.896 10.75C131.476 11.482 130.888 12.058 130.132 12.478C129.388 12.898 128.542 13.108 127.594 13.108ZM127.594 11.596C128.206 11.596 128.752 11.458 129.232 11.182C129.724 10.906 130.108 10.516 130.384 10.012C130.66 9.496 130.798 8.902 130.798 8.23C130.798 7.546 130.66 6.958 130.384 6.466C130.108 5.962 129.724 5.572 129.232 5.296C128.752 5.02 128.206 4.882 127.594 4.882C126.982 4.882 126.436 5.02 125.956 5.296C125.476 5.572 125.092 5.962 124.804 6.466C124.516 6.958 124.372 7.546 124.372 8.23C124.372 8.902 124.516 9.496 124.804 10.012C125.092 10.516 125.476 10.906 125.956 11.182C126.436 11.458 126.982 11.596 127.594 11.596ZM135.039 13V3.46H139.467C140.583 3.46 141.459 3.676 142.095 4.108C142.743 4.528 143.067 5.128 143.067 5.908C143.067 6.688 142.761 7.294 142.149 7.726C141.549 8.146 140.751 8.356 139.755 8.356L140.025 7.888C141.165 7.888 142.011 8.098 142.563 8.518C143.115 8.938 143.391 9.556 143.391 10.372C143.391 11.2 143.079 11.848 142.455 12.316C141.843 12.772 140.901 13 139.629 13H135.039ZM136.731 11.668H139.503C140.223 11.668 140.763 11.56 141.123 11.344C141.483 11.116 141.663 10.756 141.663 10.264C141.663 9.76 141.495 9.394 141.159 9.166C140.835 8.926 140.319 8.806 139.611 8.806H136.731V11.668ZM136.731 7.564H139.323C139.983 7.564 140.481 7.444 140.817 7.204C141.165 6.952 141.339 6.604 141.339 6.16C141.339 5.704 141.165 5.362 140.817 5.134C140.481 4.906 139.983 4.792 139.323 4.792H136.731V7.564ZM151.946 13V10.984L151.856 10.606V7.168C151.856 6.436 151.64 5.872 151.208 5.476C150.788 5.068 150.152 4.864 149.3 4.864C148.736 4.864 148.184 4.96 147.644 5.152C147.104 5.332 146.648 5.578 146.276 5.89L145.556 4.594C146.048 4.198 146.636 3.898 147.32 3.694C148.016 3.478 148.742 3.37 149.498 3.37C150.806 3.37 151.814 3.688 152.522 4.324C153.23 4.96 153.584 5.932 153.584 7.24V13H151.946ZM148.814 13.108C148.106 13.108 147.482 12.988 146.942 12.748C146.414 12.508 146.006 12.178 145.718 11.758C145.43 11.326 145.286 10.84 145.286 10.3C145.286 9.784 145.406 9.316 145.646 8.896C145.898 8.476 146.3 8.14 146.852 7.888C147.416 7.636 148.172 7.51 149.12 7.51H152.144V8.752H149.192C148.328 8.752 147.746 8.896 147.446 9.184C147.146 9.472 146.996 9.82 146.996 10.228C146.996 10.696 147.182 11.074 147.554 11.362C147.926 11.638 148.442 11.776 149.102 11.776C149.75 11.776 150.314 11.632 150.794 11.344C151.286 11.056 151.64 10.636 151.856 10.084L152.198 11.272C151.97 11.836 151.568 12.286 150.992 12.622C150.416 12.946 149.69 13.108 148.814 13.108ZM158.585 13V4.522L159.017 4.972H155.093V3.46H163.805V4.972H159.899L160.313 4.522V13H158.585ZM169.982 6.7C171.194 6.712 172.118 6.988 172.754 7.528C173.39 8.068 173.708 8.83 173.708 9.814C173.708 10.846 173.36 11.644 172.664 12.208C171.968 12.76 170.984 13.03 169.712 13.018L165.572 13V3.46H167.3V6.682L169.982 6.7ZM169.568 11.704C170.348 11.716 170.936 11.56 171.332 11.236C171.74 10.912 171.944 10.432 171.944 9.796C171.944 9.172 171.746 8.716 171.35 8.428C170.954 8.14 170.36 7.99 169.568 7.978L167.3 7.942V11.686L169.568 11.704ZM180.084 13.108C179.112 13.108 178.242 12.898 177.474 12.478C176.718 12.058 176.124 11.482 175.692 10.75C175.26 10.018 175.044 9.178 175.044 8.23C175.044 7.282 175.26 6.442 175.692 5.71C176.124 4.978 176.718 4.408 177.474 4C178.242 3.58 179.112 3.37 180.084 3.37C180.948 3.37 181.716 3.544 182.388 3.892C183.072 4.228 183.6 4.732 183.972 5.404L182.658 6.25C182.346 5.782 181.962 5.44 181.506 5.224C181.062 4.996 180.582 4.882 180.066 4.882C179.442 4.882 178.884 5.02 178.392 5.296C177.9 5.572 177.51 5.962 177.222 6.466C176.934 6.958 176.79 7.546 176.79 8.23C176.79 8.914 176.934 9.508 177.222 10.012C177.51 10.516 177.9 10.906 178.392 11.182C178.884 11.458 179.442 11.596 180.066 11.596C180.582 11.596 181.062 11.488 181.506 11.272C181.962 11.044 182.346 10.696 182.658 10.228L183.972 11.056C183.6 11.716 183.072 12.226 182.388 12.586C181.716 12.934 180.948 13.108 180.084 13.108ZM192.012 13V9.652L192.282 9.976H189.24C187.968 9.976 186.972 9.706 186.252 9.166C185.544 8.626 185.19 7.84 185.19 6.808C185.19 5.704 185.568 4.87 186.324 4.306C187.092 3.742 188.112 3.46 189.384 3.46H193.56V13H192.012ZM185.1 13L187.692 9.346H189.474L186.954 13H185.1ZM192.012 9.112V4.486L192.282 4.972H189.438C188.646 4.972 188.034 5.122 187.602 5.422C187.17 5.71 186.954 6.19 186.954 6.862C186.954 8.11 187.758 8.734 189.366 8.734H192.282L192.012 9.112Z" fill="#007895"/>
</svg>
