<?xml version="1.0" encoding="UTF-8" standalone="no"?>
<!-- Created with Inkscape (http://www.inkscape.org/) -->

<svg
   version="1.1"
   id="svg220"
   width="109"
   height="43"
   viewBox="0 0 109 43"
   sodipodi:docname="web_gen_logo_blue.svg"
   inkscape:version="1.2 (dc2aedaf03, 2022-05-15)"
   xmlns:inkscape="http://www.inkscape.org/namespaces/inkscape"
   xmlns:sodipodi="http://sodipodi.sourceforge.net/DTD/sodipodi-0.dtd"
   xmlns="http://www.w3.org/2000/svg"
   xmlns:svg="http://www.w3.org/2000/svg">
  <defs
     id="defs224">
    <rect
       x="30.236606"
       y="6.8893532"
       width="96.617547"
       height="37.393127"
       id="rect483" />
    <rect
       x="33.011484"
       y="11.673626"
       width="75.113087"
       height="29.662493"
       id="rect477" />
  </defs>
  <sodipodi:namedview
     id="namedview222"
     pagecolor="#505050"
     bordercolor="#ffffff"
     borderopacity="1"
     inkscape:showpageshadow="0"
     inkscape:pageopacity="0"
     inkscape:pagecheckerboard="1"
     inkscape:deskcolor="#505050"
     showgrid="false"
     inkscape:zoom="5.225454"
     inkscape:cx="83.724783"
     inkscape:cy="0.2870564"
     inkscape:window-width="1920"
     inkscape:window-height="1001"
     inkscape:window-x="-9"
     inkscape:window-y="-9"
     inkscape:window-maximized="1"
     inkscape:current-layer="g226" />
  <g
     inkscape:groupmode="layer"
     inkscape:label="Image"
     id="g226">
    <g
       id="g177"
       transform="matrix(0.05482772,0,0,0.05482772,-10.112663,-3.0636619)"
       inkscape:transform-center-x="-0.50362994"
       inkscape:transform-center-y="4.2809068">
      <path
         style="fill:#f6ca35"
         d="M 404.44343,326.01927 C 344.86476,325.5 344.86476,325.5 341.28271,322.7672 c -7.35344,-5.61003 -9.11525,-19.68025 -3.40218,-27.17048 5.67794,-7.44417 2.05195,-7.06438 70.42509,-7.37624 43.33365,-0.19765 62.51852,0.0525 65.5,0.8539 8.28231,2.22633 14.6901,12.56959 13.06457,21.08842 -0.98012,5.13645 -3.99649,10.45065 -7.24465,12.76355 -2.72128,1.93771 -11.91597,4.37627 -14.48993,3.84292 -0.61243,-0.1269 -27.92391,-0.4644 -60.69218,-0.75 z m -51.2484,-87.76907 c 31.44511,-0.14658 83.19511,-0.14661 115,-7e-5 31.80489,0.14654 6.07707,0.26647 -57.17293,0.26651 -63.25,3e-5 -89.27218,-0.11986 -57.82707,-0.26644 z m -68.18922,-4.39864 c -3.3266,-2.9208 -6.53738,-7.68035 -6.44367,-9.5519 0.022,-0.43981 0.75334,0.55034 1.62516,2.20034 2.17175,4.11025 4.2978,6.45466 7.8348,8.63944 1.65,1.0192 2.45316,1.85477 1.7848,1.85682 -0.66837,0.002 -2.82885,-1.41306 -4.80109,-3.1447 z m 248.01629,1.28788 c 3.537,-2.18478 5.66305,-4.52919 7.8348,-8.63944 0.87182,-1.65 1.60314,-2.64015 1.62516,-2.20034 0.1547,3.08978 -8.36145,12.70547 -11.24476,12.6966 -0.66836,-0.002 0.1348,-0.83762 1.7848,-1.85682 z m -254.45996,-26.4391 c -0.0848,-1.69449 2.89539,-6.31042 5.61495,-8.69671 2.84501,-2.49636 2.84501,-2.49636 0.21382,0.5 -1.44716,1.64801 -3.34164,4.34637 -4.20996,5.99637 -0.86833,1.65 -1.59679,2.64015 -1.61881,2.20034 z m 262.0219,-2.5508 c -1.25612,-3.03255 -5.11764,-7.085 -8.56194,-8.98528 -1.1,-0.6069 -1.45316,-1.11713 -0.7848,-1.13385 2.90469,-0.0727 12.57796,11.00976 10.99314,12.59459 -0.24153,0.24152 -0.9824,-0.87243 -1.6464,-2.47546 z M 353.2721,194.25016 c 31.4875,-0.1466 83.0125,-0.1466 114.5,0 31.4875,0.1466 5.725,0.26655 -57.25,0.26655 -62.975,0 -88.7375,-0.11995 -57.25,-0.26655 z"
         id="path191" />
      <path
         style="fill:#b4d932"
         d="m 345.0221,609.58264 c -3.72671,-1.66345 -8.03106,-6.17824 -9.43638,-9.89774 -2.60337,-6.8904 -0.39503,-17.36473 4.61657,-21.89676 5.29426,-4.78765 5.32242,-4.78955 70.53769,-4.76618 68.92624,0.0247 66.46982,-0.23117 72.39821,7.54135 2.59781,3.40591 2.88391,4.54003 2.88391,11.43212 0,6.5101 -0.37283,8.20163 -2.5,11.34268 -1.375,2.03036 -4.32958,4.58489 -6.56572,5.67673 -3.92605,1.91696 -6.21068,1.98382 -66.5,1.94602 -49.9359,-0.0313 -63.03483,-0.30721 -65.43428,-1.37822 z M 523.0221,398 c 2.14824,-2.2 4.1309,-4 4.4059,-4 0.275,0 -1.25766,1.8 -3.4059,4 -2.14824,2.2 -4.1309,4 -4.4059,4 -0.275,0 1.25766,-1.8 3.4059,-4 z m -40,-43 c 3.26557,-3.3 6.16239,-6 6.43739,-6 0.275,0 -2.17182,2.7 -5.43739,6 -3.26557,3.3 -6.16239,6 -6.43739,6 -0.275,0 2.17182,-2.7 5.43739,-6 z"
         id="path189" />
      <path
         style="fill:#e83230"
         d="M 291.17729,236.54135 C 283.07116,233.65112 278.2721,226.19833 278.2721,216.5 c 0,-10.01719 5.54322,-18.09869 14.03105,-20.45599 5.14271,-1.42827 231.29519,-1.42827 236.4379,0 18.78081,5.21594 18.78081,35.69604 0,40.91198 -2.46277,0.68398 -42.56349,1.01991 -118.71895,0.99454 -94.79774,-0.0316 -115.67542,-0.27914 -118.84481,-1.40918 z"
         id="path187" />
      <path
         style="fill:#a61177"
         d="m 273.26965,143.93066 c -5.83437,-3.08002 -9.12316,-8.88631 -9.57636,-16.90687 -0.29938,-5.29821 0.0487,-7.53449 1.66627,-10.7052 2.64176,-5.17826 8.24237,-10.06263 12.39116,-10.80648 1.79926,-0.3226 62.70993,-0.4573 135.35705,-0.29933 132.08568,0.28722 132.08568,0.28722 136.21484,3.14885 6.0262,4.17634 8.52145,9.93467 8.03506,18.54262 -0.46667,8.25883 -3.75763,13.99502 -9.79685,17.076 -3.91466,1.9971 -5.45349,2.01925 -137.24888,1.97555 -130.88884,-0.0434 -133.35743,-0.0799 -137.04229,-2.02514 z"
         id="path185" />
      <path
         style="fill:#26a460"
         d="m 292.66594,703.81306 c -6.2972,-1.40619 -12.47129,-7.8411 -14.1209,-14.71742 -3.02978,-12.62957 3.4832,-24.36149 14.99711,-27.01449 6.46508,-1.48967 227.09401,-1.4645 234.04722,0.0267 15.94473,3.41953 21.371,24.48229 9.39673,36.47463 -2.75722,2.76138 -5.57675,4.46028 -8.71298,5.25 -5.92197,1.49116 -228.9248,1.47279 -235.60718,-0.0194 z"
         id="path183" />
      <path
         style="fill:#1f619a"
         d="m 209.0221,824.9093 c -9.71995,-1.2639 -16.5004,-5.65189 -21.26961,-13.7647 -2.71625,-4.62055 -2.73213,-4.7585 -3.0656,-26.6446 -1.00136,-65.72048 8.86533,-112.75654 34.82159,-166 32.90831,-67.50403 85.39936,-126.1114 161.63034,-180.46367 66.26324,-47.24534 100.84517,-77.5136 131.76043,-115.32495 C 551.98371,274.90856 576.58614,219.64111 583.55,164 c 0.65394,-5.225 1.4886,-23.225 1.8548,-40 0.73577,-33.704836 0.92852,-34.744551 7.69574,-41.511769 5.68432,-5.68432 11.77049,-7.94862 21.42156,-7.969681 9.64193,-0.02104 15.67562,2.223732 21.42156,7.969681 6.57418,6.57418 7.04376,8.667872 7.40394,33.011769 0.71129,48.07543 -4.20361,83.58514 -16.82958,121.59208 -18.69615,56.2795 -50.72464,106.9361 -98.49,155.77285 -27.70145,28.32279 -44.52462,42.36307 -89.11615,74.37451 -43.23942,31.04079 -61.45282,45.68059 -86.30941,69.3749 C 301.92233,584.92467 267.46201,639.54747 252.6804,695 c -7.56637,28.38491 -9.13679,41.10656 -9.99906,81 -0.65924,30.5 -0.65924,30.5 -3.38963,35.1446 -6.13801,10.44124 -17.18741,15.46581 -30.26961,13.7647 z m 15.75326,-2.90287 c 5.71273,-2.1374 11.34455,-7.24111 14.35231,-13.00643 1.60864,-3.08346 1.90776,-7.30833 2.51336,-35.5 0.8435,-39.26651 2.23164,-50.37475 9.89372,-79.17203 10.32619,-38.81004 31.21339,-78.72788 60.08431,-114.82797 19.69479,-24.6263 40.55019,-45.67255 68.50494,-69.13183 16.21535,-13.60772 28.46317,-22.90579 58.3981,-44.33357 41.22849,-29.51185 60.14783,-45.09795 85,-70.02459 C 586.11123,333.23334 625.91133,260.56494 637.44811,188 c 3.05263,-19.20072 4.12492,-33.13768 4.77017,-62 0.6643,-29.714633 0.0332,-34.289167 -5.68224,-41.186437 -9.35647,-11.291241 -29.80462,-12.492243 -41.68603,-2.448389 -1.74465,1.474826 -4.21965,4.8085 -5.5,7.408164 -2.2425,4.553242 -2.35111,5.900731 -2.96036,36.726662 -0.85782,43.40304 -3.54206,60.45574 -14.87511,94.5 -8.82326,26.5049 -19.0363,47.058 -36.5229,73.5 -14.24178,21.5354 -28.83368,39.00337 -51.40163,61.5329 -28.89416,28.84496 -45.82662,42.87414 -89.56791,74.21034 -42.41196,30.38388 -58.20392,43.04122 -80.91432,64.85328 -39.53875,37.97476 -68.46191,76.39639 -90.63771,120.40348 -27.03707,53.65408 -38.06037,105.1995 -36.78325,172 0.30881,16.15232 0.56564,18.4106 2.50208,22 6.73623,12.48638 22.36299,17.82812 36.58646,12.50643 z m 384.47824,2.90309 c -6.80607,-1.06907 -13.18664,-4.45505 -17.17455,-9.11402 -5.85625,-6.84171 -6.55695,-10.50432 -6.55695,-34.27374 0,-35.69067 -2.4215,-57.08355 -9.54398,-84.31695 -11.19634,-42.81009 -33.39693,-84.52248 -65.79372,-123.61892 -12.22131,-14.74867 -42.9581,-45.53559 -58.9123,-59.00837 -6.4625,-5.45736 -11.75,-10.47633 -11.75,-11.15327 0,-0.67693 6.6375,-5.95305 14.75,-11.7247 8.1125,-5.77166 18.29694,-13.24018 22.63209,-16.59673 4.33516,-3.35655 8.55165,-6.10282 9.37,-6.10282 4.22905,0 47.26002,41.54769 65.8556,63.58556 47.58905,56.39841 75.646,114.93824 86.77361,181.05006 3.70665,22.02216 4.80114,38.62954 4.43957,67.36438 -0.32087,25.5 -0.32087,25.5 -3.06988,30.17638 -6.16063,10.47993 -18.09444,15.76334 -31.01949,13.73314 z m 16.52176,-2.90309 c 5.69173,-2.12955 11.30085,-7.20058 14.38656,-13.00643 1.69707,-3.1931 1.85697,-6.13053 1.82358,-33.5 -0.0217,-17.74209 -0.55998,-34.49457 -1.31751,-41 -9.8533,-84.61664 -45.39651,-156.72178 -110.49139,-224.14961 -13.09651,-13.56588 -40.56452,-38.99489 -43.22404,-40.01545 -0.63336,-0.24304 -7.64715,4.41967 -15.58621,10.36158 -7.93906,5.94192 -18.11205,13.27848 -22.60666,16.30348 -4.49461,3.025 -8.18677,5.79133 -8.2048,6.1474 -0.018,0.35607 5.92971,5.75534 13.21721,11.99839 16.65693,14.26964 42.19624,39.77096 55.25,55.16782 32.49288,38.32522 56.35795,82.18506 67.49553,124.04504 7.66548,28.81027 9.05907,39.97331 9.87996,79.14135 0.6304,30.07908 0.79908,32.24011 2.80996,36 6.66855,12.4687 22.34182,17.82906 36.56781,12.50643 z M 280.0221,794.51793 c -0.55,-0.18864 -2.20282,-0.60722 -3.67293,-0.93017 -1.47011,-0.32295 -4.12164,-1.80619 -5.8923,-3.2961 -8.94922,-7.53027 -9.34465,-23.99417 -0.76844,-31.99393 C 275.66646,752.72152 268.24983,753 410.77809,753 c 131.32023,0 131.32023,0 135.72415,2.25 7.00768,3.58028 10.35021,8.57425 10.83503,16.18828 0.63838,10.0256 -2.84649,17.33037 -10.18429,21.34764 -2.90708,1.59156 -12.53048,1.72698 -134.63088,1.89454 -72.325,0.0992 -131.95,0.0261 -132.5,-0.16253 z M 328.37627,420.12276 C 302.56031,397.39308 273.29821,365.67658 255.37645,341 214.98946,285.39088 191.46653,224.0608 185.57101,159 c -1.46158,-16.12945 -1.36637,-61.208365 0.13989,-66.235816 1.53388,-5.119642 8.66884,-13.032766 14.13865,-15.680652 5.59428,-2.708146 15.19576,-3.684478 21.35592,-2.171588 7.24141,1.778437 14.50666,7.197486 17.90857,13.357762 C 242.00238,93.5 242.00238,93.5 242.66529,123.5 c 0.74247,33.60001 1.66947,43.56396 6.00082,64.5 10.24095,49.50069 36.01552,99.60708 73.60114,143.08239 11.10066,12.84013 45.87447,46.9434 57.52691,56.41761 4.73515,3.85 8.63605,7.69735 8.66866,8.54966 0.0331,0.86398 -4.03356,4.37295 -9.19072,7.93041 -5.0875,3.50942 -15.4352,11.02457 -22.99489,16.70034 C 348.71752,426.35619 342.12689,431 341.63138,431 c -0.49552,0 -6.46031,-4.89476 -13.25511,-10.87724 z m 30.18799,-2.68396 c 7.40181,-5.53365 16.94534,-12.45236 21.20784,-15.37489 4.2625,-2.92254 7.75,-5.65409 7.75,-6.07012 0,-0.41603 -1.6875,-2.03868 -3.75,-3.6059 C 369.09245,381.23335 333.50755,346.4345 318.44108,328.5 281.97419,285.09131 259.06579,240.41835 247.99292,191.12119 243.31598,170.29915 242.31939,160.13867 241.65455,126.5 241.0453,95.674069 240.93669,94.32658 238.69419,89.773338 234.14282,80.53209 225.42953,75.663091 213.40876,75.643798 c -13.41793,-0.02154 -23.15325,6.697385 -26.55651,18.328206 -1.36854,4.677075 -1.52055,9.688956 -1.04636,34.499996 0.71842,37.58976 3.27027,57.62869 11.20989,88.028 18.56525,71.08286 58.99354,135.3281 121.2781,192.72493 21.52268,19.83371 23.05196,21.02259 25.10876,19.51987 0.93708,-0.68464 7.7598,-5.77234 15.16162,-11.306 z"
         id="path181" />
      <path
         style="fill:#181c44"
         d="m 202.10332,821.9858 c -5.7391,-2.24096 -10.87256,-6.84736 -13.91442,-12.4858 -1.93644,-3.5894 -2.19327,-5.84768 -2.50208,-22 -1.27712,-66.8005 9.74618,-118.34592 36.78325,-172 22.1758,-44.00709 51.09896,-82.42872 90.63771,-120.40348 22.7104,-21.81206 38.50236,-34.4694 80.91432,-64.85328 43.74129,-31.3362 60.67375,-45.36538 89.56791,-74.21034 22.56795,-22.52953 37.15985,-39.9975 51.40163,-61.5329 17.4866,-26.442 27.69964,-46.9951 36.5229,-73.5 11.33305,-34.04426 14.01729,-51.09696 14.87511,-94.5 0.60925,-30.825931 0.71786,-32.17342 2.96036,-36.726662 4.55137,-9.241248 13.26466,-14.110247 25.28543,-14.12954 13.43027,-0.02156 23.1522,6.696138 26.56532,18.356202 1.37491,4.697041 1.52346,9.3688 1.01752,32 -0.64525,28.86232 -1.71754,42.79928 -4.77017,62 -11.53678,72.56494 -51.33688,145.23334 -113.92601,208.01001 -24.85217,24.92664 -43.77151,40.51274 -85,70.02459 -40.10398,28.70691 -57.57943,42.60052 -82.71365,65.7603 -51.66246,47.60408 -89.30661,106.28063 -104.2737,162.53307 -7.66208,28.79728 -9.05022,39.90552 -9.89372,79.17203 -0.7627,35.50463 -0.70797,35.20987 -7.93835,42.75643 -7.01471,7.32147 -21.01915,9.86066 -31.59936,5.72937 z m 401,0 c -5.75033,-2.24534 -10.88776,-6.86149 -13.89577,-12.4858 -2.01088,-3.75989 -2.17956,-5.92092 -2.80996,-36 -0.82089,-39.16804 -2.21448,-50.33108 -9.87996,-79.14135 -11.13758,-41.85998 -35.00265,-85.71982 -67.49553,-124.04504 -13.05376,-15.39686 -38.59307,-40.89818 -55.25,-55.16782 -7.2875,-6.24305 -13.23525,-11.64232 -13.21721,-11.99839 0.018,-0.35607 3.71019,-3.1224 8.2048,-6.1474 4.49461,-3.025 14.6676,-10.36156 22.60666,-16.30348 7.93906,-5.94191 14.95285,-10.60462 15.58621,-10.36158 2.65952,1.02056 30.12753,26.44957 43.22404,40.01545 65.09488,67.42783 100.63809,139.53297 110.49139,224.14961 0.75753,6.50543 1.29586,23.25791 1.31751,41 0.0408,33.47661 0.12082,33.02903 -7.28282,40.75643 -7.01471,7.32147 -21.01915,9.86066 -31.59936,5.72937 z M 337.36049,426.39348 C 316.73867,409.29994 285.89643,377.83445 268.52034,356.16224 233.46568,312.44054 210.20973,267.01718 197.01578,216.5 c -7.93962,-30.39931 -10.49147,-50.43824 -11.20989,-88.028 -0.62036,-32.459034 -0.0669,-36.696264 5.70227,-43.658437 9.35647,-11.291241 29.80462,-12.492243 41.68603,-2.448389 1.74465,1.474826 4.21965,4.8085 5.5,7.408164 2.2425,4.553242 2.35111,5.900731 2.96036,36.726662 0.66484,33.63867 1.66143,43.79915 6.33837,64.62119 11.07287,49.29716 33.98127,93.97012 70.44816,137.37881 15.06647,17.9345 50.65137,52.73335 65.33102,63.88789 2.0625,1.56722 3.75,3.18987 3.75,3.6059 0,0.41603 -3.4875,3.14758 -7.75,6.07012 -4.2625,2.92253 -13.80603,9.84124 -21.20784,15.37489 -7.40182,5.53366 -14.22454,10.62136 -15.16162,11.306 -1.44464,1.05547 -2.36359,0.69786 -6.04215,-2.35132 z"
         id="path179" />
    </g>
    <text
       xml:space="preserve"
       id="text475"
       style="font-size:16px;white-space:pre;shape-inside:url(#rect477);display:inline;fill:#000000" />
    <text
       xml:space="preserve"
       id="text481"
       style="font-style:normal;font-variant:normal;font-weight:normal;font-stretch:normal;font-size:18.6667px;line-height:1.6;font-family:sans-serif;-inkscape-font-specification:sans-serif;letter-spacing:-0.03px;word-spacing:0.02px;white-space:pre;shape-inside:url(#rect483);display:inline;fill:#181c44;fill-opacity:1"
       transform="matrix(0.91257599,0,0,1.3655841,-0.97831355,-4.816759)"><tspan
         x="30.236328"
         y="27.185541"
         id="tspan3187">WEB-GEN</tspan></text>
    <path
       style="fill:#000000;stroke-width:0.0956855"
       d=""
       id="path286" />
  </g>
</svg>
