<svg width="289" height="99" viewBox="0 0 289 99" fill="none" xmlns="http://www.w3.org/2000/svg">
<path d="M96.515 80V49.9H110.017C113.486 49.9 116.152 50.6023 118.015 52.007C119.878 53.383 120.81 55.275 120.81 57.683C120.81 59.317 120.437 60.693 119.692 61.811C118.975 62.929 118.001 63.789 116.768 64.391C115.535 64.993 114.202 65.294 112.769 65.294L113.543 64.004C115.263 64.004 116.782 64.305 118.101 64.907C119.42 65.509 120.466 66.3977 121.24 67.573C122.014 68.7197 122.401 70.153 122.401 71.873C122.401 74.453 121.426 76.4597 119.477 77.893C117.556 79.2977 114.69 80 110.877 80H96.515ZM100.815 76.517H110.705C113.084 76.517 114.905 76.1157 116.166 75.313C117.427 74.5103 118.058 73.249 118.058 71.529C118.058 69.7803 117.427 68.5047 116.166 67.702C114.905 66.8993 113.084 66.498 110.705 66.498H100.428V63.015H109.63C111.809 63.015 113.5 62.6137 114.704 61.811C115.908 61.0083 116.51 59.8043 116.51 58.199C116.51 56.5937 115.908 55.3897 114.704 54.587C113.5 53.7843 111.809 53.383 109.63 53.383H100.815V76.517ZM129.446 88.6C128.357 88.6 127.296 88.4137 126.264 88.041C125.232 87.697 124.343 87.181 123.598 86.493L125.361 83.397C125.934 83.9417 126.565 84.3573 127.253 84.644C127.941 84.9307 128.672 85.074 129.446 85.074C130.449 85.074 131.281 84.816 131.94 84.3C132.599 83.784 133.216 82.8667 133.789 81.548L135.208 78.409L135.638 77.893L144.582 57.21H148.624L137.573 82.279C136.914 83.8843 136.168 85.1457 135.337 86.063C134.534 86.9803 133.646 87.6253 132.671 87.998C131.696 88.3993 130.621 88.6 129.446 88.6ZM134.864 80.731L124.458 57.21H128.758L137.616 77.506L134.864 80.731ZM236.82 80.258C236.017 80.258 235.329 79.9857 234.756 79.441C234.183 78.8677 233.896 78.151 233.896 77.291C233.896 76.431 234.183 75.7287 234.756 75.184C235.329 74.6393 236.017 74.367 236.82 74.367C237.594 74.367 238.253 74.6393 238.798 75.184C239.371 75.7287 239.658 76.431 239.658 77.291C239.658 78.151 239.371 78.8677 238.798 79.441C238.253 79.9857 237.594 80.258 236.82 80.258Z" fill="#55a8d9"/>
<path d="M159.055 80V53.641H148.735V49.9H173.632V53.641H163.312V80H159.055ZM177.168 80V57.21H181.124V63.402L180.737 61.854C181.368 60.2773 182.428 59.0733 183.919 58.242C185.41 57.4107 187.244 56.995 189.423 56.995V60.994C189.251 60.9653 189.079 60.951 188.907 60.951C188.764 60.951 188.62 60.951 188.477 60.951C186.27 60.951 184.521 61.6103 183.231 62.929C181.941 64.2477 181.296 66.154 181.296 68.648V80H177.168ZM194.511 80V57.21H198.639V80H194.511ZM196.575 52.824C195.772 52.824 195.098 52.566 194.554 52.05C194.038 51.534 193.78 50.9033 193.78 50.158C193.78 49.384 194.038 48.739 194.554 48.223C195.098 47.707 195.772 47.449 196.575 47.449C197.377 47.449 198.037 47.707 198.553 48.223C199.097 48.7103 199.37 49.3267 199.37 50.072C199.37 50.846 199.112 51.5053 198.596 52.05C198.08 52.566 197.406 52.824 196.575 52.824ZM218.603 80.258C216.711 80.258 214.977 79.828 213.4 78.968C211.852 78.0793 210.605 76.775 209.659 75.055C208.742 73.335 208.283 71.185 208.283 68.605C208.283 66.025 208.728 63.875 209.616 62.155C210.534 60.435 211.766 59.145 213.314 58.285C214.891 57.425 216.654 56.995 218.603 56.995C220.839 56.995 222.817 57.4823 224.537 58.457C226.257 59.4317 227.619 60.7933 228.622 62.542C229.626 64.262 230.127 66.283 230.127 68.605C230.127 70.927 229.626 72.9623 228.622 74.711C227.619 76.4597 226.257 77.8213 224.537 78.796C222.817 79.7707 220.839 80.258 218.603 80.258ZM206.52 88.342V57.21H210.476V63.359L210.218 68.648L210.648 73.937V88.342H206.52ZM218.259 76.646C219.721 76.646 221.026 76.3163 222.172 75.657C223.348 74.9977 224.265 74.066 224.924 72.862C225.612 71.6293 225.956 70.2103 225.956 68.605C225.956 66.971 225.612 65.5663 224.924 64.391C224.265 63.187 223.348 62.2553 222.172 61.596C221.026 60.9367 219.721 60.607 218.259 60.607C216.826 60.607 215.522 60.9367 214.346 61.596C213.2 62.2553 212.282 63.187 211.594 64.391C210.935 65.5663 210.605 66.971 210.605 68.605C210.605 70.2103 210.935 71.6293 211.594 72.862C212.282 74.066 213.2 74.9977 214.346 75.657C215.522 76.3163 216.826 76.646 218.259 76.646ZM245.573 80V57.21H249.529V63.402L249.142 61.854C249.773 60.2773 250.833 59.0733 252.324 58.242C253.815 57.4107 255.649 56.995 257.828 56.995V60.994C257.656 60.9653 257.484 60.951 257.312 60.951C257.169 60.951 257.025 60.951 256.882 60.951C254.675 60.951 252.926 61.6103 251.636 62.929C250.346 64.2477 249.701 66.154 249.701 68.648V80H245.573ZM272.799 80.258C270.85 80.258 269.13 79.8997 267.639 79.183C266.177 78.4663 265.03 77.377 264.199 75.915C263.396 74.4243 262.995 72.561 262.995 70.325V57.21H267.123V69.852C267.123 72.088 267.653 73.765 268.714 74.883C269.803 76.001 271.323 76.56 273.272 76.56C274.705 76.56 275.952 76.2733 277.013 75.7C278.074 75.098 278.891 74.238 279.464 73.12C280.037 71.9733 280.324 70.5973 280.324 68.992V57.21H284.452V80H280.539V73.851L281.184 75.485C280.439 77.0043 279.321 78.1797 277.83 79.011C276.339 79.8423 274.662 80.258 272.799 80.258Z" fill="#fff"/>
<path fill-rule="evenodd" clip-rule="evenodd" d="M79.422 74.5767C79.4475 74.5193 79.4656 74.4586 79.4837 74.3975L79.489 74.3797C80.552 71.0867 81.132 67.5797 81.132 63.9387C81.132 46.7897 68.392 32.5667 51.882 30.2197C50.775 30.1465 50.3809 30 46.8809 30C43.3809 30 43.2322 30.1465 42.248 30.2197C29.656 32.0107 19.26 40.7067 15.035 52.3437C15.023 52.3727 15.016 52.4027 15.005 52.4327C13.71 56.0287 13 59.9017 13 63.9387C13 67.5377 13.565 71.0067 14.605 74.2657C14.628 74.3827 14.669 74.4927 14.718 74.5987C19.203 88.1737 32.001 98.0017 47.06 98.0047H47.061H47.066C47.295 98.0047 47.521 97.9917 47.748 97.9877C47.796 97.9927 47.844 98.0047 47.892 98.0047C47.95 98.0047 48.007 97.9857 48.064 97.9797C62.698 97.5547 75.042 87.8637 79.422 74.5767ZM17.491 54.4387C16.527 57.4347 16 60.6257 16 63.9387C16 66.8967 16.425 69.7567 17.201 72.4687H28.397C27.711 69.7227 27.303 66.7807 27.303 63.6427C27.303 60.3837 27.799 57.3097 28.621 54.4387H17.491ZM31.779 54.4387C30.864 57.3027 30.303 60.3817 30.303 63.6427C30.303 66.7877 30.76 69.7337 31.519 72.4687H45.56V54.4387H31.779ZM48.561 51.4387H62.056C58.33 42.6657 51.584 36.3427 48.561 33.8157V51.4387ZM45.561 51.4387V34.5257C42.26 37.4167 36.302 43.4007 32.89 51.4387H45.561ZM45.561 93.4337V75.4687H32.497C35.83 84.3047 42.142 90.5377 45.561 93.4337ZM48.561 75.4687V94.1137C51.672 91.6057 58.817 85.0717 62.447 75.4687H48.561ZM48.561 54.4387V72.4687H63.429C64.191 69.7327 64.649 66.7867 64.649 63.6427C64.649 60.3817 64.086 57.3037 63.17 54.4387H48.561ZM76.64 54.4387H66.33C67.152 57.3097 67.649 60.3827 67.649 63.6427C67.649 66.7807 67.241 69.7227 66.555 72.4687H76.931C77.707 69.7567 78.131 66.8967 78.131 63.9387C78.131 60.6257 77.605 57.4347 76.64 54.4387ZM65.332 51.4387H75.497C71.401 42.1587 62.896 35.2527 52.649 33.3847C56.478 36.9157 62.175 43.1767 65.332 51.4387ZM29.619 51.4387C32.83 43.0357 38.665 36.7077 42.492 33.2117C31.796 34.7977 22.865 41.8557 18.635 51.4387H29.619ZM29.283 75.4687H18.228C22.254 85.5017 31.361 92.9677 42.354 94.6477C38.376 91.0787 32.366 84.5277 29.283 75.4687ZM65.669 75.4687C62.638 84.3747 56.778 90.8577 52.8 94.4657C63.332 92.4907 72.004 85.1887 75.904 75.4687H65.669Z" fill="#fff"/>
<path d="M43 21C74 21 79.3771 37.0821 145.5 37.0821C167.5 37.0821 209.834 28.9994 231 16.9995" stroke="#55a8d9" stroke-width="2.3"/>
<path d="M225.517 20.8745L220.988 15.553L222.361 15.0133L225.075 16.6904L232.168 13.2081L224.671 4.49372L226.483 3.55421L237.563 10.5382L244.344 7.22028C244.906 6.92675 245.467 6.93313 246.027 7.23943C246.588 7.54573 246.93 8.02819 247.053 8.68679C247.134 9.11829 247.08 9.52819 246.89 9.91649C246.7 10.3048 246.417 10.593 246.041 10.7811L225.517 20.8745Z" fill="#55a8d9"/>
<path d="M43.5 21C20.5802 21 2 39.5802 2 62.5C2 73.7855 6.50471 84.0188 13.8141 91.5" stroke="#55a8d9" stroke-width="2.3"/>
<circle cx="13" cy="91" r="2" fill="#55a8d9"/>
</svg>
